<svg xmlns="http://www.w3.org/2000/svg" width="53" height="54" viewBox="0 0 53 54" fill="none">
  <g clip-path="url(#clip0_1901_5552)">
    <path opacity="0.1" d="M26.6667 53.2276C37.5305 53.2276 46.3373 52.4937 46.3373 51.5884C46.3373 50.6831 37.5305 49.9492 26.6667 49.9492C15.803 49.9492 6.99615 50.6831 6.99615 51.5884C6.99615 52.4937 15.803 53.2276 26.6667 53.2276Z" fill="white"/>
    <path fill-rule="evenodd" clip-rule="evenodd" d="M25.6036 12.8531C25.2785 13.0341 25.005 13.2951 24.809 13.6114L20.2574 20.9704C19.954 21.4611 19.4689 21.8119 18.9078 21.9463L10.4757 23.9658C10.1116 24.053 9.776 24.2324 9.50111 24.4866C9.22622 24.7408 9.02125 25.0614 8.90584 25.4176C8.79044 25.7738 8.76848 26.1536 8.84206 26.5208C8.91564 26.8879 9.08231 27.2299 9.32607 27.5141L14.9355 34.0513C15.1227 34.2696 15.2651 34.5227 15.3543 34.7961C15.4436 35.0695 15.478 35.3579 15.4556 35.6446L14.7857 44.2221C14.7567 44.5942 14.8234 44.9675 14.9795 45.3065C15.1357 45.6455 15.376 45.9388 15.6776 46.1586C15.9792 46.3784 16.3321 46.5173 16.7026 46.562C17.0732 46.6068 17.449 46.5559 17.7942 46.4143L25.8373 43.1162C26.3688 42.8982 26.9647 42.8982 27.4962 43.1162L35.5393 46.4143C35.8846 46.5559 36.2604 46.6068 36.6309 46.562C37.0014 46.5173 37.3543 46.3784 37.6559 46.1586C37.9575 45.9388 38.1979 45.6455 38.354 45.3065C38.5101 44.9675 38.5768 44.5942 38.5478 44.2221L37.8779 35.6446C37.8555 35.3579 37.8899 35.0695 37.9792 34.7961C38.0684 34.5227 38.2108 34.2696 38.3981 34.0513L44.0074 27.5141C44.2512 27.2299 44.4179 26.8879 44.4914 26.5208C44.565 26.1536 44.5431 25.7738 44.4277 25.4176C44.3123 25.0614 44.1073 24.7408 43.8324 24.4866C43.5575 24.2324 43.2219 24.053 42.8578 23.9658L34.4268 21.9463C33.8658 21.8119 33.3806 21.4611 33.0772 20.9704L28.5245 13.6114C28.3285 13.2951 28.055 13.0341 27.7299 12.8531C27.4048 12.6721 27.0389 12.5771 26.6668 12.5771C26.2947 12.5771 25.9287 12.6721 25.6036 12.8531ZM25.7093 13.5892C25.4149 13.7548 25.168 13.9936 24.9926 14.2824L21.7634 20.0164C21.7107 20.1021 21.6442 20.2209 21.5674 20.358C21.2427 20.938 20.7354 21.844 20.3252 21.943L13.9804 23.4729C13.6485 23.5555 13.3432 23.7216 13.0936 23.9553C12.8439 24.189 12.6581 24.4827 12.5539 24.8085C12.4497 25.1342 12.4304 25.4812 12.498 25.8164C12.5656 26.1517 12.7178 26.4641 12.94 26.724L17.1572 31.6515C17.5028 32.0573 17.6733 32.5835 17.6315 33.1148L17.1277 39.593C17.0985 39.931 17.1566 40.2709 17.2964 40.5802C17.4361 40.8894 17.6529 41.1576 17.9259 41.3591C18.1989 41.5606 18.519 41.6887 18.8557 41.7312C19.1924 41.7736 19.5343 41.729 19.8488 41.6015L25.9248 39.0979C26.4037 38.9012 26.9409 38.9012 27.4198 39.0979L33.4958 41.6015C33.8103 41.729 34.1522 41.7736 34.4889 41.7312C34.8255 41.6887 35.1457 41.5606 35.4187 41.3591C35.6917 41.1576 35.9084 40.8894 36.0482 40.5802C36.1879 40.2709 36.246 39.931 36.2169 39.593L35.7087 33.1181C35.6669 32.5868 35.8374 32.0605 36.183 31.6548L40.3914 26.7273C40.6137 26.4674 40.7659 26.155 40.8334 25.8197C40.901 25.4845 40.8818 25.1375 40.7775 24.8117C40.6733 24.486 40.4875 24.1923 40.2379 23.9586C39.9882 23.7248 39.6829 23.5588 39.351 23.4762L33.0062 21.9463C32.5824 21.844 32.0243 20.8791 31.6916 20.304C31.6262 20.191 31.5696 20.0931 31.5244 20.0197L28.3552 14.2824C28.1798 13.9936 27.933 13.7548 27.6385 13.5892C27.344 13.4235 27.0118 13.3364 26.6739 13.3364C26.336 13.3364 26.0038 13.4235 25.7093 13.5892Z" fill="white"/>
    <path d="M26.6809 35.7414C25.8987 35.7572 25.1215 35.6129 24.397 35.3174C23.7753 35.0634 23.2413 34.6335 22.8605 34.0804C22.4859 33.5078 22.2952 32.8344 22.3141 32.1505C22.2807 31.3376 22.5684 30.5443 23.1151 29.9419C23.7042 29.345 24.4828 28.9721 25.3171 28.8873L25.2537 29.1627C24.5006 29.0205 23.8144 28.6369 23.2987 28.0699C22.8139 27.5196 22.5547 26.8065 22.5731 26.0733C22.557 25.4195 22.7437 24.7766 23.1075 24.2331C23.4741 23.7075 23.9806 23.2952 24.5696 23.043C25.2361 22.7567 25.9557 22.6152 26.6809 22.6277C27.4062 22.6152 28.1258 22.7567 28.7922 23.043C29.3817 23.2951 29.8886 23.7074 30.2555 24.2331C30.6193 24.7766 30.806 25.4195 30.7899 26.0733C30.8078 26.8137 30.5482 27.5341 30.0621 28.0929C29.5585 28.6605 28.8753 29.0382 28.1267 29.1627L28.0612 28.8917C28.8958 28.9873 29.6714 29.3697 30.2555 29.9736C30.7949 30.571 31.0806 31.3548 31.0522 32.1592C31.0673 32.8409 30.8744 33.511 30.4992 34.0804C30.1201 34.6325 29.5885 35.0623 28.9693 35.3174C28.2434 35.6135 27.4647 35.7578 26.6809 35.7414ZM26.6809 33.9372C27.3007 33.9712 27.914 33.7965 28.4229 33.4411C28.6381 33.268 28.8087 33.0457 28.9201 32.7929C29.0315 32.5402 29.0806 32.2644 29.0633 31.9887C29.0746 31.7115 29.0203 31.4355 28.9046 31.1833C28.7889 30.931 28.6153 30.7098 28.3977 30.5375C27.8977 30.1599 27.3041 29.9261 26.6809 29.861C26.0578 29.9261 25.4642 30.1599 24.9641 30.5375C24.7465 30.7099 24.5727 30.9313 24.457 31.1838C24.3414 31.4362 24.2871 31.7124 24.2986 31.9898C24.2812 32.2655 24.3303 32.5413 24.4418 32.794C24.5532 33.0468 24.7237 33.2691 24.939 33.4422C25.448 33.7972 26.0613 33.9715 26.6809 33.9372ZM26.6809 28.3814C27.2317 28.2967 27.7487 28.0627 28.1759 27.7049C28.3727 27.531 28.528 27.3151 28.6303 27.0732C28.7326 26.8313 28.7794 26.5696 28.7671 26.3072C28.7851 26.0468 28.7438 25.7858 28.6463 25.5437C28.5489 25.3016 28.3977 25.0847 28.2043 24.9095C27.7715 24.5727 27.2319 24.4032 26.6842 24.4319C26.1366 24.4032 25.5969 24.5727 25.1641 24.9095C24.9701 25.0844 24.8184 25.3011 24.7203 25.5432C24.6223 25.7854 24.5805 26.0466 24.598 26.3072C24.5858 26.5696 24.6326 26.8313 24.7349 27.0732C24.8372 27.3151 24.9925 27.531 25.1893 27.7049C25.6155 28.0622 26.1313 28.2961 26.6809 28.3814Z" fill="white"/>
    <path d="M25.7302 10.7639V10.4514H25.4177C25.2947 10.4514 25.1729 10.4272 25.0593 10.3801C24.9457 10.333 24.8424 10.264 24.7555 10.1771C24.6685 10.0901 24.5995 9.98688 24.5524 9.87325C24.5054 9.75963 24.4811 9.63783 24.4811 9.51484C24.481 9.39176 24.5051 9.26985 24.5521 9.1561C24.5991 9.04235 24.6681 8.939 24.7551 8.85191C24.842 8.76483 24.9453 8.69575 25.059 8.64861C25.1727 8.60148 25.2946 8.57721 25.4177 8.57721H25.7302V8.26466C25.7302 8.14167 25.7544 8.01991 25.8015 7.90628C25.8486 7.79265 25.9176 7.68939 26.0045 7.60243C26.0915 7.51546 26.1947 7.44649 26.3084 7.39943C26.422 7.35236 26.5438 7.32813 26.6668 7.32813C26.7898 7.32798 26.9118 7.35209 27.0255 7.39909C27.1393 7.4461 27.2426 7.51508 27.3297 7.60206C27.4168 7.68904 27.4859 7.79232 27.533 7.90601C27.5801 8.01971 27.6044 8.14158 27.6044 8.26466V8.57721H27.9169C28.04 8.57721 28.1619 8.60148 28.2756 8.64861C28.3893 8.69575 28.4926 8.76483 28.5796 8.85191C28.6665 8.939 28.7355 9.04235 28.7825 9.1561C28.8295 9.26985 28.8536 9.39176 28.8535 9.51484C28.8535 9.63783 28.8293 9.75963 28.7822 9.87325C28.7351 9.98688 28.6661 10.0901 28.5792 10.1771C28.4922 10.264 28.389 10.333 28.2753 10.3801C28.1617 10.4272 28.0399 10.4514 27.9169 10.4514H27.6044V10.7639C27.6044 10.887 27.5801 11.0089 27.533 11.1226C27.4859 11.2363 27.4168 11.3396 27.3297 11.4266C27.2426 11.5135 27.1393 11.5825 27.0255 11.6295C26.9118 11.6765 26.7898 11.7006 26.6668 11.7005C26.4184 11.7005 26.1802 11.6018 26.0045 11.4262C25.8289 11.2505 25.7302 11.0123 25.7302 10.7639Z" fill="white"/>
    <path d="M36.6583 17.3206V17.008H36.3457C36.2227 17.008 36.101 16.9838 35.9873 16.9367C35.8737 16.8897 35.7705 16.8207 35.6835 16.7337C35.5965 16.6467 35.5275 16.5435 35.4805 16.4299C35.4334 16.3163 35.4092 16.1945 35.4092 16.0715C35.409 15.9484 35.4332 15.8265 35.4802 15.7127C35.5272 15.599 35.5961 15.4956 35.6831 15.4086C35.7701 15.3215 35.8734 15.2524 35.9871 15.2053C36.1008 15.1581 36.2226 15.1339 36.3457 15.1339H36.6583V14.8213C36.6583 14.6983 36.6825 14.5765 36.7296 14.4629C36.7766 14.3493 36.8456 14.246 36.9326 14.1591C37.0195 14.0721 37.1228 14.0031 37.2364 13.9561C37.35 13.909 37.4718 13.8848 37.5948 13.8848C37.7179 13.8846 37.8398 13.9087 37.9535 13.9557C38.0673 14.0027 38.1707 14.0717 38.2577 14.1587C38.3448 14.2457 38.4139 14.349 38.461 14.4627C38.5082 14.5764 38.5324 14.6982 38.5324 14.8213V15.1339H38.845C38.9681 15.1339 39.0899 15.1581 39.2036 15.2053C39.3173 15.2524 39.4206 15.3215 39.5076 15.4086C39.5946 15.4956 39.6635 15.599 39.7105 15.7127C39.7575 15.8265 39.7817 15.9484 39.7815 16.0715C39.7815 16.1945 39.7573 16.3163 39.7102 16.4299C39.6632 16.5435 39.5942 16.6467 39.5072 16.7337C39.4202 16.8207 39.317 16.8897 39.2034 16.9367C39.0898 16.9838 38.968 17.008 38.845 17.008H38.5324V17.3206C38.5324 17.4437 38.5082 17.5655 38.461 17.6792C38.4139 17.7929 38.3448 17.8962 38.2577 17.9832C38.1707 18.0702 38.0673 18.1391 37.9535 18.1861C37.8398 18.2331 37.7179 18.2572 37.5948 18.2571C37.3464 18.2571 37.1082 18.1584 36.9326 17.9828C36.7569 17.8072 36.6583 17.569 36.6583 17.3206Z" fill="white"/>
    <path d="M14.8021 17.3206V17.008H14.4896C14.3666 17.008 14.2448 16.9838 14.1312 16.9367C14.0176 16.8897 13.9143 16.8207 13.8274 16.7337C13.7404 16.6467 13.6714 16.5435 13.6243 16.4299C13.5773 16.3163 13.553 16.1945 13.553 16.0715C13.5529 15.9484 13.577 15.8265 13.624 15.7127C13.671 15.599 13.74 15.4956 13.827 15.4086C13.9139 15.3215 14.0172 15.2524 14.1309 15.2053C14.2446 15.1581 14.3665 15.1339 14.4896 15.1339H14.8021V14.8213C14.8021 14.6983 14.8263 14.5765 14.8734 14.4629C14.9205 14.3493 14.9895 14.246 15.0764 14.1591C15.1634 14.0721 15.2666 14.0031 15.3803 13.9561C15.4939 13.909 15.6157 13.8848 15.7387 13.8848C15.8617 13.8846 15.9837 13.9087 16.0974 13.9557C16.2112 14.0027 16.3145 14.0717 16.4016 14.1587C16.4887 14.2457 16.5578 14.349 16.6049 14.4627C16.652 14.5764 16.6763 14.6982 16.6763 14.8213V15.1339H16.9888C17.1119 15.1339 17.2338 15.1581 17.3475 15.2053C17.4612 15.2524 17.5645 15.3215 17.6515 15.4086C17.7384 15.4956 17.8074 15.599 17.8544 15.7127C17.9014 15.8265 17.9255 15.9484 17.9254 16.0715C17.9254 16.1945 17.9012 16.3163 17.8541 16.4299C17.807 16.5435 17.738 16.6467 17.6511 16.7337C17.5641 16.8207 17.4609 16.8897 17.3472 16.9367C17.2336 16.9838 17.1118 17.008 16.9888 17.008H16.6763V17.3206C16.6763 17.4437 16.652 17.5655 16.6049 17.6792C16.5578 17.7929 16.4887 17.8962 16.4016 17.9832C16.3145 18.0702 16.2112 18.1391 16.0974 18.1861C15.9837 18.2331 15.8617 18.2572 15.7387 18.2571C15.4903 18.2571 15.2521 18.1584 15.0764 17.9828C14.9008 17.8072 14.8021 17.569 14.8021 17.3206Z" fill="white"/>
  </g>
  <defs>
    <clipPath id="clip0_1901_5552">
      <rect x="0.439331" y="0.772461" width="52.4548" height="52.4548" rx="21" fill="white"/>
    </clipPath>
  </defs>
</svg>