<svg xmlns="http://www.w3.org/2000/svg" width="54" height="54" viewBox="0 0 54 54" fill="none">
  <path d="M11.7007 31.3709V26.9997H16.0719V31.3709H11.7007ZM7.32948 26.9997V22.6284H11.7007V26.9997H7.32948ZM27 11.7003V7.32911H31.3713V11.7003H27ZM10.6079 17.1644H17.1648V10.6075H10.6079V17.1644ZM7.32948 18.2572V9.51473C7.32948 8.89547 7.53929 8.37602 7.95893 7.95638C8.37857 7.53674 8.89729 7.32765 9.51509 7.32911H18.2576C18.8768 7.32911 19.3963 7.53893 19.8159 7.95857C20.2355 8.37821 20.4446 8.89693 20.4432 9.51473V18.2572C20.4432 18.8765 20.2334 19.3959 19.8137 19.8155C19.3941 20.2352 18.8754 20.4443 18.2576 20.4428H9.51509C8.89583 20.4428 8.37639 20.233 7.95675 19.8134C7.53711 19.3937 7.32802 18.875 7.32948 18.2572ZM10.6079 43.3918H17.1648V36.8349H10.6079V43.3918ZM7.32948 44.4846V35.7421C7.32948 35.1229 7.53929 34.6034 7.95893 34.1838C8.37857 33.7642 8.89729 33.5551 9.51509 33.5565H18.2576C18.8768 33.5565 19.3963 33.7663 19.8159 34.186C20.2355 34.6056 20.4446 35.1243 20.4432 35.7421V44.4846C20.4432 45.1039 20.2334 45.6233 19.8137 46.043C19.3941 46.4626 18.8754 46.6717 18.2576 46.6702H9.51509C8.89583 46.6702 8.37639 46.4604 7.95675 46.0408C7.53711 45.6211 7.32802 45.1024 7.32948 44.4846ZM36.8353 17.1644H43.3922V10.6075H36.8353V17.1644ZM33.5569 18.2572V9.51473C33.5569 8.89547 33.7667 8.37602 34.1863 7.95638C34.606 7.53674 35.1247 7.32765 35.7425 7.32911H44.485C45.1042 7.32911 45.6237 7.53893 46.0433 7.95857C46.463 8.37821 46.672 8.89693 46.6706 9.51473V18.2572C46.6706 18.8765 46.4608 19.3959 46.0411 19.8155C45.6215 20.2352 45.1028 20.4443 44.485 20.4428H35.7425C35.1232 20.4428 34.6038 20.233 34.1842 19.8134C33.7645 19.3937 33.5554 18.875 33.5569 18.2572ZM20.4432 31.3709V26.9997H16.0719V22.6284H24.8144V31.3709H20.4432ZM22.6288 20.4428V11.7003H27V16.0716H31.3713V20.4428H22.6288ZM12.2471 15.5252V12.2467H15.5255V15.5252H12.2471ZM12.2471 41.7526V38.4742H15.5255V41.7526H12.2471ZM38.4745 15.5252V12.2467H41.753V15.5252H38.4745ZM35.7425 40.1134H31.3713C30.752 40.1134 30.2326 39.9036 29.8129 39.4839C29.3933 39.0643 29.1842 38.5456 29.1857 37.9278C29.1857 37.3085 29.3955 36.7891 29.8151 36.3694C30.2347 35.9498 30.7535 35.7407 31.3713 35.7421H35.7425V31.3709C35.7425 30.7516 35.9523 30.2322 36.372 29.8126C36.7916 29.3929 37.3103 29.1838 37.9281 29.1853C38.5474 29.1853 39.0668 29.3951 39.4865 29.8147C39.9061 30.2344 40.1152 30.7531 40.1137 31.3709V35.7421H44.485C45.1042 35.7421 45.6237 35.952 46.0433 36.3716C46.463 36.7912 46.672 37.31 46.6706 37.9278C46.6706 38.547 46.4608 39.0665 46.0411 39.4861C45.6215 39.9057 45.1028 40.1148 44.485 40.1134H40.1137V44.4846C40.1137 45.1039 39.9039 45.6233 39.4843 46.043C39.0646 46.4626 38.5459 46.6717 37.9281 46.6702C37.3089 46.6702 36.7894 46.4604 36.3698 46.0408C35.9501 45.6211 35.741 45.1024 35.7425 44.4846V40.1134Z" fill="white"/>
</svg>