<svg xmlns="http://www.w3.org/2000/svg" width="53" height="54" viewBox="0 0 53 54" fill="none">
  <path d="M30.0842 28.2059C29.9059 28.1957 29.7344 28.1334 29.591 28.0269C29.4477 27.9204 29.3387 27.7742 29.2774 27.6065C29.2161 27.4387 29.2053 27.2567 29.2462 27.0829C29.2872 26.909 29.3782 26.7511 29.5079 26.6284C29.6376 26.5056 29.8006 26.4235 29.9764 26.3923C30.1521 26.3611 30.3334 26.382 30.4975 26.4524C30.6616 26.523 30.8014 26.6399 30.8998 26.789C30.9981 26.938 31.0507 27.1126 31.051 27.2912C31.0477 27.4148 31.02 27.5364 30.9695 27.6492C30.9191 27.7621 30.8468 27.864 30.7571 27.9489C30.6673 28.0338 30.5617 28.1002 30.4463 28.1442C30.3308 28.1884 30.2077 28.2093 30.0842 28.2059ZM23.3686 27.2912C23.379 27.0981 23.3313 26.9063 23.2317 26.7406C23.132 26.575 22.9849 26.443 22.8094 26.3617C22.6339 26.2805 22.4381 26.2537 22.2472 26.2848C22.0563 26.316 21.8793 26.4038 21.7387 26.5367C21.5982 26.6695 21.5008 26.8415 21.4591 27.0303C21.4173 27.2191 21.4332 27.4161 21.5045 27.5958C21.576 27.7755 21.6996 27.9298 21.8595 28.0385C22.0194 28.1472 22.2084 28.2056 22.4017 28.2059C22.5252 28.2093 22.6483 28.1884 22.7638 28.1442C22.8793 28.1002 22.9849 28.0338 23.0746 27.9489C23.1644 27.864 23.2366 27.7621 23.2871 27.6492C23.3375 27.5364 23.3652 27.4148 23.3686 27.2912ZM26.243 30.9627C30.0189 30.9627 32.9715 32.9879 32.9715 35.5617C32.9715 38.1356 30.0189 40.1477 26.243 40.1477C22.4671 40.1477 19.5143 38.1356 19.5143 35.5617C19.5143 32.9879 22.4801 30.9627 26.243 30.9627ZM21.4872 35.5224C21.4872 37.0119 23.6952 38.2792 26.2952 38.2792C28.8953 38.2792 31.1033 36.9727 31.1033 35.5224C31.1033 34.0722 28.8953 32.7657 26.2952 32.7657C23.6952 32.7657 21.4872 34.0722 21.4872 35.5224ZM38.4069 41.5849C38.2279 41.5925 38.055 41.6526 37.9099 41.7576C37.7647 41.8627 37.6535 42.0081 37.5903 42.1757C37.5271 42.3433 37.5145 42.5259 37.5541 42.7007C37.5937 42.8754 37.6837 43.0346 37.8131 43.1586C37.9424 43.2827 38.1053 43.366 38.2816 43.3982C38.4578 43.4305 38.6396 43.4103 38.8045 43.34C38.9693 43.2698 39.1099 43.1526 39.2087 43.0031C39.3076 42.8538 39.3604 42.6786 39.3607 42.4993C39.3537 42.2521 39.2499 42.0176 39.0714 41.8465C38.8929 41.6752 38.6541 41.5814 38.4069 41.5849ZM42.627 20.8238C42.6231 22.712 41.9468 24.5369 40.7193 25.9716C41.9453 28.3581 42.5984 30.9973 42.627 33.6802C42.6282 35.6068 42.2693 37.5167 41.5687 39.3115C41.5188 39.4329 41.4451 39.543 41.352 39.6354C41.2587 39.7278 41.1479 39.8006 41.026 39.8493C40.9041 39.898 40.7737 39.9218 40.6425 39.9192C40.5113 39.9166 40.382 39.8877 40.2622 39.8341C40.1464 39.7961 40.0397 39.735 39.9482 39.6545C39.8568 39.5741 39.7824 39.476 39.7299 39.3661C39.6774 39.2562 39.6477 39.1368 39.6426 39.0152C39.6375 38.8934 39.6571 38.772 39.7004 38.6582C40.3232 37.0725 40.6422 35.3838 40.6409 33.6802C40.6046 31.08 39.9222 28.5299 38.6551 26.2592C38.5668 26.0887 38.5344 25.8945 38.5626 25.7045C38.5907 25.5147 38.678 25.3383 38.8119 25.2007C39.9724 24.0383 40.6293 22.4664 40.6409 20.8238V19.8963H39.6873C38.2423 19.9005 36.8349 20.3574 35.663 21.2028C35.4932 21.3352 35.284 21.4072 35.0687 21.4072C34.8532 21.4072 34.644 21.3352 34.4742 21.2028C33.7854 20.6498 33.0511 20.1558 32.2792 19.7264C30.5433 21.0572 28.4171 21.7784 26.2299 21.7784C24.0426 21.7784 21.9164 21.0572 20.1806 19.7264C19.4086 20.1558 18.6743 20.6498 17.9856 21.2028C17.8158 21.3352 17.6065 21.4072 17.3912 21.4072C17.1757 21.4072 16.9664 21.3352 16.7965 21.2028C15.6295 20.3575 14.2266 19.9005 12.7856 19.8963H11.8186V20.8238C11.8304 22.4664 12.4874 24.0383 13.6479 25.2007C13.7854 25.3362 13.8751 25.5127 13.9035 25.7036C13.9317 25.8946 13.8971 26.0897 13.8047 26.2592C12.5405 28.5311 11.8582 31.0806 11.8186 33.6802C11.7653 36.672 12.8061 39.5804 14.7454 41.8591C16.3918 43.7361 17.3823 46.0981 17.5675 48.5878H21.4872V47.2813C21.4894 47.1414 21.523 47.0036 21.5853 46.8784C21.6476 46.7529 21.7371 46.6432 21.8472 46.5568C21.9574 46.4705 22.0854 46.4096 22.2221 46.379C22.3586 46.3483 22.5004 46.3488 22.6369 46.3799C25.0547 46.8328 27.5357 46.8328 29.9534 46.3799C30.09 46.3488 30.2317 46.3483 30.3684 46.379C30.5049 46.4096 30.633 46.4705 30.7431 46.5568C30.8532 46.6432 30.9427 46.7529 31.0051 46.8784C31.0674 47.0036 31.101 47.1414 31.1033 47.2813V48.5878H35.0229C35.1029 47.7007 35.2781 46.8245 35.5456 45.9747C35.6264 45.7355 35.7965 45.5367 36.0206 45.4197C36.2446 45.3029 36.5049 45.2772 36.7476 45.3477C36.8662 45.3792 36.9774 45.4344 37.0743 45.5097C37.1713 45.5851 37.252 45.6793 37.3117 45.7866C37.3714 45.8939 37.4089 46.0121 37.422 46.1343C37.4351 46.2564 37.4234 46.3799 37.3876 46.4975C37.077 47.4828 36.9142 48.5085 36.9044 49.5416C36.901 49.6652 36.8733 49.7868 36.8228 49.8997C36.7724 50.0125 36.7003 50.1144 36.6104 50.1993C36.5206 50.2844 36.4149 50.3506 36.2996 50.3948C36.1841 50.4388 36.061 50.4598 35.9375 50.4563H30.1757C29.9283 50.4598 29.6896 50.3658 29.5112 50.1946C29.3327 50.0235 29.2287 49.7888 29.2218 49.5416V48.431C28.2639 48.5502 27.2997 48.6114 26.3344 48.6141C25.3735 48.6117 24.4136 48.5506 23.46 48.431V49.5416C23.4566 49.6652 23.4289 49.7868 23.3785 49.8997C23.3281 50.0125 23.2558 50.1144 23.1661 50.1993C23.0763 50.2844 22.9707 50.3506 22.8552 50.3948C22.7397 50.4388 22.6167 50.4598 22.4932 50.4563H16.7314C16.6078 50.4598 16.4847 50.4388 16.3693 50.3948C16.2538 50.3506 16.1482 50.2844 16.0584 50.1993C15.9686 50.1144 15.8963 50.0125 15.8459 49.8997C15.7955 49.7868 15.7679 49.6652 15.7645 49.5416C15.7635 47.1987 14.9352 44.9313 13.4258 43.1396C11.1561 40.5377 9.9359 37.1845 10.0027 33.7324C10.0311 31.0497 10.6843 28.4104 11.9101 26.0239C10.6877 24.5863 10.0122 22.7632 10.0027 20.8762V19.0339C10.0061 18.9104 10.0338 18.7887 10.0842 18.6759C10.1346 18.563 10.2067 18.4613 10.2965 18.3764C10.3863 18.2913 10.492 18.2248 10.6075 18.1808C10.723 18.1368 10.8459 18.1159 10.9695 18.1194H12.89C14.4922 18.1331 16.0601 18.5849 17.4238 19.4259C17.8942 19.0732 18.3907 18.7465 18.8871 18.446C17.5025 16.8348 16.738 14.7824 16.7314 12.6579C16.8597 10.1977 17.9275 7.88065 19.7143 6.1846C21.5011 4.48856 23.8708 3.54297 26.3344 3.54297C28.798 3.54297 31.1677 4.48856 32.9546 6.1846C34.7414 7.88065 35.8091 10.1977 35.9375 12.6579C35.9298 14.7799 35.1707 16.8306 33.7947 18.446C34.2911 18.7422 34.7747 19.0689 35.2451 19.4259C36.6142 18.5864 38.1858 18.1347 39.7918 18.1194H41.7123C41.9596 18.1159 42.1983 18.2098 42.3769 18.381C42.5554 18.5521 42.6593 18.7867 42.6662 19.0339L42.627 20.8238ZM33.9777 12.5535C34.0481 11.0178 33.6571 9.49629 32.8549 8.18493C32.0526 6.87357 30.8761 5.83247 29.4768 5.19593C28.0775 4.55938 26.5196 4.35653 25.004 4.61347C23.4883 4.87042 22.0843 5.57539 20.973 6.63755C19.8617 7.69973 19.094 9.07032 18.7689 10.5728C18.4437 12.0753 18.5759 13.6407 19.1486 15.0675C19.7212 16.4941 20.7081 17.7165 21.9818 18.5771C23.2556 19.4378 24.758 19.8972 26.2952 19.8963C28.2868 19.9384 30.2138 19.1889 31.654 17.8125C33.0941 16.4362 33.9296 14.545 33.9777 12.5535ZM27.85 9.65288L23.2641 14.043C23.1627 14.136 23.0817 14.2489 23.0264 14.3749C22.971 14.5008 22.9424 14.6369 22.9424 14.7745C22.9424 14.9121 22.971 15.0482 23.0264 15.1742C23.0817 15.3001 23.1627 15.4133 23.2641 15.5063C23.4704 15.702 23.744 15.8111 24.0284 15.8111C24.3128 15.8111 24.5864 15.702 24.7927 15.5063L29.3785 11.1162C29.4799 11.0232 29.5609 10.9103 29.6163 10.7843C29.6717 10.6583 29.7003 10.5222 29.7003 10.3846C29.7003 10.247 29.6717 10.1109 29.6163 9.98494C29.5609 9.85898 29.4799 9.74589 29.3785 9.65288C29.1722 9.45713 28.8988 9.34809 28.6143 9.34809C28.3299 9.34809 28.0563 9.45713 27.85 9.65288ZM24.7273 11.051C24.8284 10.9592 24.9091 10.8472 24.9644 10.7223C25.0197 10.5974 25.0481 10.4623 25.0481 10.3258C25.0481 10.1892 25.0197 10.0541 24.9644 9.92927C24.9091 9.8044 24.8284 9.69256 24.7273 9.60072C24.5232 9.40584 24.2518 9.29706 23.9696 9.29706C23.6874 9.29706 23.4159 9.40584 23.2118 9.60072C23.1107 9.69256 23.0301 9.8044 22.9748 9.92927C22.9195 10.0541 22.8909 10.1892 22.8909 10.3258C22.8909 10.4623 22.9195 10.5974 22.9748 10.7223C23.0301 10.8472 23.1107 10.9592 23.2118 11.051C23.4159 11.2458 23.6874 11.3547 23.9696 11.3547C24.2518 11.3547 24.5232 11.2458 24.7273 11.051ZM27.8108 13.9907C27.7111 14.0847 27.6317 14.1981 27.5775 14.3239C27.5233 14.4497 27.4953 14.5852 27.4953 14.7223C27.4953 14.8593 27.5233 14.9948 27.5775 15.1206C27.6317 15.2464 27.7111 15.36 27.8108 15.4541C28.0171 15.6498 28.2907 15.7587 28.5752 15.7587C28.8595 15.7587 29.133 15.6498 29.3395 15.4541C29.439 15.36 29.5185 15.2464 29.5727 15.1206C29.6269 14.9948 29.655 14.8593 29.655 14.7223C29.655 14.5852 29.6269 14.4497 29.5727 14.3239C29.5185 14.1981 29.439 14.0847 29.3395 13.9907C29.133 13.7949 28.8595 13.6858 28.5752 13.6858C28.2907 13.6858 28.0171 13.7949 27.8108 13.9907Z" fill="white" stroke="white"/>
</svg>