<svg xmlns="http://www.w3.org/2000/svg" width="80" height="80" viewBox="0 0 80 80" fill="none">
  <path d="M54.2679 70H25.7321C23.3417 70 21.2501 68.134 21.2501 65.6939V60.9569C21.2501 60.3827 21.6982 59.9523 22.2958 59.9523H57.7042C58.3018 59.9523 58.7501 60.3827 58.7501 60.9569V65.6939C58.7501 68.134 56.8078 70 54.2679 70ZM24.5368 61.9617V65.6939C24.5368 66.9857 25.5827 67.9904 26.9272 67.9904H53.3715C54.7162 67.9904 55.7619 66.9857 55.7619 65.6939V61.9617H24.5368ZM44.1086 64.9761C44.1086 64.402 43.6605 63.9713 43.0627 63.9713H36.7878C36.1903 63.9713 35.742 64.402 35.742 64.9761C35.742 65.5502 36.1903 65.9809 36.7878 65.9809H43.0627C43.6605 65.9809 44.1086 65.5502 44.1086 64.9761ZM57.7042 20.0479H22.2958C21.6982 20.0479 21.2501 19.6172 21.2501 19.0431V14.3062C21.2501 12.0096 23.1922 10 25.7321 10H54.2679C56.6584 10 58.7501 11.866 58.7501 14.3062V19.0431C58.7501 19.6172 58.3018 20.0479 57.7042 20.0479ZM24.5368 18.0383H55.7619V14.3062C55.7619 13.0144 54.7162 12.0096 53.3715 12.0096H26.778C25.5827 12.0096 24.5368 13.0144 24.5368 14.3062V18.0383ZM46.2002 15.0239C46.2002 14.4498 45.752 14.0191 45.1545 14.0191H34.6963C34.0985 14.0191 33.6504 14.4498 33.6504 15.0239C33.6504 15.5981 34.0985 16.0287 34.6963 16.0287H45.1545C45.752 16.0287 46.2002 15.5981 46.2002 15.0239ZM57.7042 61.9617H22.2958C21.6982 61.9617 21.2501 61.5312 21.2501 60.9569V19.0431C21.2501 18.469 21.6982 18.0383 22.2958 18.0383H57.7042C58.3018 18.0383 58.7501 18.469 58.7501 19.0431V61.1005C58.7501 61.5312 58.3018 61.9617 57.7042 61.9617ZM24.5368 58.6604H55.6127V21.3398H24.5368V58.6604ZM42.017 58.0861H37.8337C37.2362 58.0861 36.7878 57.6556 36.7878 57.0814V54.067H34.8457C34.3974 54.067 34.0985 53.7799 33.9493 53.4929C33.7998 53.2058 33.7998 52.7751 34.0987 52.4881L39.3277 46.4594C39.7758 46.0287 40.5228 46.0287 40.9712 46.4594L46.2002 52.4881C46.499 52.7751 46.499 53.2058 46.3496 53.4929C46.2002 53.7799 45.752 54.067 45.4532 54.067H43.3616V57.0814C43.0627 57.5119 42.6146 58.0861 42.017 58.0861ZM38.8796 56.0766H40.9712V53.0622C40.9712 52.4881 41.4193 52.0574 42.017 52.0574H42.9133L39.9253 48.6124L36.9373 52.0574H37.8337C38.4313 52.0574 38.8796 52.4881 38.8796 53.0622V56.0766ZM39.9253 44.0192C33.6504 44.0192 28.4214 39.1388 28.4214 32.9665C28.4214 26.7942 33.501 21.9139 39.9253 21.9139C46.3496 21.9139 51.4293 26.7942 51.4293 32.9665C51.4293 39.1388 46.3496 44.0192 39.9253 44.0192ZM39.9253 24.6411C35.1444 24.6411 31.1105 28.3733 31.1105 33.1101C31.1105 37.8469 34.995 41.5789 39.9253 41.5789C44.8556 41.5789 48.74 37.8469 48.74 33.1101C48.74 28.3733 44.8556 24.6411 39.9253 24.6411ZM43.6605 30.5264C43.6605 30.2393 43.6605 30.0957 43.6605 29.9522C43.6605 29.0909 43.3616 28.3733 42.9133 27.799C42.4652 27.2249 41.7182 26.9378 40.6723 26.7942V25.7895H39.1783V26.7942C38.1324 26.9378 37.2362 27.2249 36.7878 27.799C36.1903 28.3733 36.0408 29.0909 36.0408 29.9522C36.0408 30.5264 36.1903 31.1005 36.489 31.6746C36.7878 32.2487 37.0867 32.536 37.3854 32.8231C37.6843 33.1101 38.4313 33.5406 39.3277 34.1149C39.9253 34.402 40.2242 34.8325 40.3736 35.1196C40.5228 35.4068 40.5228 35.9809 40.5228 36.555C40.5228 36.8421 40.5228 36.9857 40.3736 37.1292C40.2242 37.2728 40.0747 37.2728 39.9253 37.2728C39.6266 37.2728 39.4772 37.1292 39.4772 36.9857C39.4772 36.8421 39.1783 36.4114 39.1783 35.5502V34.8325H36.0408V35.4068C36.0408 36.8421 36.3397 37.7033 36.9373 38.2776C37.5348 38.8517 38.2818 39.1388 39.1783 39.2822V40.4307H40.6723V39.2822C41.7182 39.1388 42.6146 38.7081 43.2122 38.134C43.8097 37.5599 43.9592 36.6985 43.9592 35.5502C43.9592 34.8325 43.8097 34.2584 43.6605 33.8277C43.511 33.3972 43.2122 32.9665 42.9133 32.8231C42.6146 32.536 42.017 32.2487 41.27 31.6746C40.3736 31.1005 39.7758 30.6698 39.4772 30.5264C39.3277 30.3827 39.1783 29.9522 39.1783 29.5216C39.1783 29.2345 39.1783 28.9474 39.3277 28.8038C39.4772 28.6604 39.6266 28.5167 39.7758 28.5167C40.0747 28.5167 40.2242 28.6604 40.2242 28.8038C40.2242 28.9474 40.3736 29.3779 40.3736 29.8086V30.3827H43.6605V30.5264Z" fill="#fff"/>
</svg>