<svg xmlns="http://www.w3.org/2000/svg" width="53" height="54" viewBox="0 0 53 54" fill="none">
  <path fill-rule="evenodd" clip-rule="evenodd" d="M40.1301 27.0078V26.2514C40.1663 25.7162 40.1107 25.179 39.9656 24.6626C39.8892 24.5583 39.7893 24.4736 39.6739 24.4151C39.5585 24.3567 39.4308 24.3262 39.3013 24.3262C39.1718 24.3262 39.0441 24.3567 38.9287 24.4151C38.8133 24.4736 38.7133 24.5583 38.637 24.6626C38.4699 24.9577 38.395 25.2957 38.4219 25.6335C38.3617 26.1706 38.5163 26.7096 38.8521 27.134C39.6441 27.7666 40.491 28.3279 41.3829 28.8111C42.2347 29.2852 43.0508 29.8203 43.8249 30.4124C44.3018 30.8546 44.6735 31.3975 44.9132 32.0012C45.2273 32.8042 45.3778 33.6615 45.3561 34.5231C45.4254 35.885 45.0035 37.2267 44.1666 38.3058C43.2118 39.307 41.9172 39.9183 40.5351 40.0206V41.7355H38.4219V39.9829C37.2015 39.8762 36.048 39.381 35.132 38.5706C34.6062 37.996 34.2092 37.3166 33.9671 36.5775C33.7249 35.8383 33.6432 35.0564 33.7274 34.2835V33.4007H38.4219V34.5104C38.3878 35.2739 38.4343 36.0389 38.561 36.7926C38.6046 36.938 38.6985 37.0632 38.8258 37.1463C38.9532 37.2294 39.106 37.2648 39.2571 37.2465C39.3922 37.2574 39.5278 37.2342 39.6517 37.1791C39.7755 37.124 39.8834 37.0388 39.9656 36.9313C40.1465 36.6598 40.231 36.3359 40.2061 36.0109C40.2393 35.2723 40.1627 34.533 39.9783 33.8169C39.6506 33.1843 39.1208 32.6784 38.4725 32.3794C37.0469 31.4967 36.0725 30.8538 35.5496 30.4503C34.9877 29.9707 34.5349 29.3776 34.2209 28.7102C33.8374 27.9254 33.6466 27.061 33.6641 26.1883C33.6308 25.6016 33.7192 25.0144 33.924 24.4634C34.1286 23.9124 34.445 23.4093 34.8536 22.9855C35.8445 22.1162 37.103 21.6092 38.4219 21.5481V20.0853H40.5857V21.5481C41.8019 21.6256 42.9527 22.1253 43.8376 22.9604C44.5912 23.8433 44.9761 24.9805 44.9132 26.1378C44.9132 26.3143 44.9132 26.6044 44.9132 26.9953L40.1301 27.0078ZM50.7085 12.4821V43.7026C50.7068 43.8069 50.6846 43.9098 50.643 44.0056C50.6013 44.1013 50.5412 44.188 50.4661 44.2607C50.3909 44.3332 50.3021 44.3903 50.2047 44.4288C50.1074 44.4671 50.0033 44.486 49.8987 44.4844H3.42218C3.21289 44.4844 3.01195 44.4024 2.86285 44.2561C2.71372 44.1099 2.62827 43.911 2.62494 43.7026V12.4821C2.62827 12.2736 2.71372 12.0747 2.86285 11.9285C3.01195 11.7822 3.21289 11.7003 3.42218 11.7003H49.8987C50.0033 11.6986 50.1074 11.7175 50.2047 11.7559C50.3021 11.7943 50.3909 11.8514 50.4661 11.924C50.5412 11.9966 50.6013 12.0832 50.643 12.179C50.6846 12.2747 50.7068 12.3777 50.7085 12.4821ZM4.25731 16.063L7.12954 13.2639H4.25731V16.063ZM4.25731 20.7411L11.8494 13.2639H9.31873L4.18139 18.3076L4.25731 20.7411ZM49.1395 13.2639H14.1649L4.25731 22.9478V42.9207H49.1395V13.2639ZM8.26849 28.0923H19.4416V26.5287H8.21787L8.26849 28.0923ZM8.26849 24.1961H13.874V22.6325H8.26849V24.1961ZM33.1073 17.8915H36.3214V16.3279H33.1073V17.8915ZM37.9158 17.8915H41.1171V16.3279H37.9158V17.8915ZM42.7241 17.8915H45.9255V16.3279H42.7241V17.8915ZM7.43335 41.3825H22.6176V39.8315H7.43335V41.3825ZM24.2626 41.3825H25.8569V39.8315H24.2626V41.3825ZM27.4639 41.3825H29.0708V39.8315H27.4639V41.3825ZM29.0708 32.8082V36.7043C29.0692 36.8087 29.047 36.9117 29.0054 37.0075C28.9638 37.1032 28.9037 37.1898 28.8285 37.2624C28.7533 37.335 28.6645 37.3922 28.5671 37.4306C28.4698 37.4689 28.3658 37.4879 28.2611 37.4861H8.23053C8.02124 37.4862 7.82043 37.4043 7.67124 37.258C7.52206 37.1117 7.43664 36.9129 7.43335 36.7043V32.8082C7.43335 32.7044 7.45398 32.6017 7.49422 32.5061C7.53446 32.4104 7.59342 32.3236 7.66757 32.2509C7.74172 32.1781 7.82966 32.1207 7.92634 32.0822C8.02301 32.0437 8.12639 32.0248 8.23053 32.0264H28.2991C28.4037 32.0248 28.5077 32.0436 28.605 32.0819C28.7025 32.1204 28.7913 32.1775 28.8665 32.2501C28.9416 32.3227 29.0017 32.4094 29.0434 32.5051C29.085 32.6009 29.1073 32.7038 29.1089 32.8082H29.0708ZM27.5019 33.5774H9.02758V35.9226H27.4639L27.5019 33.5774Z" fill="white"/>
</svg>