<svg xmlns="http://www.w3.org/2000/svg" width="53" height="54" viewBox="0 0 53 54" fill="none">
  <g clip-path="url(#clip0_1901_5539)">
    <path d="M29.6127 48.8556H22.1181C21.0137 48.8556 18.6075 48.5614 17.3256 47.4362L11.3496 43.3856L13.1641 41.3257L19.2781 45.4802C19.7711 45.8956 21.0137 46.2418 22.1181 46.2418H29.6127C31.3877 46.2418 33.3008 44.9955 33.6953 43.5934L38.4681 30.8705C38.7837 30.1088 38.7245 29.4164 38.3103 28.9144C37.8764 28.3778 37.0875 28.0662 36.1211 28.0662H28.2321C27.2065 28.0662 26.2599 27.6854 25.609 27.0276C24.9385 26.3525 24.6426 25.4524 24.8004 24.5177L25.7865 18.9611C26.0232 17.9918 25.2737 16.9012 24.2087 16.5896C23.2423 16.2781 21.9998 16.7281 21.5659 17.282L13.4797 27.8412L11.0341 26.4045L19.1203 15.8453C20.3628 14.2182 23.0845 13.4392 25.2146 14.1489C27.6799 14.8586 29.2577 17.2474 28.7055 19.4631L27.7391 24.9158C27.7193 25.037 27.7193 25.2101 27.8574 25.3485C27.956 25.4351 28.0941 25.487 28.2518 25.487H36.1409C38.0737 25.487 39.7501 26.1967 40.7362 27.4258C41.7026 28.6201 41.8998 30.1954 41.2687 31.7187L36.555 44.3204C35.8253 46.8303 32.788 48.8556 29.6127 48.8556Z" fill="white"/>
    <path d="M8.20915 49.6753H6.29674C2.75877 49.6753 1.0376 48.0115 1.0376 44.6074V25.8658C1.0376 22.4617 2.75877 20.7979 6.29674 20.7979H8.20915C11.7471 20.7979 13.4683 22.4617 13.4683 25.8658V44.6074C13.4683 48.0115 11.7471 49.6753 8.20915 49.6753ZM6.29674 23.6665C4.21221 23.6665 3.90622 24.1637 3.90622 25.8658V44.6074C3.90622 46.3095 4.21221 46.8067 6.29674 46.8067H8.20915C10.2937 46.8067 10.5997 46.3095 10.5997 44.6074V25.8658C10.5997 24.1637 10.2937 23.6665 8.20915 23.6665H6.29674Z" fill="white"/>
    <path d="M52.3786 12.7938C52.3786 6.27068 47.063 0.955078 40.5398 0.955078C34.0167 0.955078 28.701 6.27068 28.701 12.7938C28.701 16.2271 30.1809 19.317 32.525 21.4835C32.525 21.4953 32.525 21.4953 32.5131 21.5072C32.6315 21.6256 32.7736 21.7203 32.892 21.8268C32.963 21.886 33.0222 21.9452 33.0932 21.9926C33.3063 22.1701 33.5431 22.3359 33.768 22.5016C33.8509 22.5608 33.9219 22.6082 34.0048 22.6674C34.2298 22.8213 34.4665 22.9633 34.7151 23.0936C34.798 23.1409 34.8927 23.2001 34.9756 23.2475C35.2124 23.3777 35.461 23.4961 35.7214 23.6026C35.8161 23.65 35.9109 23.6973 36.0056 23.7329C36.266 23.8394 36.5265 23.9341 36.7869 24.017C36.8816 24.0525 36.9763 24.088 37.0711 24.1117C37.3552 24.1946 37.6393 24.2656 37.9234 24.3366C38.0063 24.3603 38.0892 24.384 38.1839 24.3958C38.5154 24.4669 38.8469 24.5142 39.1902 24.5497C39.2375 24.5497 39.2849 24.5616 39.3323 24.5734C39.7348 24.6089 40.1373 24.6326 40.5398 24.6326C40.9423 24.6326 41.3448 24.6089 41.7355 24.5734C41.7829 24.5734 41.8302 24.5616 41.8776 24.5497C42.2209 24.5142 42.5524 24.4669 42.8839 24.3958C42.9668 24.384 43.0496 24.3485 43.1443 24.3366C43.4285 24.2656 43.7244 24.2064 43.9967 24.1117C44.0914 24.0762 44.1861 24.0407 44.2809 24.017C44.5413 23.9223 44.8136 23.8394 45.0622 23.7329C45.1569 23.6973 45.2516 23.65 45.3463 23.6026C45.595 23.4961 45.8436 23.3777 46.0922 23.2475C46.1869 23.2001 46.2698 23.1409 46.3526 23.0936C46.5894 22.9515 46.8262 22.8213 47.063 22.6674C47.1458 22.62 47.2169 22.5608 47.2997 22.5016C47.5365 22.3359 47.7615 22.1701 47.9746 21.9926C48.0456 21.9334 48.1048 21.8742 48.1758 21.8268C48.306 21.7203 48.4363 21.6137 48.5547 21.5072C48.5547 21.4953 48.5547 21.4953 48.5428 21.4835C50.8987 19.317 52.3786 16.2271 52.3786 12.7938ZM46.3882 18.6777C43.1799 16.5231 37.9234 16.5231 34.6915 18.6777C34.1706 19.021 33.7444 19.4235 33.3892 19.8616C31.5897 18.0384 30.4769 15.5404 30.4769 12.7938C30.4769 7.24146 34.9874 2.73089 40.5398 2.73089C46.0922 2.73089 50.6028 7.24146 50.6028 12.7938C50.6028 15.5404 49.4899 18.0384 47.6904 19.8616C47.3471 19.4235 46.9091 19.021 46.3882 18.6777Z" fill="white"/>
    <path d="M40.5399 6.79102C38.0893 6.79102 36.1003 8.77993 36.1003 11.2306C36.1003 13.6338 37.9827 15.5872 40.4807 15.6582C40.5162 15.6582 40.5636 15.6582 40.5872 15.6582C40.6109 15.6582 40.6464 15.6582 40.6701 15.6582C40.6819 15.6582 40.6938 15.6582 40.6938 15.6582C43.0852 15.5754 44.9676 13.6338 44.9794 11.2306C44.9794 8.77993 42.9905 6.79102 40.5399 6.79102Z" fill="white"/>
  </g>
  <defs>
    <clipPath id="clip0_1901_5539">
      <rect x="0.105957" y="0.772461" width="52.4548" height="52.4548" rx="21" fill="white"/>
    </clipPath>
  </defs>
</svg>