<svg xmlns="http://www.w3.org/2000/svg" width="54" height="54" viewBox="0 0 54 54" fill="none">
  <path fill-rule="evenodd" clip-rule="evenodd" d="M33.7377 38.0548H18.6927C18.431 38.0548 18.3002 37.924 18.1694 37.7932C18.0385 37.6623 17.9077 37.4007 17.9077 37.2698V10.7121C17.9077 10.4505 18.0385 10.3196 18.1694 10.1888C18.3002 10.058 18.5618 9.92713 18.6927 9.92713H30.467V13.8519C30.467 15.6835 31.9061 17.1226 33.7377 17.1226H37.6625V26.2804H40.1482V16.2068L31.5136 7.57227H17.5152C16.3378 7.57227 15.422 8.48809 15.422 9.66552V13.3286H11.7589C10.5814 13.3286 9.66565 14.2444 9.66565 15.4219V44.3345C9.66565 45.5119 10.5814 46.4277 11.7589 46.4277H32.2986C32.8219 46.4277 33.476 46.166 33.7377 45.7736C34.1302 45.3811 34.3918 44.8578 34.3918 44.3345V42.1104V41.9796C34.261 41.7179 33.8685 40.6713 33.7377 39.4939V38.0548ZM31.9061 43.0262C31.9061 43.2879 31.7753 43.4187 31.6445 43.5495C31.5136 43.6803 31.252 43.8112 31.1212 43.8112H12.9363C12.5438 43.8112 12.1513 43.4187 12.1513 43.0262V16.4685C12.1513 16.076 12.5438 15.6835 12.9363 15.6835H15.422V16.076V38.3165C15.422 39.4939 16.3378 40.4097 17.5152 40.4097H31.9061V43.0262ZM43.8112 32.2984V31.9059C43.8112 30.7285 43.5495 29.8127 42.8954 29.1585C42.2413 28.5044 41.4563 28.1119 40.148 27.9811V26.8037H38.3165V27.9811C37.0082 28.1119 35.9616 28.5044 35.4383 29.1585C34.7842 29.8127 34.3917 30.7285 34.3917 31.9059C34.3917 32.6908 34.5225 33.4758 34.915 33.9991C35.1766 34.6532 35.5691 35.1766 35.9616 35.4382C36.3541 35.8307 37.139 36.354 38.3165 37.0081C38.9706 37.4006 39.4939 37.7931 39.6247 38.1856C39.7556 38.578 39.7556 39.2321 39.7556 40.0171V40.0171V40.0171C39.7556 40.4096 39.7556 40.6713 39.6247 40.8021C39.4939 40.9329 39.3631 41.0637 39.1014 41.0637C38.8398 41.0637 38.5781 40.9329 38.5781 40.6713C38.4473 40.4096 38.4473 39.7555 38.4473 38.7089V37.7931H34.5225V38.578C34.5225 40.2788 34.915 41.4562 35.7 42.2412C36.4849 42.8953 37.4007 43.2878 38.4473 43.4186V44.8577H40.2789V43.4186C41.5871 43.2878 42.6337 42.7645 43.2879 41.9795C43.942 41.1946 44.3345 40.1479 44.3345 38.7089C44.3345 37.7931 44.2037 37.1389 43.942 36.4848C43.6804 35.9615 43.4187 35.4382 43.0262 35.1766C42.9161 35.1031 42.7854 35.0092 42.6341 34.9004L42.6339 34.9002L42.6338 34.9001L42.6338 34.9001C42.2458 34.621 41.7225 34.2447 41.0638 33.8683C39.8864 33.2142 39.2323 32.6908 38.9706 32.4292C38.709 32.1675 38.5781 31.7751 38.5781 31.1209V31.1209C38.5781 30.7284 38.5781 30.4668 38.709 30.336C38.8398 30.2052 38.9706 30.0743 39.2323 30.0743C39.4939 30.0743 39.7556 30.2052 39.7556 30.336C39.8864 30.5976 39.8864 30.9901 39.8864 31.6442V32.2984H43.8112ZM35.1769 24.0562H20.3935C20.001 24.0562 19.6086 23.7946 19.6086 23.2713C19.6086 22.8788 20.001 22.4863 20.3935 22.4863H35.1769C35.5694 22.4863 35.9619 22.8788 35.9619 23.2713C35.9619 23.6638 35.5694 24.0562 35.1769 24.0562ZM20.3935 27.981H35.1769C35.5694 27.981 35.9619 27.5886 35.9619 27.1961C35.9619 26.8036 35.5694 26.4111 35.1769 26.4111H20.3935C20.001 26.4111 19.6086 26.8036 19.6086 27.1961C19.6086 27.5886 20.001 27.981 20.3935 27.981ZM35.1769 20.3931H20.3935C20.001 20.3931 19.6086 20.0006 19.6086 19.6081C19.6086 19.2156 20.001 18.8231 20.3935 18.8231H35.1769C35.5694 18.8231 35.9619 19.2156 35.9619 19.6081C35.9619 20.0006 35.5694 20.3931 35.1769 20.3931Z" fill="white"/>
</svg>