<svg xmlns="http://www.w3.org/2000/svg" width="54" height="54" viewBox="0 0 54 54" fill="none">
  <path fill-rule="evenodd" clip-rule="evenodd" d="M23.5378 7.57227H40.3321C42.083 7.57227 43.5158 9.2218 43.5954 11.2379V42.7621C43.5954 44.7782 42.1628 46.4277 40.4116 46.4277H23.5378C21.7867 46.4277 20.3539 44.7782 20.3539 42.7621V35.3392H10.4047V18.569H20.3539V11.2379C20.3539 9.2218 21.7867 7.57227 23.5378 7.57227ZM11.5987 19.9437V33.8729H29.1093V33.1399H12.3946V20.8602H29.1093V20.7685V19.9437H11.5987ZM29.1093 21.3184H12.7926V32.6818H29.1093V21.3184ZM40.4116 43.8618C40.9688 43.8618 41.4464 43.3119 41.4464 42.6704V41.2043H22.503V42.6704C22.503 43.3119 22.9806 43.8618 23.5378 43.8618H40.4116ZM22.503 38.7299H41.4464V15.1784H22.503V18.569H29.1889V17.1028H30.1441V36.8972H29.1889V35.2475H22.503V38.7299ZM22.503 12.7958H41.4464V11.2379C41.4464 10.5048 40.9688 9.95491 40.4116 10.0465H23.5378C22.9806 10.0465 22.503 10.5964 22.503 11.2379V12.7958ZM21.9459 26.7251C21.8294 26.5909 21.6277 26.4568 21.3718 26.2867C21.2781 26.2244 21.1771 26.1573 21.0704 26.0836C20.9371 25.9813 20.8162 25.8932 20.7094 25.8155C20.4338 25.6147 20.2524 25.4826 20.195 25.3505C20.0358 25.1671 19.9562 24.9839 19.9562 24.709C19.9562 24.5257 19.9562 24.4341 20.0358 24.3424C20.1154 24.2507 20.195 24.2507 20.2746 24.2507C20.4337 24.2507 20.5133 24.3424 20.5133 24.4341C20.5133 24.4676 20.5239 24.5257 20.5375 24.5993C20.5609 24.7269 20.5929 24.9013 20.5929 25.0756V25.3505H22.2645V24.9839C22.2645 24.4341 22.1053 23.9759 21.8664 23.6093C21.6276 23.2428 21.2296 23.0595 20.6725 22.9678V22.3264H19.8766V22.9678C19.3193 23.0595 18.9214 23.2428 18.603 23.6093C18.2847 23.9759 18.2051 24.4341 18.2051 24.9839C18.2051 25.3505 18.2847 25.717 18.4438 26.0836C18.603 26.3586 18.7622 26.6334 18.9214 26.8168C19.0381 26.951 19.2827 27.1344 19.593 27.367C19.7063 27.4519 19.8284 27.5434 19.9562 27.6415C20.2746 27.8247 20.4337 28.0998 20.5133 28.2829C20.5929 28.4663 20.5929 28.7411 20.5929 29.1993V29.1993C20.5929 29.3827 20.5929 29.4744 20.5133 29.5658C20.4337 29.6575 20.3541 29.6575 20.2746 29.6575C20.1154 29.6575 20.0358 29.5658 20.0358 29.4744C20.0358 29.4478 20.0291 29.3981 20.0196 29.3275C19.9963 29.1547 19.9562 28.8567 19.9562 28.4663V28.0081H18.2847V28.3746C18.2847 29.1993 18.4438 29.8409 18.7622 30.2074C19.0807 30.5739 19.4786 30.7573 19.9562 30.8488V31.582H20.7521V30.8488C21.3092 30.7573 21.7867 30.4823 22.0257 30.1158C22.3439 29.7492 22.4236 29.1993 22.4236 28.4663C22.4236 28.0081 22.3439 27.6415 22.2645 27.3665C22.1847 27.0917 22.1053 26.9083 21.9459 26.7251ZM32.532 25.442V27.2748C34.0443 27.2748 35.3178 28.7409 35.3178 30.4821H36.9096C36.9892 27.7331 34.9995 25.442 32.532 25.442ZM33.9639 29.9325C33.9639 30.5739 33.4864 31.1237 32.9293 31.1237C32.372 31.1237 31.9741 30.5739 31.8944 29.9325C31.8944 29.291 32.372 28.741 32.9293 28.741C33.4864 28.741 33.9639 29.291 33.9639 29.9325ZM38.2628 30.5738H39.8546C39.8546 25.9002 36.5913 22.1429 32.532 22.1429V23.9758C35.7158 23.9758 38.2628 26.9083 38.2628 30.5738Z" fill="white"/>
</svg>