<svg xmlns="http://www.w3.org/2000/svg" width="40" height="40" viewBox="0 0 40 40" fill="none">
  <path fill-rule="evenodd" clip-rule="evenodd" d="M19.0982 27.9779C19.1725 27.9035 19.2729 27.8611 19.3781 27.8595C19.4838 27.8595 19.5851 27.9014 19.6598 27.9762C19.7345 28.0509 19.7765 28.1522 19.7765 28.2579V29.8514C19.7749 30.3808 19.5639 30.8881 19.1896 31.2624C18.8152 31.6368 18.3079 31.8478 17.7786 31.8494H7.3964C6.867 31.8478 6.35973 31.6368 5.98539 31.2624C5.61104 30.8881 5.40003 30.3808 5.39844 29.8514V9.87784C5.39844 9.34795 5.60894 8.83976 5.98363 8.46507C6.35831 8.09038 6.86651 7.87988 7.3964 7.87988H17.7786C18.3085 7.87988 18.8166 8.09038 19.1913 8.46507C19.566 8.83976 19.7765 9.34795 19.7765 9.87784V11.4412C19.7765 11.5469 19.7345 11.6482 19.6598 11.7229C19.5851 11.7976 19.4838 11.8396 19.3781 11.8396C19.2725 11.8396 19.1712 11.7976 19.0964 11.7229C19.0217 11.6482 18.9798 11.5469 18.9798 11.4412V11.073H6.1952V28.6503H18.9798V28.2579C18.9813 28.1527 19.0238 28.0523 19.0982 27.9779ZM17.7786 8.67665H7.3964C7.07831 8.67824 6.77371 8.8053 6.54878 9.03023C6.32386 9.25515 6.19679 9.55976 6.1952 9.87784V10.2943H18.9858V9.88388C18.9858 9.5637 18.8586 9.25664 18.6322 9.03024C18.4058 8.80384 18.0988 8.67665 17.7786 8.67665ZM7.3964 31.0466H17.7786C18.0977 31.045 18.4032 30.9171 18.6283 30.6909C18.8534 30.4646 18.9798 30.1585 18.9798 29.8394V29.4349H6.18917V29.8394C6.18917 30.1595 6.31636 30.4666 6.54276 30.693C6.76916 30.9194 7.07622 31.0466 7.3964 31.0466ZM13.7887 9.87784H12.9858V9.88388C12.8802 9.88388 12.7789 9.84191 12.7042 9.76719C12.6294 9.69248 12.5875 9.59116 12.5875 9.48549C12.5875 9.37984 12.6294 9.27851 12.7042 9.20379C12.7789 9.12908 12.8802 9.08711 12.9858 9.08711H13.7887C13.8447 9.08017 13.9015 9.08522 13.9554 9.10192C14.0094 9.11862 14.0591 9.14659 14.1014 9.18397C14.1437 9.22135 14.1776 9.2673 14.2008 9.31876C14.224 9.37023 14.236 9.42603 14.236 9.48248C14.236 9.53892 14.224 9.59473 14.2008 9.64619C14.1776 9.69766 14.1437 9.7436 14.1014 9.78098C14.0591 9.81837 14.0094 9.84633 13.9554 9.86303C13.9015 9.87973 13.8447 9.88478 13.7887 9.87784ZM11.7907 29.8514H13.3903C13.4959 29.8514 13.5973 29.8934 13.672 29.9681C13.7467 30.0428 13.7887 30.1441 13.7887 30.2498C13.7887 30.3554 13.7467 30.4568 13.672 30.5315C13.5973 30.6062 13.4959 30.6482 13.3903 30.6482H11.7907C11.6851 30.6482 11.5837 30.6062 11.509 30.5315C11.4343 30.4568 11.3923 30.3554 11.3923 30.2498C11.3923 30.1441 11.4343 30.0428 11.509 29.9681C11.5837 29.8934 11.6851 29.8514 11.7907 29.8514ZM11.7907 9.87784H11.3923C11.2867 9.87784 11.1853 9.83587 11.1106 9.76116C11.0359 9.68645 10.9939 9.58512 10.9939 9.47946C10.9939 9.3738 11.0359 9.27247 11.1106 9.19776C11.1853 9.12305 11.2867 9.08107 11.3923 9.08107H11.7907C11.8964 9.08107 11.9977 9.12305 12.0724 9.19776C12.1471 9.27247 12.1891 9.3738 12.1891 9.47946C12.1891 9.58512 12.1471 9.68645 12.0724 9.76116C11.9977 9.83587 11.8964 9.87784 11.7907 9.87784ZM7.81289 12.6665V13.8737H6.99801V11.8758H9.02012V12.6665H7.81289ZM6.99801 27.8535V25.8555L7.81289 25.8434V27.0506H9.02012V27.8535H6.99801ZM29.2593 24.7811H33.9011C33.9943 24.7803 34.0868 24.7982 34.1729 24.8339C34.259 24.8696 34.3371 24.9222 34.4024 24.9887C34.4678 25.0551 34.519 25.1341 34.5532 25.2208C34.5874 25.3075 34.6038 25.4002 34.6013 25.4934V29.8696C34.6005 29.9608 34.5818 30.0509 34.5462 30.1348C34.5105 30.2187 34.4588 30.2948 34.3937 30.3587C34.3287 30.4226 34.2517 30.473 34.1672 30.5072C34.0827 30.5414 33.9923 30.5585 33.9011 30.5577H28.2754C28.1838 30.5593 28.0927 30.5428 28.0075 30.5089C27.9222 30.4752 27.8446 30.4248 27.7789 30.3609C27.7132 30.2969 27.6609 30.2205 27.6249 30.1362C27.5889 30.0519 27.57 29.9613 27.5692 29.8696V25.4693C27.57 25.3776 27.5889 25.287 27.6249 25.2027C27.6609 25.1184 27.7132 25.042 27.7789 24.978C27.8446 24.914 27.9222 24.8637 28.0075 24.8299C28.0927 24.7961 28.1838 24.7795 28.2754 24.7811H28.4263V22.747C28.459 22.0605 28.7546 21.413 29.252 20.9388C29.7493 20.4645 30.4101 20.2 31.0973 20.2C31.7845 20.2 32.4453 20.4645 32.9427 20.9388C33.44 21.413 33.7357 22.0605 33.7683 22.747V23.5739C33.7683 23.6868 33.7235 23.795 33.6437 23.8748C33.5639 23.9546 33.4556 23.9995 33.3427 23.9995C33.2299 23.9995 33.1216 23.9546 33.0419 23.8748C32.9621 23.795 32.9172 23.6868 32.9172 23.5739V22.747C32.9172 22.2619 32.7246 21.7967 32.3815 21.4537C32.0385 21.1107 31.5733 20.918 31.0883 20.918C30.6032 20.918 30.138 21.1107 29.795 21.4537C29.452 21.7967 29.2593 22.2619 29.2593 22.747V24.7811ZM31.4867 29.0426V27.8354C31.6156 27.761 31.7226 27.6537 31.7968 27.5246C31.8709 27.3955 31.9097 27.2491 31.9091 27.1002C31.9085 26.9513 31.8685 26.8052 31.7933 26.6767C31.718 26.5482 31.6102 26.4418 31.4806 26.3684C31.3511 26.295 31.2045 26.2571 31.0555 26.2586C30.9066 26.2601 30.7608 26.301 30.6328 26.3769C30.5047 26.4529 30.399 26.5614 30.3263 26.6914C30.2537 26.8214 30.2167 26.9683 30.219 27.1171C30.2196 27.2635 30.259 27.4072 30.3332 27.5334C30.4074 27.6596 30.5139 27.7638 30.6416 27.8354V29.0426H31.4867ZM13.7343 20.1781C13.7899 20.1557 13.8495 20.1446 13.9094 20.1454H22.2212C22.2814 20.1446 22.3412 20.1557 22.3972 20.178C22.4532 20.2003 22.5042 20.2334 22.5474 20.2755C22.5905 20.3175 22.625 20.3677 22.6487 20.423C22.6725 20.4783 22.6852 20.5378 22.686 20.5981V23.3023C22.6828 23.4234 22.6325 23.5386 22.5457 23.6232C22.4588 23.7077 22.3424 23.755 22.2212 23.755H13.9094C13.7888 23.755 13.673 23.7075 13.5871 23.6228C13.5013 23.5381 13.4523 23.4229 13.4507 23.3023V20.5981C13.4507 20.5382 13.4626 20.4788 13.4857 20.4235C13.5088 20.3681 13.5427 20.318 13.5854 20.2758C13.6281 20.2337 13.6787 20.2005 13.7343 20.1781ZM14.3742 22.8496H21.7564L21.7624 21.0387H14.3742V22.8496ZM23.6095 21.4975H24.527L24.533 20.5981H23.6095V21.4975ZM25.4505 20.5981V21.4975H26.3741V20.5981H25.4505ZM24.533 22.4029H23.6035L23.6095 23.3023H24.533V22.4029ZM13.9094 26.0246H26.3741L26.3801 26.0125C26.4435 26.0052 26.5078 26.0113 26.5686 26.0305C26.6295 26.0498 26.6857 26.0817 26.7333 26.1242C26.7811 26.1666 26.8192 26.2187 26.8454 26.2769C26.8715 26.3352 26.885 26.3984 26.885 26.4622C26.885 26.5261 26.8715 26.5892 26.8454 26.6475C26.8192 26.7057 26.7811 26.7578 26.7333 26.8003C26.6857 26.8427 26.6295 26.8746 26.5686 26.8939C26.5078 26.9131 26.4435 26.9193 26.3801 26.9119H13.9094C13.3053 26.9184 12.7233 26.685 12.291 26.2629C11.8588 25.8408 11.6116 25.2645 11.6036 24.6604V14.7129C11.6116 14.1088 11.8588 13.5325 12.291 13.1104C12.7233 12.6884 13.3053 12.4549 13.9094 12.4614H31.4565C31.7561 12.4574 32.0536 12.5125 32.3319 12.6235C32.6103 12.7345 32.8641 12.8992 33.0788 13.1083C33.2934 13.3173 33.4648 13.5667 33.5831 13.842C33.7014 14.1173 33.7644 14.4132 33.7683 14.7129V20.1454C33.7651 20.2666 33.7148 20.3817 33.628 20.4663C33.5412 20.5508 33.4247 20.5981 33.3035 20.5981C33.1829 20.5981 33.0671 20.5506 32.9813 20.4659C32.8954 20.3811 32.8464 20.266 32.8448 20.1454V19.24H12.5272V24.6725C12.5319 25.0348 12.68 25.3805 12.9391 25.634C13.1981 25.8874 13.547 26.0278 13.9094 26.0246ZM12.9391 13.7635C12.68 14.0169 12.5319 14.3626 12.5272 14.7249V15.6304H32.8448V14.7249C32.8384 14.362 32.689 14.0163 32.429 13.7631C32.1689 13.5099 31.8194 13.3696 31.4565 13.3728H13.9094C13.547 13.3696 13.1981 13.5101 12.9391 13.7635ZM32.8448 16.5358H12.5272V18.3466H32.8448V16.5358Z" fill="white"/>
  <path fill-rule="evenodd" clip-rule="evenodd" d="M19.0982 27.9779C19.1725 27.9035 19.2729 27.8611 19.3781 27.8595C19.4838 27.8595 19.5851 27.9014 19.6598 27.9762C19.7345 28.0509 19.7765 28.1522 19.7765 28.2579V29.8514C19.7749 30.3808 19.5639 30.8881 19.1896 31.2624C18.8152 31.6368 18.3079 31.8478 17.7786 31.8494H7.3964C6.867 31.8478 6.35973 31.6368 5.98539 31.2624C5.61104 30.8881 5.40003 30.3808 5.39844 29.8514V9.87784C5.39844 9.34795 5.60894 8.83976 5.98363 8.46507C6.35831 8.09038 6.86651 7.87988 7.3964 7.87988H17.7786C18.3085 7.87988 18.8166 8.09038 19.1913 8.46507C19.566 8.83976 19.7765 9.34795 19.7765 9.87784V11.4412C19.7765 11.5469 19.7345 11.6482 19.6598 11.7229C19.5851 11.7976 19.4838 11.8396 19.3781 11.8396C19.2725 11.8396 19.1712 11.7976 19.0964 11.7229C19.0217 11.6482 18.9798 11.5469 18.9798 11.4412V11.073H6.1952V28.6503H18.9798V28.2579C18.9813 28.1527 19.0238 28.0523 19.0982 27.9779ZM17.7786 8.67665H7.3964C7.07831 8.67824 6.77371 8.8053 6.54878 9.03023C6.32386 9.25515 6.19679 9.55976 6.1952 9.87784V10.2943H18.9858V9.88388C18.9858 9.5637 18.8586 9.25664 18.6322 9.03024C18.4058 8.80384 18.0988 8.67665 17.7786 8.67665ZM7.3964 31.0466H17.7786C18.0977 31.045 18.4032 30.9171 18.6283 30.6909C18.8534 30.4646 18.9798 30.1585 18.9798 29.8394V29.4349H6.18917V29.8394C6.18917 30.1595 6.31636 30.4666 6.54276 30.693C6.76916 30.9194 7.07622 31.0466 7.3964 31.0466ZM13.7887 9.87784H12.9858V9.88388C12.8802 9.88388 12.7789 9.84191 12.7042 9.76719C12.6294 9.69248 12.5875 9.59116 12.5875 9.48549C12.5875 9.37984 12.6294 9.27851 12.7042 9.20379C12.7789 9.12908 12.8802 9.08711 12.9858 9.08711H13.7887C13.8447 9.08017 13.9015 9.08522 13.9554 9.10192C14.0094 9.11862 14.0591 9.14659 14.1014 9.18397C14.1437 9.22135 14.1776 9.2673 14.2008 9.31876C14.224 9.37023 14.236 9.42603 14.236 9.48248C14.236 9.53892 14.224 9.59473 14.2008 9.64619C14.1776 9.69766 14.1437 9.7436 14.1014 9.78098C14.0591 9.81837 14.0094 9.84633 13.9554 9.86303C13.9015 9.87973 13.8447 9.88478 13.7887 9.87784ZM11.7907 29.8514H13.3903C13.4959 29.8514 13.5973 29.8934 13.672 29.9681C13.7467 30.0428 13.7887 30.1441 13.7887 30.2498C13.7887 30.3554 13.7467 30.4568 13.672 30.5315C13.5973 30.6062 13.4959 30.6482 13.3903 30.6482H11.7907C11.6851 30.6482 11.5837 30.6062 11.509 30.5315C11.4343 30.4568 11.3923 30.3554 11.3923 30.2498C11.3923 30.1441 11.4343 30.0428 11.509 29.9681C11.5837 29.8934 11.6851 29.8514 11.7907 29.8514ZM11.7907 9.87784H11.3923C11.2867 9.87784 11.1853 9.83587 11.1106 9.76116C11.0359 9.68645 10.9939 9.58512 10.9939 9.47946C10.9939 9.3738 11.0359 9.27247 11.1106 9.19776C11.1853 9.12305 11.2867 9.08107 11.3923 9.08107H11.7907C11.8964 9.08107 11.9977 9.12305 12.0724 9.19776C12.1471 9.27247 12.1891 9.3738 12.1891 9.47946C12.1891 9.58512 12.1471 9.68645 12.0724 9.76116C11.9977 9.83587 11.8964 9.87784 11.7907 9.87784ZM7.81289 12.6665V13.8737H6.99801V11.8758H9.02012V12.6665H7.81289ZM6.99801 27.8535V25.8555L7.81289 25.8434V27.0506H9.02012V27.8535H6.99801ZM29.2593 24.7811H33.9011C33.9943 24.7803 34.0868 24.7982 34.1729 24.8339C34.259 24.8696 34.3371 24.9222 34.4024 24.9887C34.4678 25.0551 34.519 25.1341 34.5532 25.2208C34.5874 25.3075 34.6038 25.4002 34.6013 25.4934V29.8696C34.6005 29.9608 34.5818 30.0509 34.5462 30.1348C34.5105 30.2187 34.4588 30.2948 34.3937 30.3587C34.3287 30.4226 34.2517 30.473 34.1672 30.5072C34.0827 30.5414 33.9923 30.5585 33.9011 30.5577H28.2754C28.1838 30.5593 28.0927 30.5428 28.0075 30.5089C27.9222 30.4752 27.8446 30.4248 27.7789 30.3609C27.7132 30.2969 27.6609 30.2205 27.6249 30.1362C27.5889 30.0519 27.57 29.9613 27.5692 29.8696V25.4693C27.57 25.3776 27.5889 25.287 27.6249 25.2027C27.6609 25.1184 27.7132 25.042 27.7789 24.978C27.8446 24.914 27.9222 24.8637 28.0075 24.8299C28.0927 24.7961 28.1838 24.7795 28.2754 24.7811H28.4263V22.747C28.459 22.0605 28.7546 21.413 29.252 20.9388C29.7493 20.4645 30.4101 20.2 31.0973 20.2C31.7845 20.2 32.4453 20.4645 32.9427 20.9388C33.44 21.413 33.7357 22.0605 33.7683 22.747V23.5739C33.7683 23.6868 33.7235 23.795 33.6437 23.8748C33.5639 23.9546 33.4556 23.9995 33.3427 23.9995C33.2299 23.9995 33.1216 23.9546 33.0419 23.8748C32.9621 23.795 32.9172 23.6868 32.9172 23.5739V22.747C32.9172 22.2619 32.7246 21.7967 32.3815 21.4537C32.0385 21.1107 31.5733 20.918 31.0883 20.918C30.6032 20.918 30.138 21.1107 29.795 21.4537C29.452 21.7967 29.2593 22.2619 29.2593 22.747V24.7811ZM31.4867 29.0426V27.8354C31.6156 27.761 31.7226 27.6537 31.7968 27.5246C31.8709 27.3955 31.9097 27.2491 31.9091 27.1002C31.9085 26.9513 31.8685 26.8052 31.7933 26.6767C31.718 26.5482 31.6102 26.4418 31.4806 26.3684C31.3511 26.295 31.2045 26.2571 31.0555 26.2586C30.9066 26.2601 30.7608 26.301 30.6328 26.3769C30.5047 26.4529 30.399 26.5614 30.3263 26.6914C30.2537 26.8214 30.2167 26.9683 30.219 27.1171C30.2196 27.2635 30.259 27.4072 30.3332 27.5334C30.4074 27.6596 30.5139 27.7638 30.6416 27.8354V29.0426H31.4867ZM13.7343 20.1781C13.7899 20.1557 13.8495 20.1446 13.9094 20.1454H22.2212C22.2814 20.1446 22.3412 20.1557 22.3972 20.178C22.4532 20.2003 22.5042 20.2334 22.5474 20.2755C22.5905 20.3175 22.625 20.3677 22.6487 20.423C22.6725 20.4783 22.6852 20.5378 22.686 20.5981V23.3023C22.6828 23.4234 22.6325 23.5386 22.5457 23.6232C22.4588 23.7077 22.3424 23.755 22.2212 23.755H13.9094C13.7888 23.755 13.673 23.7075 13.5871 23.6228C13.5013 23.5381 13.4523 23.4229 13.4507 23.3023V20.5981C13.4507 20.5382 13.4626 20.4788 13.4857 20.4235C13.5088 20.3681 13.5427 20.318 13.5854 20.2758C13.6281 20.2337 13.6787 20.2005 13.7343 20.1781ZM14.3742 22.8496H21.7564L21.7624 21.0387H14.3742V22.8496ZM23.6095 21.4975H24.527L24.533 20.5981H23.6095V21.4975ZM25.4505 20.5981V21.4975H26.3741V20.5981H25.4505ZM24.533 22.4029H23.6035L23.6095 23.3023H24.533V22.4029ZM13.9094 26.0246H26.3741L26.3801 26.0125C26.4435 26.0052 26.5078 26.0113 26.5686 26.0305C26.6295 26.0498 26.6857 26.0817 26.7333 26.1242C26.7811 26.1666 26.8192 26.2187 26.8454 26.2769C26.8715 26.3352 26.885 26.3984 26.885 26.4622C26.885 26.5261 26.8715 26.5892 26.8454 26.6475C26.8192 26.7057 26.7811 26.7578 26.7333 26.8003C26.6857 26.8427 26.6295 26.8746 26.5686 26.8939C26.5078 26.9131 26.4435 26.9193 26.3801 26.9119H13.9094C13.3053 26.9184 12.7233 26.685 12.291 26.2629C11.8588 25.8408 11.6116 25.2645 11.6036 24.6604V14.7129C11.6116 14.1088 11.8588 13.5325 12.291 13.1104C12.7233 12.6884 13.3053 12.4549 13.9094 12.4614H31.4565C31.7561 12.4574 32.0536 12.5125 32.3319 12.6235C32.6103 12.7345 32.8641 12.8992 33.0788 13.1083C33.2934 13.3173 33.4648 13.5667 33.5831 13.842C33.7014 14.1173 33.7644 14.4132 33.7683 14.7129V20.1454C33.7651 20.2666 33.7148 20.3817 33.628 20.4663C33.5412 20.5508 33.4247 20.5981 33.3035 20.5981C33.1829 20.5981 33.0671 20.5506 32.9813 20.4659C32.8954 20.3811 32.8464 20.266 32.8448 20.1454V19.24H12.5272V24.6725C12.5319 25.0348 12.68 25.3805 12.9391 25.634C13.1981 25.8874 13.547 26.0278 13.9094 26.0246ZM12.9391 13.7635C12.68 14.0169 12.5319 14.3626 12.5272 14.7249V15.6304H32.8448V14.7249C32.8384 14.362 32.689 14.0163 32.429 13.7631C32.1689 13.5099 31.8194 13.3696 31.4565 13.3728H13.9094C13.547 13.3696 13.1981 13.5101 12.9391 13.7635ZM32.8448 16.5358H12.5272V18.3466H32.8448V16.5358Z" fill="white"/>
</svg>