<svg xmlns="http://www.w3.org/2000/svg" width="81" height="80" viewBox="0 0 81 80" fill="none">
  <path d="M47.5413 24.6205C48.0093 24.6205 48.4582 24.4347 48.7891 24.1038C49.12 23.7727 49.306 23.3238 49.306 22.8558C49.306 22.3878 49.4918 21.939 49.8229 21.6081C50.1538 21.2771 50.6027 21.0911 51.0707 21.0911C51.5387 21.0911 51.9876 21.2771 52.3185 21.6081C52.6494 21.939 52.8354 22.3878 52.8354 22.8558C52.8448 23.171 52.7694 23.4828 52.6173 23.7591C52.4654 24.0353 52.2419 24.2658 51.9707 24.4264C51.1579 24.9182 50.4866 25.6126 50.0227 26.4417C49.5587 27.2707 49.3178 28.2058 49.3237 29.156C49.3237 29.624 49.5095 30.0727 49.8405 30.4036C50.1714 30.7347 50.6204 30.9207 51.0884 30.9207C51.5564 30.9207 52.0053 30.7347 52.3362 30.4036C52.6671 30.0727 52.8531 29.624 52.8531 29.156C52.8455 28.839 52.9235 28.5258 53.0788 28.2494C53.2341 27.9731 53.4608 27.7437 53.7354 27.5854C54.5435 27.0884 55.2111 26.393 55.6743 25.5651C56.1377 24.7373 56.3814 23.8045 56.3825 22.8558C56.3825 21.4518 55.8246 20.1051 54.8318 19.1123C53.839 18.1194 52.4925 17.5617 51.0884 17.5617C49.6844 17.5617 48.3377 18.1194 47.3449 19.1123C46.3521 20.1051 45.7942 21.4518 45.7942 22.8558C45.7942 23.3238 45.9801 23.7727 46.3111 24.1038C46.642 24.4347 47.0909 24.6205 47.5589 24.6205H47.5413ZM52.8531 35.5265C52.8531 35.8754 52.7495 36.2167 52.5557 36.5068C52.3618 36.7971 52.0861 37.0232 51.7637 37.1568C51.4411 37.2904 51.0864 37.3253 50.7441 37.2572C50.4017 37.1891 50.0872 37.0211 49.8405 36.7742C49.5937 36.5273 49.4257 36.213 49.3575 35.8707C49.2894 35.5285 49.3244 35.1736 49.4579 34.8512C49.5915 34.5288 49.8178 34.253 50.1079 34.059C50.3982 33.8651 50.7393 33.7618 51.0884 33.7618C51.5564 33.7618 52.0053 33.9477 52.3362 34.2785C52.6671 34.6096 52.8531 35.0585 52.8531 35.5265ZM68.7354 10.0793H33.4413C32.9733 10.0793 32.5244 10.2654 32.1935 10.5964C31.8624 10.9273 31.6766 11.376 31.6766 11.8441V33.6558H12.2648C11.7968 33.6558 11.3479 33.8418 11.017 34.1728C10.6859 34.5037 10.5001 34.9525 10.5001 35.4205V68.156C10.5001 68.624 10.6859 69.0727 11.017 69.4036C11.3479 69.7345 11.7968 69.9207 12.2648 69.9207C12.7328 69.9207 13.1818 69.7345 13.5127 69.4036C13.8435 69.0727 14.0295 68.624 14.0295 68.156C14.0295 67.6878 14.2154 67.2388 14.5464 66.908C14.8773 66.5771 15.3262 66.3913 15.7942 66.3913H47.5589C48.0269 66.3913 48.4759 66.2051 48.8068 65.8742C49.1377 65.5433 49.3237 65.0945 49.3237 64.6265V44.6148H65.206C65.674 44.6148 66.1229 44.8006 66.4538 45.1315C66.7847 45.4625 66.9707 45.9115 66.9707 46.3795C66.9707 46.8475 67.1565 47.2962 67.4876 47.6271C67.8185 47.9582 68.2674 48.1442 68.7354 48.1442C69.2034 48.1442 69.6524 47.9582 69.9832 47.6271C70.3141 47.2962 70.5001 46.8475 70.5001 46.3795V11.8441C70.5001 11.376 70.3141 10.9273 69.9832 10.5964C69.6524 10.2654 69.2034 10.0793 68.7354 10.0793ZM45.7942 62.8087H15.7942C15.1932 62.8078 14.5965 62.9095 14.0295 63.1089V37.3442H31.6766V40.9793H19.3236C18.8415 40.9793 18.3792 41.1708 18.0384 41.5117C17.6975 41.8525 17.506 42.315 17.506 42.7971C17.506 43.2791 17.6975 43.7414 18.0384 44.0822C18.3792 44.4231 18.8415 44.6148 19.3236 44.6148H45.7942V62.8087ZM66.9707 41.2971C66.4071 41.0833 65.8088 40.9756 65.206 40.9793H35.206V13.7147H66.9707V41.2971ZM40.5001 55.5205H19.3236C18.8415 55.5205 18.3792 55.7121 18.0384 56.0531C17.6975 56.3938 17.506 56.8562 17.506 57.3383C17.506 57.8203 17.6975 58.2826 18.0384 58.6234C18.3792 58.9643 18.8415 59.156 19.3236 59.156H40.5001C40.9822 59.156 41.4444 58.9643 41.7854 58.6234C42.1263 58.2826 42.3178 57.8203 42.3178 57.3383C42.3178 56.8562 42.1263 56.3938 41.7854 56.0531C41.4444 55.7121 40.9822 55.5205 40.5001 55.5205ZM17.5589 50.0677C17.5589 50.5357 17.7448 50.9845 18.0758 51.3154C18.4067 51.6462 18.8556 51.8324 19.3236 51.8324H40.5001C40.9822 51.8324 41.4444 51.641 41.7854 51.3C42.1263 50.9593 42.3178 50.4967 42.3178 50.0146C42.3178 49.5327 42.1263 49.0703 41.7854 48.7295C41.4444 48.3886 40.9822 48.197 40.5001 48.197H19.3236C18.8556 48.197 18.4067 48.383 18.0758 48.714C17.7448 49.0449 17.5589 49.4937 17.5589 49.9617" fill="#fff"/>
</svg>