<svg xmlns="http://www.w3.org/2000/svg" width="48" height="49" viewBox="0 0 48 49" fill="none">
  <path fill-rule="evenodd" clip-rule="evenodd" d="M11.8636 16.7324C15.9697 10.7197 23.9451 8.39228 30.6089 11.4118C30.9313 11.5193 31.3612 11.4118 31.4686 11.0894C31.5761 10.767 31.4686 10.3372 31.1462 10.2298C23.6767 6.8632 14.9712 9.47033 10.5755 16.1353L9.76118 15.1729C10.0836 16.2476 9.97611 17.6446 9.86865 18.7192C10.7283 17.967 11.803 17.2147 12.7701 16.8923L11.8636 16.7324ZM36.6269 17.752V18.3968C36.6269 18.5043 36.7343 18.6117 36.8418 18.6117H41.7851C41.8925 18.6117 42 18.5043 42 18.3968V17.752C42 17.6446 41.8925 17.5371 41.7851 17.5371H36.8418C36.7343 17.5371 36.6269 17.6446 36.6269 17.752ZM41.1403 19.2565V27.4236C41.1403 27.5311 41.0328 27.6386 40.9254 27.6386H37.7015C37.594 27.6386 37.4866 27.5311 37.4866 27.4236V19.2565C37.4866 19.149 37.594 19.0416 37.7015 19.0416H40.9254C41.0328 19.0416 41.1403 19.149 41.1403 19.2565ZM22.3344 17.752V18.3968C22.3344 18.5043 22.4418 18.6117 22.5493 18.6117H27.4926C27.6 18.6117 27.7075 18.5043 27.7075 18.3968V17.752C27.7075 17.6446 27.6 17.5371 27.4926 17.5371H22.5493C22.4418 17.5371 22.3344 17.6446 22.3344 17.752ZM31.7911 11.6267L22.6568 15.8177C22.4418 15.9252 22.3344 16.1401 22.2269 16.4625V16.8923C22.2269 16.9998 22.3344 17.1072 22.4418 17.1072H41.6776C41.7851 17.1072 41.8925 16.9998 41.8925 16.8923V16.4625C41.8925 16.1401 41.6776 15.9252 41.4627 15.8177L32.3284 11.6267C32.1135 11.5192 32.006 11.5192 31.7911 11.6267ZM38.8836 15.9252H25.4508L25.4508 15.9251C25.3848 15.7931 25.3593 15.7422 25.3744 15.7225C25.3839 15.7102 25.4094 15.7102 25.4508 15.7102L32.1135 12.9162H32.2209L38.8836 15.7102C38.991 15.7102 38.9911 15.8177 38.9911 15.8177C38.9911 15.9252 38.8836 15.9252 38.8836 15.9252ZM29.4269 17.752V18.3968C29.4269 18.5043 29.5344 18.6117 29.6418 18.6117H34.5851C34.6926 18.6117 34.8 18.5043 34.8 18.3968V17.752C34.8 17.6446 34.6926 17.5371 34.5851 17.5371H29.6418C29.5344 17.5371 29.4269 17.6446 29.4269 17.752ZM33.9403 19.2565V27.4236C33.9403 27.5311 33.8329 27.6386 33.7254 27.6386H30.5015C30.3941 27.6386 30.2866 27.5311 30.2866 27.4236V19.2565C30.2866 19.149 30.3941 19.0416 30.5015 19.0416H33.7254C33.8329 19.0416 33.9403 19.149 33.9403 19.2565ZM21.0447 24.3073V25.0595C21.0447 25.167 21.1522 25.2745 21.2597 25.2745H26.5253C26.6328 25.2745 26.7402 25.167 26.7402 25.0595V24.3073C26.7402 24.1998 26.6328 24.0924 26.5253 24.0924H21.2597C21.1522 24.0924 21.0447 24.1998 21.0447 24.3073ZM25.8805 25.9192V34.5162C25.8805 34.6237 25.7731 34.7311 25.6656 34.7311H22.3343C22.2268 34.7311 22.1194 34.6237 22.1194 34.5162V25.9192C22.1194 25.8118 22.2268 25.7043 22.3343 25.7043H25.6656C25.7731 25.7043 25.8805 25.8118 25.8805 25.9192ZM6 24.3073V25.0595C6 25.167 6.10746 25.2745 6.21492 25.2745H11.4806C11.588 25.2745 11.6955 25.167 11.6955 25.0595V24.3073C11.6955 24.1998 11.588 24.0924 11.4806 24.0924H6.21492C6.10746 24.0924 6 24.1998 6 24.3073ZM16.1015 17.8595L6.42985 22.2655C6.21492 22.373 6 22.5879 6.10746 22.9103V23.3401C6.10746 23.4476 6.21493 23.5551 6.32239 23.5551H26.5253C26.6328 23.5551 26.7402 23.4476 26.7402 23.3401V22.9103C26.7402 22.5879 26.5253 22.373 26.3104 22.2655L16.6388 17.8595C16.5313 17.7521 16.3164 17.7521 16.1015 17.8595ZM23.4089 22.373H9.33133C9.22387 22.158 9.22387 22.158 9.11641 22.158L16.2089 19.1491H16.3164L23.4089 22.158C23.5164 22.158 23.5164 22.2655 23.5164 22.2655C23.5164 22.373 23.4089 22.373 23.4089 22.373ZM6 35.3759V36.3431C6 36.4505 6.10746 36.558 6.21492 36.558H26.4179C26.5253 36.558 26.6328 36.4505 26.6328 36.3431V35.3759C26.6328 35.2684 26.5253 35.161 26.4179 35.161H6.21492C6.10746 35.161 6 35.2684 6 35.3759ZM10.8358 25.9192V34.5162C10.8358 34.6237 10.7283 34.7311 10.6209 34.7311H7.28955C7.18209 34.7311 7.07462 34.6237 7.07462 34.5162V25.9192C7.07462 25.8118 7.18209 25.7043 7.28955 25.7043H10.6209C10.7283 25.7043 10.8358 25.8118 10.8358 25.9192ZM13.5224 24.3073V25.0595C13.5224 25.167 13.6298 25.2745 13.7373 25.2745H19.0029C19.1104 25.2745 19.2179 25.167 19.2179 25.0595V24.3073C19.2179 24.1998 19.1104 24.0924 19.0029 24.0924H13.7373C13.6298 24.0924 13.5224 24.1998 13.5224 24.3073ZM18.3582 25.9192V34.5162C18.3582 34.6237 18.2507 34.7311 18.1432 34.7311H14.8119C14.7045 34.7311 14.597 34.6237 14.597 34.5162V25.9192C14.597 25.8118 14.7045 25.7043 14.8119 25.7043H18.1432C18.2507 25.7043 18.3582 25.8118 18.3582 25.9192ZM23.8388 40.964C21.582 40.964 19.3253 40.5341 17.1761 39.567C16.8537 39.4595 16.7462 39.0297 16.8537 38.7073C16.9612 38.3849 17.391 38.2774 17.7134 38.3849C24.4811 41.4043 32.3585 39.0772 36.4586 33.065L35.7673 33.0118L38.3464 30.8625L38.024 34.3013L37.5651 33.6703C34.4934 38.2774 29.2158 40.964 23.8388 40.964Z" fill="#fff"/>
</svg>