<svg xmlns="http://www.w3.org/2000/svg" width="32" height="32" viewBox="0 0 32 32" fill="none">
  <path d="M28 30.3333H4C3.45333 30.3333 3 29.88 3 29.3333C3 28.7867 3.45333 28.3333 4 28.3333H28C28.5467 28.3333 29 28.7867 29 29.3333C29 29.88 28.5467 30.3333 28 30.3333Z" fill="#002D85"/>
  <path d="M7.46663 26.3333H5.33333C4.05333 26.3333 3 25.28 3 24V12.5067C3 11.2267 4.05333 10.1733 5.33333 10.1733H7.46663C8.74663 10.1733 9.79997 11.2267 9.79997 12.5067V24C9.79997 25.28 8.74663 26.3333 7.46663 26.3333ZM5.33333 12.16C5.14667 12.16 5 12.3067 5 12.4933V24C5 24.1867 5.14667 24.3333 5.33333 24.3333H7.46663C7.6533 24.3333 7.79997 24.1867 7.79997 24V12.5067C7.79997 12.32 7.6533 12.1733 7.46663 12.1733H5.33333V12.16Z" fill="#002D85"/>
  <path d="M17.0669 26.3333H14.9336C13.6536 26.3333 12.6003 25.28 12.6003 24V8.25333C12.6003 6.97333 13.6536 5.92 14.9336 5.92H17.0669C18.3469 5.92 19.4002 6.97333 19.4002 8.25333V24C19.4002 25.28 18.3469 26.3333 17.0669 26.3333ZM14.9336 7.92C14.7469 7.92 14.6003 8.06666 14.6003 8.25333V24C14.6003 24.1867 14.7469 24.3333 14.9336 24.3333H17.0669C17.2536 24.3333 17.4002 24.1867 17.4002 24V8.25333C17.4002 8.06666 17.2536 7.92 17.0669 7.92H14.9336Z" fill="#002D85"/>
  <path d="M26.6665 26.3333H24.5332C23.2532 26.3333 22.1999 25.28 22.1999 24V4.00001C22.1999 2.72001 23.2532 1.66667 24.5332 1.66667H26.6665C27.9465 1.66667 28.9999 2.72001 28.9999 4.00001V24C28.9999 25.28 27.9465 26.3333 26.6665 26.3333ZM24.5332 3.66667C24.3466 3.66667 24.1999 3.81334 24.1999 4.00001V24C24.1999 24.1867 24.3466 24.3333 24.5332 24.3333H26.6665C26.8532 24.3333 26.9999 24.1867 26.9999 24V4.00001C26.9999 3.81334 26.8532 3.66667 26.6665 3.66667H24.5332Z" fill="#002D85"/>
</svg>