<svg xmlns="http://www.w3.org/2000/svg" width="32" height="32" viewBox="0 0 32 32" fill="none">
  <path d="M21.3334 12H17.3334V19.3333C17.3334 20.2174 16.9822 21.0652 16.357 21.6904C15.7319 22.3155 14.8841 22.6667 14 22.6667C13.116 22.6667 12.2681 22.3155 11.643 21.6904C11.0179 21.0652 10.6667 20.2174 10.6667 19.3333C10.6667 18.4493 11.0179 17.6014 11.643 16.9763C12.2681 16.3512 13.116 16 14 16C14.76 16 15.44 16.2533 16 16.6667V9.33334H21.3334V12ZM16 2.66667C17.751 2.66667 19.4848 3.01155 21.1025 3.68161C22.7201 4.35167 24.19 5.3338 25.4281 6.57191C26.6662 7.81003 27.6484 9.27988 28.3184 10.8976C28.9885 12.5152 29.3334 14.249 29.3334 16C29.3334 19.5362 27.9286 22.9276 25.4281 25.4281C22.9276 27.9286 19.5362 29.3333 16 29.3333C14.2491 29.3333 12.5152 28.9885 10.8976 28.3184C9.2799 27.6483 7.81004 26.6662 6.57193 25.4281C4.07144 22.9276 2.66669 19.5362 2.66669 16C2.66669 12.4638 4.07144 9.0724 6.57193 6.57191C9.07242 4.07143 12.4638 2.66667 16 2.66667ZM16 5.33334C13.171 5.33334 10.4579 6.45714 8.45755 8.45753C6.45716 10.4579 5.33335 13.171 5.33335 16C5.33335 18.829 6.45716 21.5421 8.45755 23.5425C10.4579 25.5429 13.171 26.6667 16 26.6667C18.829 26.6667 21.5421 25.5429 23.5425 23.5425C25.5429 21.5421 26.6667 18.829 26.6667 16C26.6667 13.171 25.5429 10.4579 23.5425 8.45753C21.5421 6.45714 18.829 5.33334 16 5.33334Z" fill="#013AA9"/>
</svg>