<svg xmlns="http://www.w3.org/2000/svg" width="32" height="32" viewBox="0 0 32 32" fill="none">
  <path d="M18.1067 30.3333H8.28002C4.62669 30.3333 1.66669 27.36 1.66669 23.72V13.96C1.66669 10.3067 4.64002 7.34666 8.28002 7.34666H18.1067C21.76 7.34666 24.72 10.32 24.72 13.96V23.72C24.72 27.36 21.7467 30.3333 18.1067 30.3333ZM8.28002 9.34666C5.73335 9.34666 3.66669 11.4133 3.66669 13.96V23.72C3.66669 26.2667 5.73335 28.3333 8.28002 28.3333H18.1067C20.6534 28.3333 22.72 26.2667 22.72 23.72V13.96C22.72 11.4133 20.6534 9.34666 18.1067 9.34666H8.28002Z" fill="#002D85"/>
  <path d="M7.33331 6.33333C6.78665 6.33333 6.33331 5.88 6.33331 5.33333V3C6.33331 2.45333 6.78665 2 7.33331 2C7.87998 2 8.33331 2.45333 8.33331 3V5.33333C8.33331 5.88 7.87998 6.33333 7.33331 6.33333Z" fill="#002D85"/>
  <path d="M12.6667 6.33333C12.12 6.33333 11.6667 5.88 11.6667 5.33333V3C11.6667 2.45333 12.12 2 12.6667 2C13.2134 2 13.6667 2.45333 13.6667 3V5.33333C13.6667 5.88 13.2134 6.33333 12.6667 6.33333Z" fill="#002D85"/>
  <path d="M18 6.33333C17.4533 6.33333 17 5.88 17 5.33333V3C17 2.45333 17.4533 2 18 2C18.5467 2 19 2.45333 19 3V5.33333C19 5.88 18.5467 6.33333 18 6.33333Z" fill="#002D85"/>
  <path d="M23.72 24.16C23.1733 24.16 22.72 23.7067 22.72 23.16V11.9333C22.72 11.3867 23.1733 10.9333 23.72 10.9333C27.3733 10.9333 30.3333 13.9067 30.3333 17.5467C30.3333 21.1867 27.36 24.16 23.72 24.16ZM24.72 13.04V22.0533C26.7866 21.6 28.3333 19.7467 28.3333 17.5467C28.3333 15.3467 26.7866 13.4933 24.72 13.04Z" fill="#002D85"/>
  <path d="M23.3467 17H2.66669C2.12002 17 1.66669 16.5467 1.66669 16C1.66669 15.4533 2.12002 15 2.66669 15H23.3467C23.8934 15 24.3467 15.4533 24.3467 16C24.3467 16.5467 23.8934 17 23.3467 17Z" fill="#002D85"/>
</svg>