<svg xmlns="http://www.w3.org/2000/svg" width="32" height="32" viewBox="0 0 32 32" fill="none">
  <path d="M17.8667 23.2267H14.52C12.3334 23.2267 10.56 21.3867 10.56 19.12C10.56 18.5733 11.0134 18.12 11.56 18.12C12.1067 18.12 12.56 18.5733 12.56 19.12C12.56 20.28 13.44 21.2267 14.52 21.2267H17.8667C18.7334 21.2267 19.4534 20.4533 19.4534 19.52C19.4534 18.36 19.04 18.1333 18.36 17.8933L12.9867 16C11.9467 15.64 10.5467 14.8667 10.5467 12.48C10.5467 10.4267 12.16 8.77333 14.1334 8.77333H17.48C19.6667 8.77333 21.44 10.6133 21.44 12.88C21.44 13.4267 20.9867 13.88 20.44 13.88C19.8934 13.88 19.44 13.4267 19.44 12.88C19.44 11.72 18.56 10.7733 17.48 10.7733H14.1334C13.2667 10.7733 12.5467 11.5467 12.5467 12.48C12.5467 13.64 12.96 13.8667 13.64 14.1067L19.0134 16C20.0534 16.36 21.4534 17.1333 21.4534 19.52C21.44 21.56 19.84 23.2267 17.8667 23.2267Z" fill="#013AA9"/>
  <path d="M16 25C15.4533 25 15 24.5467 15 24V8C15 7.45333 15.4533 7 16 7C16.5467 7 17 7.45333 17 8V24C17 24.5467 16.5467 25 16 25Z" fill="#013AA9"/>
  <path d="M15.6666 30C7.75998 30 1.33331 23.5733 1.33331 15.6667C1.33331 7.75999 7.75998 1.33333 15.6666 1.33333C23.5733 1.33333 30 7.75999 30 15.6667C30 23.5733 23.5733 30 15.6666 30ZM15.6666 3.33333C8.86665 3.33333 3.33331 8.86666 3.33331 15.6667C3.33331 22.4667 8.86665 28 15.6666 28C22.4666 28 28 22.4667 28 15.6667C28 8.86666 22.4666 3.33333 15.6666 3.33333Z" fill="#013AA9"/>
</svg>