<svg xmlns="http://www.w3.org/2000/svg" width="32" height="32" viewBox="0 0 32 32" fill="none">
  <path d="M27 9.25H22.0375L22.1875 9.1125C22.5559 8.76919 22.8514 8.35519 23.0564 7.89519C23.2614 7.43519 23.3716 6.93863 23.3805 6.43511C23.3893 5.9316 23.2967 5.43145 23.1081 4.96451C22.9195 4.49757 22.6388 4.0734 22.2827 3.71731C21.9266 3.36121 21.5024 3.08049 21.0355 2.89189C20.5685 2.70328 20.0684 2.61066 19.5649 2.61954C19.0614 2.62843 18.5648 2.73863 18.1048 2.94359C17.6448 3.14855 17.2308 3.44407 16.8875 3.8125C16.4953 4.23459 16.1933 4.73223 16 5.275C15.8067 4.73223 15.5047 4.23459 15.1125 3.8125C14.4016 3.1501 13.4614 2.78948 12.4899 2.80662C11.5184 2.82376 10.5915 3.21732 9.90439 3.90439C9.21733 4.59146 8.82377 5.51838 8.80663 6.48989C8.78948 7.46139 9.1501 8.40162 9.8125 9.1125L9.9625 9.25H5C4.53587 9.25 4.09075 9.43437 3.76256 9.76256C3.43437 10.0908 3.25 10.5359 3.25 11V15C3.25 15.4641 3.43437 15.9092 3.76256 16.2374C4.09075 16.5656 4.53587 16.75 5 16.75H5.25V25C5.25 25.4641 5.43437 25.9092 5.76256 26.2374C6.09075 26.5656 6.53587 26.75 7 26.75H25C25.4641 26.75 25.9092 26.5656 26.2374 26.2374C26.5656 25.9092 26.75 25.4641 26.75 25V16.75H27C27.4641 16.75 27.9092 16.5656 28.2374 16.2374C28.5656 15.9092 28.75 15.4641 28.75 15V11C28.75 10.5359 28.5656 10.0908 28.2374 9.76256C27.9092 9.43437 27.4641 9.25 27 9.25ZM17.95 4.875C18.1529 4.64325 18.4012 4.45564 18.6796 4.32377C18.958 4.19191 19.2605 4.11861 19.5683 4.10841C19.8762 4.0982 20.1828 4.15132 20.4693 4.26447C20.7558 4.37761 21.016 4.54838 21.2338 4.76618C21.4516 4.98399 21.6224 5.24419 21.7355 5.53068C21.8487 5.81717 21.9018 6.12384 21.8916 6.43169C21.8814 6.73954 21.8081 7.04202 21.6762 7.32039C21.5444 7.59876 21.3567 7.84709 21.125 8.05C20.3875 8.7875 18.3125 9.1375 16.775 9.225C16.8625 7.6875 17.2125 5.6125 17.95 4.875ZM10.875 4.875C11.2967 4.45517 11.8675 4.21947 12.4625 4.21947C13.0575 4.21947 13.6283 4.45517 14.05 4.875C14.7875 5.6125 15.1375 7.6875 15.225 9.225C13.6875 9.1375 11.6125 8.7875 10.875 8.05C10.4552 7.62833 10.2195 7.05753 10.2195 6.4625C10.2195 5.86747 10.4552 5.29667 10.875 4.875ZM4.75 15V11C4.75 10.9337 4.77634 10.8701 4.82322 10.8232C4.87011 10.7763 4.9337 10.75 5 10.75H15.25V15.25H5C4.9337 15.25 4.87011 15.2237 4.82322 15.1768C4.77634 15.1299 4.75 15.0663 4.75 15ZM6.75 25V16.75H15.25V25.25H7C6.9337 25.25 6.87011 25.2237 6.82322 25.1768C6.77634 25.1299 6.75 25.0663 6.75 25ZM25.25 25C25.25 25.0663 25.2237 25.1299 25.1768 25.1768C25.1299 25.2237 25.0663 25.25 25 25.25H16.75V16.75H25.25V25ZM27.25 15C27.25 15.0663 27.2237 15.1299 27.1768 15.1768C27.1299 15.2237 27.0663 15.25 27 15.25H16.75V10.75H27C27.0663 10.75 27.1299 10.7763 27.1768 10.8232C27.2237 10.8701 27.25 10.9337 27.25 11V15Z" fill="#013AA9"/>
</svg>