<svg xmlns="http://www.w3.org/2000/svg" width="30" height="28" viewBox="0 0 30 28" fill="none">
  <path d="M15 11.964C18.328 8.61801 26.65 14.472 15 22C3.35003 14.472 11.672 8.61801 15 11.964Z" fill="#013AA9"/>
  <path d="M16.414 1C16.039 0.62506 15.5303 0.414429 15 0.414429C14.4697 0.414429 13.9611 0.62506 13.586 1L0.292007 14.292C0.104499 14.4798 -0.000736603 14.7343 -0.000549066 14.9997C-0.00036153 15.2651 0.105234 15.5195 0.293007 15.707C0.48078 15.8945 0.73535 15.9997 1.00071 15.9996C1.26608 15.9994 1.5205 15.8938 1.70801 15.706L3.00001 14.414V25C3.00001 25.7957 3.31608 26.5587 3.87869 27.1213C4.4413 27.6839 5.20436 28 6.00001 28H24C24.7957 28 25.5587 27.6839 26.1213 27.1213C26.6839 26.5587 27 25.7957 27 25V14.414L28.292 15.706C28.4795 15.8938 28.7339 15.9994 28.9993 15.9996C29.2647 15.9997 29.5192 15.8945 29.707 15.707C29.8948 15.5195 30.0004 15.2651 30.0006 14.9997C30.0008 14.7343 29.8955 14.4798 29.708 14.292L25 9.586V3C25 2.73479 24.8947 2.48043 24.7071 2.2929C24.5196 2.10536 24.2652 2 24 2H22C21.7348 2 21.4804 2.10536 21.2929 2.2929C21.1054 2.48043 21 2.73479 21 3V5.586L16.414 1ZM25 12.414V25C25 25.2652 24.8947 25.5196 24.7071 25.7071C24.5196 25.8946 24.2652 26 24 26H6.00001C5.73479 26 5.48044 25.8946 5.2929 25.7071C5.10536 25.5196 5.00001 25.2652 5.00001 25V12.414L15 2.414L25 12.414Z" fill="#013AA9"/>
</svg>