<svg xmlns="http://www.w3.org/2000/svg" width="32" height="32" viewBox="0 0 32 32" fill="none">
  <path d="M9 16.75H4C3.80109 16.75 3.61032 16.671 3.46967 16.5303C3.32902 16.3897 3.25 16.1989 3.25 16C3.25 15.8011 3.32902 15.6103 3.46967 15.4697C3.61032 15.329 3.80109 15.25 4 15.25H8.6L10.375 12.5875C10.4434 12.4844 10.5363 12.3998 10.6453 12.3412C10.7544 12.2827 10.8762 12.2521 11 12.2521C11.1238 12.2521 11.2456 12.2827 11.3547 12.3412C11.4637 12.3998 11.5566 12.4844 11.625 12.5875L15 17.65L16.375 15.5875C16.4432 15.484 16.5359 15.399 16.645 15.3401C16.7541 15.2812 16.876 15.2502 17 15.25H20C20.1989 15.25 20.3897 15.329 20.5303 15.4697C20.671 15.6103 20.75 15.8011 20.75 16C20.75 16.1989 20.671 16.3897 20.5303 16.5303C20.3897 16.671 20.1989 16.75 20 16.75H17.4L15.625 19.4125C15.5566 19.5156 15.4637 19.6002 15.3547 19.6588C15.2456 19.7173 15.1238 19.7479 15 19.7479C14.8762 19.7479 14.7544 19.7173 14.6453 19.6588C14.5363 19.6002 14.4434 19.5156 14.375 19.4125L11 14.35L9.625 16.4125C9.55683 16.516 9.46406 16.601 9.35499 16.6599C9.24592 16.7188 9.12396 16.7498 9 16.75ZM22 4.25C20.8167 4.24942 19.6513 4.53846 18.6054 5.09189C17.5596 5.64533 16.6651 6.44634 16 7.425C15.1291 6.14098 13.8692 5.17023 12.4056 4.65543C10.9419 4.14063 9.35177 4.10894 7.8688 4.56503C6.38582 5.02111 5.08828 5.94091 4.16689 7.18921C3.2455 8.43752 2.74887 9.94848 2.75 11.5C2.75 11.675 2.75 11.8625 2.7625 12.0375C2.77539 12.2376 2.86657 12.4246 3.0163 12.5579C3.16603 12.6913 3.36226 12.7603 3.5625 12.75C3.66051 12.7452 3.75659 12.721 3.8451 12.6786C3.93361 12.6363 4.01278 12.5767 4.07797 12.5033C4.14316 12.43 4.19306 12.3444 4.22475 12.2515C4.25643 12.1587 4.26927 12.0604 4.2625 11.9625C4.25 11.8 4.25 11.65 4.25 11.5C4.24709 10.1686 4.70631 8.87742 5.54929 7.84686C6.39227 6.8163 7.56676 6.11021 8.87232 5.8491C10.1779 5.58798 11.5336 5.78803 12.7081 6.4151C13.8826 7.04216 14.8031 8.05739 15.3125 9.2875C15.3663 9.4261 15.4608 9.54519 15.5834 9.62917C15.7061 9.71314 15.8513 9.75808 16 9.75808C16.1487 9.75808 16.2939 9.71314 16.4166 9.62917C16.5392 9.54519 16.6337 9.4261 16.6875 9.2875C17.1969 8.05739 18.1174 7.04216 19.2919 6.4151C20.4664 5.78803 21.8221 5.58798 23.1277 5.8491C24.4332 6.11021 25.6077 6.8163 26.4507 7.84686C27.2937 8.87742 27.7529 10.1686 27.75 11.5C27.75 18.6625 18.025 24.9125 16 26.125C14.8 25.4 10.875 22.9125 7.9 19.5125C7.8354 19.4375 7.75658 19.3759 7.66808 19.3315C7.57958 19.2871 7.48316 19.2606 7.38438 19.2536C7.2856 19.2467 7.18641 19.2593 7.09255 19.2909C6.99869 19.3224 6.912 19.3723 6.8375 19.4375C6.68881 19.5698 6.59774 19.755 6.58373 19.9535C6.56971 20.152 6.63387 20.3481 6.7625 20.5C10.4875 24.75 15.425 27.5375 15.6375 27.65C15.7473 27.7149 15.8725 27.7491 16 27.7491C16.1275 27.7491 16.2527 27.7149 16.3625 27.65C18.6418 26.3175 20.7817 24.7597 22.75 23C27.0625 19.1125 29.25 15.25 29.25 11.5C29.25 9.57718 28.4862 7.73312 27.1265 6.37348C25.7669 5.01384 23.9228 4.25 22 4.25Z" fill="#013AA9"/>
</svg>