<svg xmlns="http://www.w3.org/2000/svg" width="32" height="32" viewBox="0 0 32 32" fill="none">
  <path d="M20 30.3333H12C4.76002 30.3333 1.66669 27.24 1.66669 20V12C1.66669 4.76001 4.76002 1.66667 12 1.66667H20C27.24 1.66667 30.3334 4.76001 30.3334 12V20C30.3334 27.24 27.24 30.3333 20 30.3333ZM12 3.66667C5.85335 3.66667 3.66669 5.85334 3.66669 12V20C3.66669 26.1467 5.85335 28.3333 12 28.3333H20C26.1467 28.3333 28.3334 26.1467 28.3334 20V12C28.3334 5.85334 26.1467 3.66667 20 3.66667H12Z" fill="#002D85"/>
  <path d="M16 17.3333C15.2534 17.3333 14.6667 16.7333 14.6667 16C14.6667 15.2667 15.2667 14.6667 16 14.6667C16.7334 14.6667 17.3334 15.2667 17.3334 16C17.3334 16.7333 16.7467 17.3333 16 17.3333Z" fill="#002D85"/>
  <path d="M21.3333 17.3333C20.5867 17.3333 20 16.7333 20 16C20 15.2667 20.6 14.6667 21.3333 14.6667C22.0667 14.6667 22.6667 15.2667 22.6667 16C22.6667 16.7333 22.08 17.3333 21.3333 17.3333Z" fill="#002D85"/>
  <path d="M10.6666 17.3333C9.91998 17.3333 9.33331 16.7333 9.33331 16C9.33331 15.2667 9.93331 14.6667 10.6666 14.6667C11.4 14.6667 12 15.2667 12 16C12 16.7333 11.4133 17.3333 10.6666 17.3333Z" fill="#002D85"/>
</svg>