<svg xmlns="http://www.w3.org/2000/svg" width="32" height="32" viewBox="0 0 32 32" fill="none">
  <path d="M18.72 30.3333H12.3334C10.1734 30.3333 8.21336 29.4933 6.80003 27.9467C5.38669 26.4133 4.70669 24.3867 4.89336 22.24C5.34669 16.7733 10.1734 12.3333 15.6667 12.3333C20.72 12.3333 25.4934 16.3867 26.3334 21.36C26.7334 23.7333 26.1467 25.9733 24.7067 27.68C23.24 29.3867 21.12 30.3333 18.72 30.3333ZM15.6534 14.3333C11.1867 14.3333 7.25336 17.96 6.88003 22.4133C6.74669 24 7.24003 25.48 8.26669 26.6C9.29336 27.72 10.7334 28.3333 12.32 28.3333H18.7067C20.5067 28.3333 22.0934 27.64 23.1467 26.4C24.2 25.16 24.6267 23.48 24.3334 21.6933C23.6667 17.64 19.7734 14.3333 15.6534 14.3333Z" fill="#002D85"/>
  <path d="M13.96 11C11.5733 11 9.62665 9.05333 9.62665 6.66667C9.62665 4.28 11.5733 2.33333 13.96 2.33333C16.3466 2.33333 18.2933 4.28 18.2933 6.66667C18.2933 9.05333 16.36 11 13.96 11ZM13.96 4.33333C12.68 4.33333 11.6266 5.38667 11.6266 6.66667C11.6266 7.94667 12.68 9 13.96 9C15.24 9 16.2933 7.94667 16.2933 6.66667C16.2933 5.38667 15.2533 4.33333 13.96 4.33333Z" fill="#002D85"/>
  <path d="M23.0667 12.6C21.04 12.6 19.4 10.96 19.4 8.93333C19.4 6.90667 21.04 5.26667 23.0667 5.26667C25.0934 5.26667 26.7334 6.90667 26.7334 8.93333C26.7334 10.96 25.0934 12.6 23.0667 12.6ZM23.0667 7.26667C22.1467 7.26667 21.4 8.01333 21.4 8.93333C21.4 9.85333 22.1467 10.6 23.0667 10.6C23.9867 10.6 24.7334 9.85333 24.7334 8.93333C24.7334 8.01333 23.9867 7.26667 23.0667 7.26667Z" fill="#002D85"/>
  <path d="M28 17.9333C26.3467 17.9333 25 16.5867 25 14.9333C25 13.28 26.3467 11.9333 28 11.9333C29.6533 11.9333 31 13.28 31 14.9333C31 16.5867 29.6533 17.9333 28 17.9333ZM28 13.9333C27.4533 13.9333 27 14.3867 27 14.9333C27 15.48 27.4533 15.9333 28 15.9333C28.5467 15.9333 29 15.48 29 14.9333C29 14.3867 28.5467 13.9333 28 13.9333Z" fill="#002D85"/>
  <path d="M5.29331 15.2667C3.26665 15.2667 1.62665 13.6267 1.62665 11.6C1.62665 9.57333 3.26665 7.93333 5.29331 7.93333C7.31998 7.93333 8.95998 9.57333 8.95998 11.6C8.95998 13.6267 7.31998 15.2667 5.29331 15.2667ZM5.29331 9.93333C4.37331 9.93333 3.62665 10.68 3.62665 11.6C3.62665 12.52 4.37331 13.2667 5.29331 13.2667C6.21331 13.2667 6.95998 12.52 6.95998 11.6C6.95998 10.68 6.21331 9.93333 5.29331 9.93333Z" fill="#002D85"/>
</svg>