<svg xmlns="http://www.w3.org/2000/svg" width="32" height="32" viewBox="0 0 32 32" fill="none">
  <path d="M16.5 4C15.5729 4.00369 14.6848 4.37362 14.0292 5.0292C13.3736 5.68478 13.0037 6.57288 13 7.5C13 9.422 14.578 11 16.5 11C18.422 11 20 9.422 20 7.5C20 5.578 18.422 4 16.5 4ZM16.5 6C17.34 6 18 6.66 18 7.5C18 8.34 17.34 9 16.5 9C15.66 9 15 8.34 15 7.5C15 6.66 15.66 6 16.5 6ZM11.094 10.5C10.8333 10.483 10.5716 10.4934 10.313 10.531C9.7698 10.6231 9.26175 10.8609 8.84302 11.219C7.96902 11.961 7.46102 13.141 7.09302 14.875C6.97702 15.434 7.01202 16.012 7.28102 16.469C7.55102 16.926 7.97302 17.203 8.34402 17.375C9.09002 17.719 9.82002 17.785 10.219 17.875L10.688 15.937C10.086 15.801 9.46802 15.691 9.18802 15.563C9.04702 15.496 9.02802 15.457 9.03102 15.469C9.01581 15.4073 9.01581 15.3427 9.03102 15.281C9.35102 13.766 9.81602 13.035 10.156 12.75C10.496 12.465 10.777 12.418 11.406 12.562L11.844 10.594C11.5972 10.5408 11.3463 10.5094 11.094 10.5ZM12.844 10.813L11.375 17.5C11.211 18.25 11.52 19.063 12.125 19.531L15.656 22.281L16.531 28H18.563L17.625 21.969C17.5484 21.4614 17.2799 21.0026 16.875 20.687L13.344 17.937L14.375 13.281L15.406 13.562L17.187 15.282C17.766 15.84 18.637 15.972 19.375 15.656L21 14.97V28H23V11H21V12.813L18.594 13.843L16.812 12.125C16.5681 11.886 16.2668 11.7138 15.937 11.625L12.844 10.813ZM11.531 20.625L10.687 23.156L8.18802 28H10.438L12.47 24.094C12.52 23.996 12.564 23.883 12.595 23.781L13.22 21.938L11.531 20.625Z" fill="#013AA9"/>
</svg>