<svg xmlns="http://www.w3.org/2000/svg" width="32" height="32" viewBox="0 0 32 32" fill="none">
  <path d="M18.2883 16.7358C18.1795 16.7296 18.0749 16.6916 17.9874 16.6266C17.9 16.5617 17.8335 16.4725 17.7961 16.3702C17.7588 16.2678 17.7521 16.1568 17.7771 16.0508C17.8021 15.9447 17.8576 15.8483 17.9367 15.7735C18.0159 15.6986 18.1153 15.6485 18.2226 15.6295C18.3298 15.6104 18.4403 15.6232 18.5404 15.6661C18.6405 15.7092 18.7258 15.7805 18.7858 15.8714C18.8459 15.9624 18.8779 16.0689 18.8781 16.1778C18.8761 16.2532 18.8592 16.3274 18.8284 16.3962C18.7976 16.4651 18.7536 16.5273 18.6988 16.5791C18.644 16.6309 18.5796 16.6714 18.5092 16.6982C18.4387 16.7252 18.3636 16.7379 18.2883 16.7358ZM14.1915 16.1778C14.1978 16.06 14.1687 15.943 14.1079 15.8419C14.0471 15.7409 13.9574 15.6604 13.8503 15.6108C13.7433 15.5612 13.6238 15.5449 13.5074 15.5639C13.3909 15.5829 13.2829 15.6365 13.1971 15.7175C13.1115 15.7986 13.052 15.9035 13.0266 16.0187C13.0011 16.1338 13.0108 16.254 13.0543 16.3636C13.0979 16.4733 13.1733 16.5674 13.2709 16.6337C13.3684 16.7001 13.4837 16.7357 13.6016 16.7358C13.677 16.7379 13.752 16.7252 13.8225 16.6982C13.893 16.6714 13.9574 16.6309 14.0121 16.5791C14.0669 16.5273 14.111 16.4651 14.1417 16.3962C14.1725 16.3274 14.1894 16.2532 14.1915 16.1778ZM15.945 18.4176C18.2485 18.4176 20.0497 19.6531 20.0497 21.2233C20.0497 22.7935 18.2485 24.0209 15.945 24.0209C13.6415 24.0209 11.8402 22.7935 11.8402 21.2233C11.8402 19.6531 13.6495 18.4176 15.945 18.4176ZM13.0437 21.1993C13.0437 22.1079 14.3907 22.8811 15.9769 22.8811C17.563 22.8811 18.91 22.084 18.91 21.1993C18.91 20.3145 17.563 19.5176 15.9769 19.5176C14.3907 19.5176 13.0437 20.3145 13.0437 21.1993ZM23.3656 24.8977C23.2564 24.9023 23.1509 24.939 23.0624 25.003C22.9738 25.0671 22.906 25.1558 22.8674 25.2581C22.8288 25.3604 22.8212 25.4717 22.8453 25.5784C22.8695 25.6849 22.9244 25.7821 23.0033 25.8577C23.0822 25.9334 23.1816 25.9842 23.2891 26.0039C23.3966 26.0236 23.5075 26.0112 23.6081 25.9684C23.7087 25.9256 23.7945 25.8541 23.8547 25.7629C23.915 25.6718 23.9472 25.5649 23.9474 25.4555C23.9432 25.3047 23.8798 25.1617 23.7709 25.0572C23.6621 24.9528 23.5164 24.8955 23.3656 24.8977ZM25.94 12.2324C25.9377 13.3843 25.5251 14.4976 24.7763 15.3728C25.5241 16.8287 25.9226 18.4387 25.94 20.0754C25.9408 21.2508 25.7218 22.4159 25.2944 23.5108C25.264 23.5849 25.219 23.652 25.1622 23.7084C25.1053 23.7647 25.0377 23.8091 24.9633 23.8389C24.889 23.8686 24.8094 23.8831 24.7294 23.8815C24.6494 23.8799 24.5705 23.8623 24.4974 23.8296C24.4268 23.8064 24.3616 23.7691 24.3058 23.72C24.25 23.671 24.2047 23.6112 24.1727 23.5441C24.1406 23.4771 24.1225 23.4042 24.1194 23.33C24.1163 23.2557 24.1283 23.1817 24.1546 23.1123C24.5346 22.1449 24.7292 21.1147 24.7284 20.0754C24.7063 18.4892 24.29 16.9335 23.517 15.5482C23.4631 15.4442 23.4433 15.3258 23.4606 15.2099C23.4777 15.0941 23.5309 14.9865 23.6126 14.9025C24.3206 14.1934 24.7213 13.2345 24.7284 12.2324V11.6666H24.1467C23.2651 11.6691 22.4065 11.9479 21.6917 12.4636C21.588 12.5444 21.4604 12.5883 21.3291 12.5883C21.1976 12.5883 21.07 12.5444 20.9664 12.4636C20.5462 12.1262 20.0983 11.8249 19.6274 11.563C18.5684 12.3748 17.2713 12.8147 15.937 12.8147C14.6027 12.8147 13.3055 12.3748 12.2467 11.563C11.7757 11.8249 11.3277 12.1262 10.9076 12.4636C10.804 12.5444 10.6763 12.5883 10.5449 12.5883C10.4135 12.5883 10.2858 12.5444 10.1822 12.4636C9.47027 11.9479 8.61439 11.6691 7.73532 11.6666H7.14542V12.2324C7.1526 13.2345 7.55344 14.1934 8.26138 14.9025C8.34523 14.9852 8.39999 15.0929 8.41728 15.2093C8.4345 15.3259 8.41338 15.4449 8.35703 15.5482C7.5858 16.9342 7.16957 18.4895 7.14542 20.0754C7.1129 21.9006 7.74784 23.6748 8.93091 25.065C9.93527 26.21 10.5395 27.6509 10.6525 29.1698H13.0437V28.3728C13.0451 28.2874 13.0655 28.2034 13.1036 28.1269C13.1416 28.0504 13.1962 27.9835 13.2634 27.9308C13.3306 27.8781 13.4087 27.841 13.492 27.8223C13.5753 27.8036 13.6618 27.8039 13.7451 27.8229C15.2201 28.0991 16.7336 28.0991 18.2085 27.8229C18.2918 27.8039 18.3783 27.8036 18.4617 27.8223C18.545 27.841 18.6231 27.8781 18.6903 27.9308C18.7575 27.9835 18.8121 28.0504 18.8501 28.1269C18.8881 28.2034 18.9086 28.2874 18.91 28.3728V29.1698H21.3012C21.35 28.6286 21.4569 28.0941 21.62 27.5757C21.6693 27.4298 21.7731 27.3084 21.9098 27.2371C22.0464 27.1659 22.2053 27.1502 22.3533 27.1932C22.4257 27.2124 22.4935 27.246 22.5526 27.292C22.6118 27.338 22.661 27.3955 22.6975 27.4609C22.7339 27.5264 22.7568 27.5985 22.7647 27.673C22.7727 27.7475 22.7656 27.8229 22.7438 27.8946C22.5542 28.4957 22.4549 29.1214 22.4489 29.7517C22.4469 29.8271 22.43 29.9013 22.3992 29.9701C22.3684 30.0389 22.3244 30.1011 22.2696 30.1529C22.2148 30.2048 22.1504 30.2452 22.08 30.2721C22.0095 30.299 21.9344 30.3118 21.8591 30.3097H18.3441C18.1932 30.3118 18.0476 30.2544 17.9387 30.15C17.8299 30.0456 17.7664 29.9025 17.7622 29.7517V29.0742C17.1779 29.1469 16.5896 29.1842 16.0008 29.1858C15.4145 29.1844 14.8289 29.1471 14.2473 29.0742V29.7517C14.2452 29.8271 14.2283 29.9013 14.1975 29.9701C14.1668 30.0389 14.1227 30.1011 14.0679 30.1529C14.0132 30.2048 13.9488 30.2452 13.8783 30.2721C13.8078 30.299 13.7328 30.3118 13.6574 30.3097H10.1424C10.067 30.3118 9.99194 30.299 9.92156 30.2721C9.8511 30.2452 9.7867 30.2048 9.73186 30.1529C9.67711 30.1011 9.63303 30.0389 9.60226 29.9701C9.5715 29.9013 9.55468 29.8271 9.55261 29.7517C9.55197 28.3224 9.04672 26.9392 8.12588 25.8461C6.74124 24.2588 5.99687 22.2132 6.0376 20.1073C6.05497 18.4707 6.45342 16.8606 7.20122 15.4047C6.45549 14.5277 6.04342 13.4156 6.0376 12.2644V11.1404C6.03967 11.0651 6.05657 10.9909 6.08733 10.922C6.1181 10.8532 6.1621 10.7912 6.21686 10.7394C6.27161 10.6875 6.33609 10.6469 6.40655 10.62C6.47701 10.5932 6.55202 10.5804 6.62742 10.5826H7.79901C8.77644 10.591 9.7329 10.8666 10.5649 11.3796C10.8518 11.1644 11.1547 10.9652 11.4576 10.7818C10.6128 9.79892 10.1465 8.54683 10.1424 7.25082C10.2207 5.74997 10.8721 4.33644 11.9622 3.30177C13.0522 2.26711 14.4979 1.69025 16.0008 1.69025C17.5037 1.69025 18.9493 2.26711 20.0394 3.30177C21.1294 4.33644 21.7808 5.74997 21.8591 7.25082C21.8544 8.54531 21.3913 9.79637 20.5519 10.7818C20.8548 10.9625 21.1497 11.1618 21.4367 11.3796C22.2719 10.8674 23.2307 10.5919 24.2104 10.5826H25.382C25.5329 10.5804 25.6785 10.6377 25.7875 10.7422C25.8964 10.8466 25.9597 10.9896 25.964 11.1404L25.94 12.2324ZM20.6635 7.18713C20.7065 6.25027 20.4679 5.32206 19.9786 4.52207C19.4892 3.72207 18.7714 3.08696 17.9178 2.69863C17.0641 2.31031 16.1137 2.18656 15.1891 2.3433C14.2645 2.50005 13.408 2.93012 12.7301 3.57809C12.0521 4.22607 11.5837 5.0622 11.3854 5.9788C11.187 6.89541 11.2677 7.85036 11.6171 8.72074C11.9664 9.59105 12.5684 10.3368 13.3455 10.8618C14.1225 11.3869 15.0391 11.6671 15.9769 11.6666C17.1918 11.6922 18.3674 11.2351 19.246 10.3954C20.1245 9.55574 20.6342 8.402 20.6635 7.18713ZM16.9254 5.41759L14.1277 8.09577C14.0658 8.15252 14.0164 8.22139 13.9827 8.29823C13.9489 8.37506 13.9315 8.45811 13.9315 8.54204C13.9315 8.62597 13.9489 8.70903 13.9827 8.78586C14.0164 8.8627 14.0658 8.93172 14.1277 8.98847C14.2536 9.10787 14.4205 9.17443 14.594 9.17443C14.7675 9.17443 14.9344 9.10787 15.0603 8.98847L17.8578 6.31029C17.9197 6.25354 17.9691 6.18468 18.0029 6.10781C18.0367 6.03097 18.0541 5.94792 18.0541 5.86398C18.0541 5.78005 18.0367 5.697 18.0029 5.62016C17.9691 5.54332 17.9197 5.47433 17.8578 5.41759C17.732 5.29818 17.5652 5.23165 17.3916 5.23165C17.2181 5.23165 17.0512 5.29818 16.9254 5.41759ZM15.0203 6.27052C15.082 6.21449 15.1313 6.14618 15.165 6.06996C15.1987 5.99378 15.2161 5.91138 15.2161 5.82808C15.2161 5.74478 15.1987 5.66238 15.165 5.5862C15.1313 5.51003 15.082 5.4418 15.0203 5.38577C14.8958 5.26688 14.7303 5.20052 14.5581 5.20052C14.3859 5.20052 14.2203 5.26688 14.0958 5.38577C14.0341 5.4418 13.9849 5.51003 13.9512 5.5862C13.9175 5.66238 13.9001 5.74478 13.9001 5.82808C13.9001 5.91138 13.9175 5.99378 13.9512 6.06996C13.9849 6.14618 14.0341 6.21449 14.0958 6.27052C14.2203 6.38936 14.3859 6.45575 14.5581 6.45575C14.7303 6.45575 14.8958 6.38936 15.0203 6.27052ZM16.9014 8.06389C16.8406 8.1212 16.7922 8.19038 16.7591 8.26714C16.726 8.3439 16.709 8.42655 16.709 8.51016C16.709 8.59377 16.726 8.67643 16.7591 8.75318C16.7922 8.82994 16.8406 8.8992 16.9014 8.95659C17.0273 9.07599 17.1942 9.14246 17.3677 9.14246C17.5412 9.14246 17.7081 9.07599 17.834 8.95659C17.8947 8.8992 17.9432 8.82994 17.9763 8.75318C18.0094 8.67643 18.0265 8.59377 18.0265 8.51016C18.0265 8.42655 18.0094 8.3439 17.9763 8.26714C17.9432 8.19038 17.8947 8.1212 17.834 8.06389C17.7081 7.94441 17.5412 7.87786 17.3677 7.87786C17.1942 7.87786 17.0273 7.94441 16.9014 8.06389Z" fill="#013AA9" stroke="#002D85" stroke-width="0.675722"/>
</svg>