<svg xmlns="http://www.w3.org/2000/svg" width="32" height="32" viewBox="0 0 32 32" fill="none">
  <path d="M15.9999 30.3467C14.5465 30.3467 13.1066 29.92 11.9732 29.08L6.23987 24.8C4.71987 23.6667 3.5332 21.3067 3.5332 19.4133V9.50668C3.5332 7.45335 5.03989 5.26668 6.97323 4.54668L13.6265 2.05335C14.9465 1.56002 17.0266 1.56002 18.3466 2.05335L25.0132 4.54668C26.9466 5.26668 28.4532 7.45335 28.4532 9.50668V19.4133C28.4532 21.3067 27.2665 23.6667 25.7465 24.8L20.0132 29.08C18.8932 29.92 17.4532 30.3467 15.9999 30.3467ZM14.3332 3.92001L7.67989 6.41333C6.53322 6.84 5.5332 8.28001 5.5332 9.50668V19.4133C5.5332 20.68 6.42655 22.4533 7.42655 23.2L13.1599 27.48C14.6932 28.6267 17.2932 28.6267 18.8265 27.48L24.5599 23.2C25.5732 22.44 26.4532 20.6667 26.4532 19.4133V9.50668C26.4532 8.29334 25.4532 6.85333 24.3066 6.41333L17.6532 3.92001C16.7732 3.58667 15.2265 3.58667 14.3332 3.92001Z" fill="#013AA9"/>
  <path d="M15.9999 15.5601C15.9732 15.5601 15.9465 15.5601 15.9065 15.5601C13.9732 15.5067 12.5599 14.0267 12.5599 12.2267C12.5599 10.3867 14.0665 8.88005 15.9065 8.88005C17.7465 8.88005 19.2532 10.3867 19.2532 12.2267C19.2399 14.0401 17.8265 15.5067 16.0265 15.5734C16.0132 15.56 16.0132 15.5601 15.9999 15.5601ZM15.9065 10.8801C15.1598 10.8801 14.5599 11.4801 14.5599 12.2267C14.5599 12.9601 15.1332 13.5467 15.8532 13.5734C15.8532 13.5734 15.9199 13.5734 15.9999 13.5734C16.7065 13.5334 17.2532 12.9467 17.2532 12.2267C17.2665 11.4801 16.6532 10.8801 15.9065 10.8801Z" fill="#013AA9"/>
  <path d="M15.9997 23.1334C14.8531 23.1334 13.6931 22.8267 12.7997 22.2267C11.9064 21.6401 11.3997 20.7734 11.3997 19.8534C11.3997 18.9334 11.9064 18.0667 12.7997 17.4667C14.5997 16.2667 17.4131 16.28 19.1997 17.4667C20.0931 18.0534 20.5998 18.92 20.5998 19.84C20.5998 20.76 20.0931 21.6267 19.1997 22.2267C18.3064 22.8267 17.1464 23.1334 15.9997 23.1334ZM13.9064 19.12C13.5731 19.3334 13.3864 19.6 13.3997 19.84C13.3997 20.08 13.5864 20.3467 13.9064 20.5601C15.0264 21.3067 16.9731 21.3067 18.0931 20.5601C18.4264 20.3467 18.6131 20.08 18.6131 19.84C18.6131 19.6 18.4264 19.3334 18.1064 19.12C16.9864 18.3867 15.0264 18.3867 13.9064 19.12Z" fill="#013AA9"/>
</svg>