<svg xmlns="http://www.w3.org/2000/svg" width="32" height="32" viewBox="0 0 32 32" fill="none">
  <path d="M19.6 30.3333H12.4C5.81334 30.3333 3.01334 27.52 3.01334 20.9467V14.96C3.01334 14.4133 3.46667 13.96 4.01334 13.96C4.56 13.96 5.01334 14.4133 5.01334 14.96V20.9467C5.01334 26.4 6.94667 28.3333 12.4 28.3333H19.5867C25.04 28.3333 26.9733 26.4 26.9733 20.9467V14.96C26.9733 14.4133 27.4267 13.96 27.9733 13.96C28.52 13.96 28.9733 14.4133 28.9733 14.96V20.9467C28.9867 27.52 26.1733 30.3333 19.6 30.3333Z" fill="#002D85"/>
  <path d="M16 17C14.5333 17 13.2 16.4267 12.2533 15.3733C11.3067 14.32 10.8667 12.9467 11.0133 11.48L11.9067 2.57332C11.96 2.06666 12.3867 1.66666 12.9067 1.66666H19.1333C19.6533 1.66666 20.08 2.05332 20.1333 2.57332L21.0267 11.48C21.1733 12.9467 20.7333 14.32 19.7867 15.3733C18.8 16.4267 17.4667 17 16 17ZM13.8 3.66666L13 11.68C12.9067 12.5733 13.1733 13.4133 13.7333 14.0267C14.8667 15.28 17.1333 15.28 18.2667 14.0267C18.8267 13.4 19.0933 12.56 19 11.68L18.2 3.66666H13.8Z" fill="#002D85"/>
  <path d="M24.4133 17C21.7067 17 19.2933 14.8133 19.0133 12.12L18.08 2.77332C18.0533 2.49332 18.1467 2.21332 18.3333 1.99999C18.52 1.78666 18.7867 1.66666 19.08 1.66666H23.1467C27.0667 1.66666 28.8933 3.30666 29.44 7.33332L29.8133 11.04C29.9733 12.6133 29.4933 14.1067 28.4667 15.24C27.44 16.3733 26 17 24.4133 17ZM20.1867 3.66666L21.0133 11.92C21.1867 13.5867 22.7333 15 24.4133 15C25.4267 15 26.3333 14.6133 26.9867 13.9067C27.6267 13.2 27.92 12.2533 27.8267 11.24L27.4533 7.57332C27.04 4.55999 26.0667 3.66666 23.1467 3.66666H20.1867Z" fill="#002D85"/>
  <path d="M7.52 17C5.93333 17 4.49333 16.3733 3.46666 15.24C2.44 14.1067 1.96 12.6133 2.12 11.04L2.48 7.37332C3.04 3.30666 4.86666 1.66666 8.78666 1.66666H12.8533C13.1333 1.66666 13.4 1.78666 13.6 1.99999C13.8 2.21332 13.88 2.49332 13.8533 2.77332L12.92 12.12C12.64 14.8133 10.2267 17 7.52 17ZM8.78666 3.66666C5.86666 3.66666 4.89333 4.54666 4.46666 7.59999L4.10666 11.24C4 12.2533 4.30666 13.2 4.94666 13.9067C5.58666 14.6133 6.49333 15 7.52 15C9.2 15 10.76 13.5867 10.92 11.92L11.7467 3.66666H8.78666Z" fill="#002D85"/>
  <path d="M19.3333 30.3333H12.6667C12.12 30.3333 11.6667 29.88 11.6667 29.3333V26C11.6667 23.2 13.2 21.6667 16 21.6667C18.8 21.6667 20.3333 23.2 20.3333 26V29.3333C20.3333 29.88 19.88 30.3333 19.3333 30.3333ZM13.6667 28.3333H18.3333V26C18.3333 24.32 17.68 23.6667 16 23.6667C14.32 23.6667 13.6667 24.32 13.6667 26V28.3333Z" fill="#002D85"/>
</svg>