<svg xmlns="http://www.w3.org/2000/svg" width="32" height="32" viewBox="0 0 32 32" fill="none">
  <path d="M9.17334 25.2C8.62667 25.2 8.17334 24.7467 8.17334 24.2V21.44C8.17334 20.8933 8.62667 20.44 9.17334 20.44C9.72001 20.44 10.1733 20.8933 10.1733 21.44V24.2C10.1733 24.76 9.72001 25.2 9.17334 25.2Z" fill="#013AA9"/>
  <path d="M16 25.2C15.4533 25.2 15 24.7467 15 24.2V18.6667C15 18.12 15.4533 17.6667 16 17.6667C16.5467 17.6667 17 18.12 17 18.6667V24.2C17 24.76 16.5467 25.2 16 25.2Z" fill="#013AA9"/>
  <path d="M22.8267 25.2C22.28 25.2 21.8267 24.7467 21.8267 24.2V15.9067C21.8267 15.36 22.28 14.9067 22.8267 14.9067C23.3733 14.9067 23.8267 15.36 23.8267 15.9067V24.2C23.8267 24.76 23.3867 25.2 22.8267 25.2Z" fill="#013AA9"/>
  <path d="M9.17334 17.5733C8.72001 17.5733 8.32001 17.2667 8.20001 16.8133C8.06667 16.28 8.38667 15.7333 8.93334 15.6C13.84 14.3733 18.16 11.6933 21.4533 7.86666L22.0667 7.14666C22.4267 6.73333 23.0533 6.67999 23.48 7.03999C23.8933 7.39999 23.9467 8.02666 23.5867 8.45333L22.9733 9.17333C19.4133 13.3333 14.72 16.2267 9.41334 17.5467C9.33334 17.5733 9.25334 17.5733 9.17334 17.5733Z" fill="#002D85"/>
  <path d="M22.8267 12.6933C22.28 12.6933 21.8267 12.24 21.8267 11.6933V8.8H18.92C18.3733 8.8 17.92 8.34667 17.92 7.8C17.92 7.25334 18.3733 6.8 18.92 6.8H22.8267C23.3733 6.8 23.8267 7.25334 23.8267 7.8V11.7067C23.8267 12.2533 23.3867 12.6933 22.8267 12.6933Z" fill="#002D85"/>
  <path d="M20 30.3333H12C4.75999 30.3333 1.66666 27.24 1.66666 20V12C1.66666 4.76001 4.75999 1.66667 12 1.66667H20C27.24 1.66667 30.3333 4.76001 30.3333 12V20C30.3333 27.24 27.24 30.3333 20 30.3333ZM12 3.66667C5.85332 3.66667 3.66666 5.85334 3.66666 12V20C3.66666 26.1467 5.85332 28.3333 12 28.3333H20C26.1467 28.3333 28.3333 26.1467 28.3333 20V12C28.3333 5.85334 26.1467 3.66667 20 3.66667H12Z" fill="#002D85"/>
</svg>