<svg xmlns="http://www.w3.org/2000/svg" width="32" height="32" viewBox="0 0 32 32" fill="none">
  <path d="M22.6667 27.6667H9.33335C3.45335 27.6667 1.66669 25.88 1.66669 20V19.3333C1.66669 18.7867 2.12002 18.3333 2.66669 18.3333C3.94669 18.3333 5.00002 17.28 5.00002 16C5.00002 14.72 3.94669 13.6667 2.66669 13.6667C2.12002 13.6667 1.66669 13.2133 1.66669 12.6667V12C1.66669 6.11999 3.45335 4.33333 9.33335 4.33333H22.6667C28.5467 4.33333 30.3334 6.11999 30.3334 12V13.3333C30.3334 13.88 29.88 14.3333 29.3334 14.3333C28.0534 14.3333 27 15.3867 27 16.6667C27 17.9467 28.0534 19 29.3334 19C29.88 19 30.3334 19.4533 30.3334 20C30.3334 25.88 28.5467 27.6667 22.6667 27.6667ZM3.66669 20.2133C3.69335 24.8 4.64002 25.6667 9.33335 25.6667H22.6667C27.12 25.6667 28.2 24.88 28.32 20.88C26.4134 20.4267 25 18.7067 25 16.6667C25 14.6267 26.4267 12.9067 28.3334 12.4533V12C28.3334 7.23999 27.4267 6.33333 22.6667 6.33333H9.33335C4.64002 6.33333 3.69335 7.19999 3.66669 11.7867C5.57335 12.24 7.00002 13.96 7.00002 16C7.00002 18.04 5.57335 19.76 3.66669 20.2133Z" fill="#002D85"/>
  <path d="M20 21.1733C19.2533 21.1733 18.6533 20.5733 18.6533 19.84C18.6533 19.1067 19.2533 18.5067 19.9867 18.5067C20.72 18.5067 21.32 19.1067 21.32 19.84C21.32 20.5733 20.7467 21.1733 20 21.1733Z" fill="#002D85"/>
  <path d="M12 14.5067C11.2533 14.5067 10.6533 13.9067 10.6533 13.1733C10.6533 12.44 11.2533 11.84 11.9867 11.84C12.72 11.84 13.32 12.44 13.32 13.1733C13.32 13.9067 12.7467 14.5067 12 14.5067Z" fill="#002D85"/>
  <path d="M11.5067 21.9067C11.2533 21.9067 11 21.8133 10.8 21.6133C10.4133 21.2267 10.4133 20.5867 10.8 20.2L19.7733 11.2267C20.16 10.84 20.8 10.84 21.1867 11.2267C21.5733 11.6133 21.5733 12.2533 21.1867 12.64L12.2133 21.6133C12.0267 21.8133 11.76 21.9067 11.5067 21.9067Z" fill="#002D85"/>
</svg>