<svg xmlns="http://www.w3.org/2000/svg" width="32" height="32" viewBox="0 0 32 32" fill="none">
  <path d="M13.2208 7.37279C14.3271 5.45645 16.1493 4.05805 18.2866 3.48524C20.424 2.91243 22.7013 3.21212 24.6176 4.3184C26.534 5.42467 27.9324 7.24689 28.5052 9.38421C29.078 11.5215 28.7783 13.7988 27.672 15.7152L27.3568 16.2592C27.2507 16.4429 27.076 16.577 26.8711 16.6319C26.6661 16.6868 26.4478 16.6581 26.264 16.552L20.72 13.352L17.6304 18.76C19.7744 19.4112 21.6176 20.8912 22.9344 22.8048C22.3542 22.7666 21.7799 22.9406 21.3184 23.2944C19.7824 21.2912 17.5808 20 15.2 20C12.8192 20 10.6176 21.2912 9.08162 23.296C8.6204 22.9416 8.04605 22.767 7.46562 22.8048C9.25762 20.2 12.0208 18.4 15.2 18.4C15.4608 18.4 15.7184 18.4128 15.9728 18.4352L19.3344 12.552L13.2 9.008C13.0163 8.90191 12.8822 8.72717 12.8273 8.52223C12.7724 8.3173 12.8011 8.09894 12.9072 7.91519L13.2208 7.37119V7.37279ZM14.6944 8.02559L17.4192 9.5984C17.4249 9.58923 17.4308 9.58016 17.4368 9.5712C18.2944 8.3872 19.1008 7.47679 20.1552 6.67839C20.9428 6.09621 21.7864 5.594 22.6736 5.1792C21.2186 4.67062 19.6332 4.6757 18.1815 5.19358C16.7297 5.71147 15.4991 6.71092 14.6944 8.02559ZM22.4064 12.4768C23.1504 11.1712 23.5072 10.1408 23.632 9.14079C23.7328 8.33599 23.688 7.5168 23.5376 6.53919C22.5312 7.016 21.768 7.464 21.1216 7.9536C20.264 8.6032 19.5808 9.3504 18.8112 10.4016L22.4064 12.4768ZM23.792 13.2768L26.3696 14.7648C27.0683 13.4797 27.3303 12.0023 27.1162 10.5553C26.9021 9.10826 26.2234 7.77007 25.1824 6.7424C25.296 7.6384 25.3264 8.48319 25.2192 9.33919C25.0608 10.6048 24.6112 11.84 23.792 13.2768ZM8.38083 24.9488C8.326 24.7842 8.21915 24.6419 8.07639 24.5433C7.93363 24.4447 7.7627 24.3952 7.58935 24.4023C7.41601 24.4093 7.24966 24.4725 7.11537 24.5824C6.98107 24.6922 6.88612 24.8427 6.84482 25.0112C6.57282 26.1216 6.05762 26.7312 5.47042 27.0848C4.85602 27.456 4.07362 27.6 3.20002 27.6C2.98785 27.6 2.78437 27.6843 2.63434 27.8343C2.48431 27.9843 2.40002 28.1878 2.40002 28.4C2.40002 28.6122 2.48431 28.8157 2.63434 28.9657C2.78437 29.1157 2.98785 29.2 3.20002 29.2C4.22082 29.2 5.33282 29.0368 6.29762 28.456C6.87274 28.1086 7.35743 27.6299 7.71203 27.0592C9.62083 29.4928 13.3472 29.4816 15.2 27.0336C17.0832 29.52 20.896 29.4928 22.776 26.9424C23.2867 27.6373 23.9526 28.2032 24.7206 28.5952C25.4887 28.9871 26.3377 29.1942 27.2 29.2C27.4122 29.2 27.6157 29.1157 27.7657 28.9657C27.9157 28.8157 28 28.6122 28 28.4C28 28.1878 27.9157 27.9843 27.7657 27.8343C27.6157 27.6843 27.4122 27.6 27.2 27.6C25.6272 27.6 24.0592 26.576 23.5408 24.9568C23.4891 24.7965 23.388 24.6566 23.2521 24.557C23.1161 24.4575 22.9522 24.4035 22.7837 24.4026C22.6152 24.4017 22.4508 24.454 22.3138 24.5521C22.1768 24.6502 22.0743 24.789 22.0208 24.9488C20.992 28.0512 16.9648 28.0112 15.9568 25.0768C15.9028 24.919 15.8008 24.7821 15.6651 24.6852C15.5294 24.5882 15.3668 24.5361 15.2 24.5361C15.0333 24.5361 14.8707 24.5882 14.735 24.6852C14.5993 24.7821 14.4973 24.919 14.4432 25.0768C13.4352 28.0112 9.40803 28.0512 8.37922 24.9488H8.38083Z" fill="#002D85"/>
</svg>