<svg xmlns="http://www.w3.org/2000/svg" width="32" height="32" viewBox="0 0 32 32" fill="none">
  <path d="M23.6534 30.3333H10.1867C9.77337 30.3333 9.40004 30.08 9.25338 29.68C9.10671 29.28 9.21337 28.8533 9.53337 28.5733C10.4667 27.7466 11.0134 26.56 11.0134 25.32C11.0134 22.9333 9.0667 20.9866 6.68003 20.9866C5.69337 20.9866 4.76004 21.32 3.97337 21.9467C3.6667 22.1867 3.26671 22.2266 2.92004 22.0666C2.57338 21.9066 2.36005 21.5466 2.36005 21.16V15.3333C2.36005 12.0133 5.05337 9.31998 8.37337 9.31998H23.68C27 9.31998 29.6934 12.0133 29.6934 15.3333V17.2533C29.6934 17.8 29.24 18.2533 28.6934 18.2533H26C25.5334 18.2533 25.1067 18.4267 24.8 18.7467L24.7867 18.76C24.4134 19.12 24.24 19.6134 24.2801 20.12C24.3601 21 25.2 21.7067 26.16 21.7067H28.6934C29.24 21.7067 29.6934 22.16 29.6934 22.7067V24.2933C29.6667 27.64 26.9734 30.3333 23.6534 30.3333ZM12.24 28.3333H23.6534C25.8667 28.3333 27.6667 26.5333 27.6667 24.32V23.7333H26.1334C24.1201 23.7333 22.4134 22.24 22.2534 20.32C22.1467 19.2266 22.5467 18.1467 23.3467 17.36C24.04 16.6533 24.9734 16.2667 25.9734 16.2667H27.6667V15.3467C27.6667 13.1333 25.8667 11.3333 23.6534 11.3333H8.3467C6.13337 11.3333 4.33337 13.1333 4.33337 15.3467V19.4534C5.08004 19.16 5.86671 19 6.66671 19C10.16 19 13 21.84 13 25.3333C13 26.3867 12.7334 27.4267 12.24 28.3333Z" fill="#002D85"/>
  <path d="M3.33331 16.3468C2.78665 16.3468 2.33331 15.8935 2.33331 15.3468V10.4535C2.33331 8.46681 3.57332 6.6534 5.42666 5.96007L16.0133 1.96007C17.1066 1.56007 18.3333 1.70681 19.28 2.37348C20.2267 3.04015 20.8 4.12013 20.8 5.26679V10.3334C20.8 10.8801 20.3467 11.3334 19.8 11.3334C19.2533 11.3334 18.8 10.8801 18.8 10.3334V5.26679C18.8 4.76013 18.56 4.30679 18.1466 4.01345C17.72 3.72012 17.2 3.65344 16.72 3.82677L6.13332 7.82677C5.03999 8.2401 4.33331 9.26681 4.33331 10.4535V15.3468C4.33331 15.8935 3.87998 16.3468 3.33331 16.3468Z" fill="#002D85"/>
  <path d="M26.1333 23.7332C24.12 23.7332 22.4133 22.2399 22.2533 20.3199C22.1466 19.2132 22.5466 18.1333 23.3466 17.3466C24.0266 16.6533 24.96 16.2666 25.96 16.2666H28.7333C30.0533 16.3066 31.0666 17.3465 31.0666 18.6265V21.3733C31.0666 22.6533 30.0533 23.6932 28.7733 23.7332H26.1333ZM28.7066 18.2666H25.9733C25.5066 18.2666 25.08 18.4399 24.7733 18.7599C24.3866 19.1333 24.2 19.6399 24.2533 20.1466C24.3333 21.0266 25.1733 21.7332 26.1333 21.7332H28.7466C28.92 21.7332 29.08 21.5733 29.08 21.3733V18.6265C29.08 18.4265 28.92 18.2799 28.7066 18.2666Z" fill="#002D85"/>
  <path d="M18.6666 17H9.33331C8.78665 17 8.33331 16.5467 8.33331 16C8.33331 15.4533 8.78665 15 9.33331 15H18.6666C19.2133 15 19.6666 15.4533 19.6666 16C19.6666 16.5467 19.2133 17 18.6666 17Z" fill="#002D85"/>
  <path d="M6.66665 31.6667C3.17331 31.6667 0.333313 28.8267 0.333313 25.3333C0.333313 23.3867 1.19998 21.5866 2.70664 20.3866C3.82664 19.4933 5.23998 19 6.66665 19C10.16 19 13 21.84 13 25.3333C13 27.1467 12.2133 28.88 10.8533 30.08C9.67998 31.1067 8.19998 31.6667 6.66665 31.6667ZM6.66665 21C5.67998 21 4.74665 21.3333 3.95998 21.96C2.93331 22.7733 2.33331 24.0133 2.33331 25.3333C2.33331 27.72 4.27998 29.6667 6.66665 29.6667C7.70665 29.6667 8.71997 29.28 9.53331 28.5867C10.4666 27.76 11 26.5867 11 25.3333C11 22.9467 9.05331 21 6.66665 21Z" fill="#002D85"/>
  <path d="M5.3332 27.6667C4.99986 27.6667 4.66653 27.4933 4.47987 27.1867C4.19987 26.7067 4.34652 26.0933 4.82652 25.8133L6.01319 25.1067V23.6667C6.01319 23.12 6.46652 22.6667 7.01319 22.6667C7.55986 22.6667 8.01319 23.12 8.01319 23.6667V25.6667C8.01319 26.0133 7.82652 26.3467 7.53319 26.52L5.86652 27.52C5.69319 27.6267 5.50653 27.6667 5.3332 27.6667Z" fill="#002D85"/>
</svg>