<svg xmlns="http://www.w3.org/2000/svg" width="32" height="32" viewBox="0 0 32 32" fill="none">
  <path d="M22.9067 25C20.6267 25 17.9067 24.1333 17.9067 20V12C17.9067 7.86667 20.6267 7 22.9067 7C25.1867 7 27.9067 7.86667 27.9067 12V20C27.9067 24.1333 25.1867 25 22.9067 25ZM22.9067 9C20.7467 9 19.9067 9.84 19.9067 12V20C19.9067 22.16 20.7467 23 22.9067 23C25.0667 23 25.9067 22.16 25.9067 20V12C25.9067 9.84 25.0667 9 22.9067 9Z" fill="#002D85"/>
  <path d="M9.09332 25C6.81332 25 4.09332 24.1333 4.09332 20V12C4.09332 7.86667 6.81332 7 9.09332 7C11.3733 7 14.0933 7.86667 14.0933 12V20C14.0933 24.1333 11.3733 25 9.09332 25ZM9.09332 9C6.93332 9 6.09332 9.84 6.09332 12V20C6.09332 22.16 6.93332 23 9.09332 23C11.2533 23 12.0933 22.16 12.0933 20V12C12.0933 9.84 11.2533 9 9.09332 9Z" fill="#002D85"/>
  <path d="M18.9067 17H13.0933C12.5467 17 12.0933 16.5467 12.0933 16C12.0933 15.4533 12.5467 15 13.0933 15H18.9067C19.4533 15 19.9067 15.4533 19.9067 16C19.9067 16.5467 19.4667 17 18.9067 17Z" fill="#002D85"/>
  <path d="M30 20.3333C29.4533 20.3333 29 19.88 29 19.3333V12.6667C29 12.12 29.4533 11.6667 30 11.6667C30.5467 11.6667 31 12.12 31 12.6667V19.3333C31 19.88 30.5467 20.3333 30 20.3333Z" fill="#002D85"/>
  <path d="M2 20.3333C1.45333 20.3333 1 19.88 1 19.3333V12.6667C1 12.12 1.45333 11.6667 2 11.6667C2.54667 11.6667 3 12.12 3 12.6667V19.3333C3 19.88 2.54667 20.3333 2 20.3333Z" fill="#002D85"/>
</svg>