<svg xmlns="http://www.w3.org/2000/svg" width="112" height="48" viewBox="0 0 112 48" fill="none">
  <g clip-path="url(#clip0_2037_9979)">
    <path d="M111.158 7.34589C111.158 5.39945 110.375 3.53273 108.982 2.15639C107.588 0.780053 105.698 0.00683594 103.728 0.00683594H7.43734C5.46483 0.00683594 3.57312 0.780815 2.17835 2.15851C0.783579 3.5362 0 5.40476 0 7.35311V18.3111H111.158V7.34589Z" fill="#ED1C24"/>
    <path d="M0 18.3115V29.284C0.00193829 31.2311 0.786366 33.0978 2.18093 34.4739C3.57549 35.8501 5.4661 36.623 7.43734 36.623H103.728C105.698 36.623 107.588 35.8498 108.982 34.4735C110.375 33.0971 111.158 31.2304 111.158 29.284V18.3115H0Z" fill="#005BAA"/>
    <path fill-rule="evenodd" clip-rule="evenodd" d="M24.864 29.298L14.8379 7.32422H20.9808L28.0745 23.5915L34.9487 7.32422H40.96L30.9119 29.298H24.864ZM43.8779 29.298V7.34589H55.8201C58.014 7.26414 60.2094 7.46569 62.3506 7.94544C63.6374 8.28805 64.7816 9.0238 65.6195 10.0475C66.4244 11.0239 66.8566 12.2485 66.8408 13.5075C66.8577 14.2824 66.6998 15.0514 66.3785 15.7586C66.0573 16.4657 65.5806 17.0934 64.9833 17.596C63.7449 18.6651 61.8947 19.3417 59.4327 19.6258C60.5222 20.1048 61.5427 20.7241 62.4676 21.4678C63.6508 22.5573 64.7304 23.7518 65.6926 25.0362L69.1224 29.3269H62.3433L58.248 24.5378C57.3154 23.3982 56.309 22.3197 55.235 21.3089C54.7391 20.8891 54.1582 20.5788 53.5311 20.3987C52.5943 20.201 51.6363 20.1185 50.679 20.1531H49.5309V29.3269L43.8779 29.298ZM49.5382 16.6208H53.7212C55.432 16.6875 57.1455 16.6004 58.8403 16.3608C59.4532 16.2174 60.0069 15.8922 60.4273 15.429C60.8172 14.9682 61.0227 14.3823 61.005 13.782C61.0216 13.4489 60.9648 13.1162 60.8385 12.807C60.7123 12.4977 60.5196 12.2191 60.2737 11.9906C59.6685 11.4925 58.9231 11.1899 58.1383 11.1238C57.6849 11.0804 56.3027 11.0515 54.0064 11.0515H49.6186V16.6208H49.5382ZM72.8228 7.33144H84.041C85.6993 7.30203 87.3578 7.37682 89.0065 7.55537C90.0301 7.67339 91.0223 7.97964 91.9317 8.4583C92.7766 8.90583 93.5108 9.53238 94.0818 10.2931C94.6438 11.0349 94.9443 11.9381 94.9374 12.8646C94.934 13.9014 94.5612 14.9038 93.8843 15.6962C93.1196 16.5879 92.1236 17.2572 91.003 17.6321C92.4811 17.9052 93.8476 18.5951 94.9374 19.6186C95.3794 20.0527 95.7293 20.5695 95.9666 21.1388C96.2039 21.7082 96.3239 22.3185 96.3196 22.9342C96.3059 23.9614 95.9965 24.9636 95.4274 25.8235C94.8281 26.7707 93.992 27.5494 92.9995 28.0845C91.8195 28.6914 90.5243 29.0482 89.1967 29.1319C88.2606 29.2041 85.979 29.2547 82.3663 29.2764H72.8228V7.32422V7.33144ZM77.8469 10.9937V16.0502H81.5619C83.7558 16.0502 85.138 16.0502 85.6791 15.9707C86.4992 15.9293 87.2894 15.6532 87.9535 15.1761C88.2206 14.9755 88.4356 14.715 88.5806 14.416C88.7255 14.1171 88.7964 13.7883 88.7872 13.457C88.7968 13.1439 88.7363 12.8326 88.6098 12.5454C88.4834 12.2581 88.2942 12.0021 88.0558 11.7956C87.4488 11.3389 86.7124 11.0813 85.9497 11.0588C85.3866 11.0082 83.7558 10.9865 81.1085 10.9865L77.8469 10.9937ZM77.8469 19.7269V25.5996H83.083C84.3789 25.6348 85.6757 25.5914 86.9662 25.4696C87.7265 25.388 88.4448 25.0836 89.0285 24.5956C89.2917 24.3602 89.4996 24.0708 89.6373 23.7475C89.775 23.4243 89.8393 23.0751 89.8256 22.7247C89.8377 22.1102 89.6188 21.5132 89.2113 21.0488C88.7276 20.5415 88.1009 20.1892 87.4123 20.0375C85.7539 19.7549 84.0696 19.6483 82.3883 19.7197L77.8469 19.7269Z" fill="white"/>
    <path fill-rule="evenodd" clip-rule="evenodd" d="M5.8648 47.8918L3.6709 41.9252H4.98723L6.51566 46.3387L7.97827 41.9252H9.27266L7.07876 47.8918H5.8648ZM9.91621 47.8918V41.9035H11.1302V47.8701L9.91621 47.8918ZM12.2929 47.8918V41.9035H16.7758V42.9148H13.5508V44.2367H16.5857V45.2407H13.5508V46.866H16.9294V47.8701L12.2929 47.8918ZM19.2842 47.8918V42.9365H17.4925V41.9035H22.3264V42.9148H20.542V47.8701L19.2842 47.8918ZM23.087 47.8918V41.9035H24.279L26.7508 45.8836V41.9035H27.8843V47.8701H26.6557L24.2205 43.9766V47.8701L23.087 47.8918ZM34.6196 47.8918H33.2959L32.7621 46.5338H30.3707L29.8734 47.8918H28.579L30.9338 41.9252H32.2209L34.6415 47.8918H34.6196ZM32.3745 45.5152L31.5408 43.3482L30.7291 45.5152H32.3745ZM35.2485 47.8773V41.9035H37.0768L38.1737 45.9703L39.256 41.9035H41.0843V47.8701H39.9508V43.1748L38.7515 47.8701H37.5814L36.382 43.1748V47.8701L35.2485 47.8773ZM44.4995 46.2809V45.1541H46.7738V46.2954L44.4995 46.2809ZM49.8014 47.8773V41.9035H52.3683C52.8419 41.8812 53.3161 41.9349 53.7724 42.0624C54.0754 42.1638 54.3337 42.3654 54.5037 42.6331C54.6805 42.9148 54.7719 43.2407 54.767 43.5721C54.7824 43.9789 54.6413 44.3763 54.3721 44.6845C54.0505 45.0017 53.6256 45.1962 53.1727 45.2335C53.4164 45.3688 53.6382 45.5392 53.8309 45.7392C54.0885 46.0412 54.3185 46.3651 54.5183 46.7071L55.2496 47.8701H53.787L52.9021 46.5699C52.7099 46.2649 52.4973 45.9729 52.2659 45.6958C52.1627 45.5846 52.0351 45.4981 51.8929 45.443C51.6927 45.3905 51.4856 45.3686 51.2786 45.378H51.0373V47.8701L49.8014 47.8773ZM51.0227 44.4317H51.9222C52.2895 44.451 52.6577 44.4268 53.0192 44.3595C53.1586 44.3145 53.2793 44.2257 53.3629 44.1067C53.4494 43.9733 53.4927 43.8171 53.4872 43.6588C53.4928 43.4826 53.433 43.3105 53.319 43.1748C53.2002 43.0423 53.0362 42.9575 52.8583 42.9365C52.7632 42.9365 52.4634 42.9365 51.9734 42.9365H51.0227V44.4462V44.4317ZM55.8785 41.9107H57.0998V45.1396C57.0901 45.4725 57.1048 45.8057 57.1437 46.1365C57.1953 46.3704 57.327 46.5796 57.5167 46.7288C57.7566 46.8853 58.0413 46.9613 58.3284 46.9455C58.6059 46.9669 58.8823 46.8929 59.1109 46.736C59.2772 46.6102 59.3895 46.4271 59.4254 46.2231C59.4684 45.8878 59.4855 45.5497 59.4766 45.2119V41.9035H60.6978V45.0385C60.7141 45.546 60.6822 46.0538 60.6027 46.5554C60.5372 46.8202 60.4122 47.0671 60.2371 47.2778C60.0354 47.4938 59.7848 47.6596 59.5058 47.7617C59.1336 47.8952 58.7388 47.9566 58.343 47.9423C57.8955 47.9634 57.4482 47.8971 57.0267 47.7473C56.7444 47.6374 56.4935 47.4614 56.2954 47.2344C56.1286 47.0433 56.0107 46.8154 55.9517 46.5699C55.8554 46.0701 55.8138 45.5615 55.8273 45.0529V41.9035L55.8785 41.9107ZM61.6778 45.9342L62.8625 45.8186C62.9013 46.1479 63.0537 46.454 63.2939 46.6854C63.5437 46.8837 63.8588 46.984 64.1788 46.9672C64.4957 46.9868 64.81 46.9002 65.071 46.7216C65.1632 46.655 65.2383 46.5681 65.2904 46.4678C65.3424 46.3674 65.37 46.2564 65.3708 46.1437C65.3745 46.0112 65.3275 45.8823 65.2392 45.7825C65.1202 45.6573 64.9683 45.5672 64.8004 45.5225C64.6615 45.4719 64.3324 45.3852 63.8278 45.2624C63.3284 45.1755 62.8572 44.9725 62.4529 44.6701C62.156 44.4246 61.9612 44.0796 61.9059 43.701C61.8505 43.3224 61.9386 42.937 62.1531 42.6186C62.3354 42.3535 62.5886 42.1435 62.8844 42.0119C63.2642 41.8667 63.6694 41.7979 64.0764 41.8096C64.6881 41.7649 65.2955 41.9393 65.7877 42.3008C65.9771 42.4651 66.1292 42.6673 66.2338 42.8939C66.3385 43.1205 66.3933 43.3664 66.3947 43.6155L65.1734 43.666C65.1482 43.4131 65.0282 43.1787 64.837 43.0087C64.6088 42.8576 64.3358 42.7863 64.0618 42.8064C63.7678 42.791 63.4763 42.8668 63.2281 43.0231C63.1679 43.064 63.1189 43.1192 63.0857 43.1835C63.0525 43.2478 63.0361 43.3193 63.038 43.3915C63.0377 43.4617 63.0541 43.5309 63.0858 43.5936C63.1176 43.6564 63.1638 43.7109 63.2208 43.7527C63.5647 43.9545 63.9445 44.0894 64.3397 44.15C64.7939 44.244 65.2356 44.3894 65.656 44.5834C65.9312 44.7199 66.1618 44.9302 66.3215 45.1902C66.4873 45.483 66.5707 45.8142 66.5629 46.1496C66.5552 46.485 66.4567 46.8122 66.2777 47.0972C66.0816 47.3978 65.7952 47.6301 65.4586 47.7617C65.0399 47.9243 64.5919 48.0005 64.1423 47.9857C63.512 48.0247 62.8886 47.8375 62.3871 47.4584C61.9509 47.0643 61.6884 46.5172 61.6558 45.9342H61.6778ZM67.3015 45.9342L68.4935 45.8186C68.5262 46.1497 68.6796 46.4577 68.925 46.6854C69.1748 46.8837 69.4898 46.984 69.8098 46.9672C70.1246 46.988 70.437 46.9013 70.6947 46.7216C70.7869 46.655 70.862 46.5681 70.9141 46.4678C70.9661 46.3674 70.9937 46.2564 70.9946 46.1437C70.9969 46.0127 70.9529 45.885 70.8702 45.7825C70.7513 45.6573 70.5993 45.5672 70.4314 45.5225C70.2852 45.4719 69.9634 45.3852 69.4515 45.2624C68.9526 45.1739 68.4817 44.9711 68.0767 44.6701C67.9006 44.5228 67.7596 44.3389 67.6635 44.1317C67.5675 43.9245 67.5188 43.6989 67.5209 43.471C67.5211 43.1674 67.6128 42.8707 67.7841 42.6186C67.9647 42.3519 68.2183 42.1415 68.5154 42.0119C68.8952 41.8667 69.3004 41.7979 69.7075 41.8096C70.3188 41.7675 70.9254 41.9416 71.4187 42.3008C71.6083 42.4646 71.76 42.6668 71.8635 42.8936C71.967 43.1205 72.0198 43.3667 72.0184 43.6155L70.8044 43.666C70.7759 43.4141 70.6565 43.1808 70.468 43.0087C70.2398 42.8576 69.9669 42.7863 69.6928 42.8064C69.3988 42.79 69.107 42.8659 68.8592 43.0231C68.7979 43.0631 68.7482 43.118 68.7149 43.1826C68.6815 43.2471 68.6657 43.3191 68.669 43.3915C68.6684 43.461 68.6839 43.5296 68.7144 43.5922C68.7448 43.6548 68.7893 43.7097 68.8445 43.7527C69.1912 43.9541 69.5733 44.0889 69.9707 44.15C70.4249 44.244 70.8666 44.3894 71.2871 44.5834C71.5622 44.7199 71.7929 44.9302 71.9526 45.1902C72.1183 45.483 72.2017 45.8142 72.194 46.1496C72.1862 46.485 72.0877 46.8122 71.9087 47.0972C71.7126 47.3978 71.4262 47.6301 71.0896 47.7617C70.6709 47.9243 70.2229 48.0005 69.7733 47.9857C69.1429 48.0254 68.5193 47.8381 68.0182 47.4584C67.5851 47.0621 67.3232 46.5162 67.2868 45.9342H67.3015ZM73.2031 47.8773V41.9035H74.4244V47.8701L73.2031 47.8773ZM81.0353 47.8773H79.7044L79.1778 46.5193H76.7645L76.2672 47.8773H74.9801L77.3349 41.9107H78.6367L81.0573 47.8773H81.0353ZM78.7902 45.5152L77.9566 43.3482L77.1741 45.5152H78.7902ZM83.7119 41.9035H86.1325C86.4893 41.8975 86.8462 41.9168 87.2002 41.9613C87.4248 41.9993 87.639 42.0829 87.8291 42.2069C88.0204 42.3348 88.1783 42.5056 88.2898 42.7053C88.4203 42.9238 88.4862 43.1741 88.48 43.4277C88.4787 43.6988 88.4001 43.9642 88.2533 44.1933C88.1031 44.4257 87.8869 44.6091 87.6317 44.7207C87.9656 44.8075 88.2627 44.9973 88.48 45.2624C88.676 45.5204 88.779 45.8357 88.7725 46.1581C88.7749 46.4343 88.7097 46.7069 88.5824 46.9527C88.4654 47.1979 88.2866 47.4094 88.0631 47.5667C87.8176 47.7255 87.5363 47.8222 87.2441 47.8484C87.0393 47.8484 86.5518 47.8629 85.7815 47.8918H83.7192V41.9035H83.7119ZM84.9332 42.8931V44.2728H85.7376C86.213 44.2728 86.4689 44.2728 86.6225 44.2728C86.8053 44.2607 86.9784 44.1867 87.1124 44.0633C87.1723 44.0009 87.2188 43.927 87.249 43.8463C87.2791 43.7656 87.2924 43.6797 87.288 43.5938C87.2968 43.4318 87.2447 43.2723 87.1417 43.1459C87.0183 43.0241 86.8549 42.9498 86.681 42.9365C86.5567 42.9365 86.213 42.9365 85.6352 42.9365L84.9332 42.8931ZM84.9332 45.2696V46.866H86.0667C86.3451 46.8734 86.6237 46.8613 86.9004 46.8299C87.071 46.7996 87.2274 46.716 87.3465 46.5915C87.4625 46.4486 87.5223 46.269 87.5147 46.0859C87.5192 45.9222 87.4733 45.761 87.383 45.6236C87.2892 45.4959 87.1557 45.402 87.0028 45.3563C86.6475 45.2802 86.2835 45.251 85.9204 45.2696H84.9332ZM95.2518 47.8701H93.9282L93.4016 46.5121H90.981L90.4838 47.8701H89.1893L91.5441 41.9035H92.8312L95.2518 47.8701ZM93.0067 45.5152L92.1731 43.3482L91.3613 45.5152H93.0067ZM95.9319 47.8773V41.9035H97.124L99.5958 45.8836V41.9035H100.729V47.8701H99.4788L97.0435 43.9766V47.8701L95.9319 47.8773ZM102.031 47.8773V41.9035H103.252V44.5545L105.695 41.9035H107.333L105.059 44.2295L107.457 47.8412H105.878L104.232 45.0891L103.245 46.0859V47.8918L102.031 47.8773Z" fill="#333333"/>
  </g>
  <defs>
    <clipPath id="clip0_2037_9979">
      <rect width="111.158" height="48" fill="white"/>
    </clipPath>
  </defs>
</svg>