<svg width="262" height="202" viewBox="0 0 262 202" fill="none" xmlns="http://www.w3.org/2000/svg">
  <mask id="mask0_1057_9995" style="mask-type:luminance" maskUnits="userSpaceOnUse" x="0" y="0"
    width="263" height="202">
    <path d="M262.434 201.724V0.882812L0.161957 0.882813V201.724L262.434 201.724Z" fill="white" />
  </mask>
  <g mask="url(#mask0_1057_9995)">
    <path
      d="M-54.5776 248.361L124.71 99.2056C126.646 97.5936 128.866 96.3984 131.242 95.6882C133.619 94.9781 136.105 94.767 138.558 95.0669C141.012 95.3668 143.386 96.172 145.544 97.4363C147.701 98.7007 149.601 100.399 151.133 102.435L293.069 290.843C296.166 294.953 297.581 300.188 297.005 305.395C296.428 310.603 293.907 315.356 289.996 318.61L110.708 467.766C106.796 471.018 101.815 472.504 96.8604 471.899C91.9056 471.293 87.3824 468.645 84.2848 464.536L-57.6511 276.129C-60.7474 272.018 -62.163 266.784 -61.5866 261.576C-61.0102 256.369 -58.489 251.615 -54.5776 248.361Z"
      fill="url(#paint0_linear_1057_9995)" />
    <path
      d="M264.547 212.766L176.426 198.965C173.078 198.433 170.068 196.53 168.052 193.672C166.036 190.814 165.179 187.233 165.669 183.713L178.802 91.109C179.308 87.5913 181.119 84.4274 183.839 82.309C186.559 80.1907 189.966 79.2902 193.316 79.8045L281.444 93.6061C284.79 94.1397 287.799 96.0435 289.814 98.9014C291.828 101.759 292.684 105.339 292.194 108.858L279.061 201.462C278.555 204.979 276.744 208.143 274.024 210.262C271.304 212.38 267.897 213.281 264.547 212.766Z"
      fill="url(#paint1_linear_1057_9995)" />
    <path
      d="M215.142 15.8415L200.502 37.212C197.758 41.2165 198.624 46.7999 202.434 49.6828L222.771 65.0674C226.581 67.9503 231.894 67.0409 234.638 63.0364L249.278 41.6659C252.021 37.6613 251.156 32.0779 247.345 29.195L227.009 13.8104C223.198 10.9276 217.885 11.8369 215.142 15.8415Z"
      fill="url(#paint2_linear_1057_9995)" />
  </g>
  <defs>
    <linearGradient id="paint0_linear_1057_9995" x1="223.923" y1="192.46" x2="101.964" y2="287.133"
      gradientUnits="userSpaceOnUse">
      <stop stop-color="#00A7E2" />
      <stop offset="1" stop-color="#19226D" stop-opacity="0" />
    </linearGradient>
    <linearGradient id="paint1_linear_1057_9995" x1="277.104" y1="201.933" x2="175.184" y2="95.3154"
      gradientUnits="userSpaceOnUse">
      <stop stop-color="#19226D" stop-opacity="0" />
      <stop offset="1" stop-color="#ED1C24" />
    </linearGradient>
    <linearGradient id="paint2_linear_1057_9995" x1="248.06" y1="27.2987" x2="200.823" y2="49.7739"
      gradientUnits="userSpaceOnUse">
      <stop stop-color="#19226D" stop-opacity="0" />
      <stop offset="1" stop-color="#ED1C24" />
    </linearGradient>
  </defs>
</svg>