<svg width="262" height="269" viewBox="0 0 262 269" fill="none" xmlns="http://www.w3.org/2000/svg">
<mask id="mask0_1818_17371" style="mask-type:luminance" maskUnits="userSpaceOnUse" x="0" y="0" width="263" height="269">
<path d="M262.434 268.63V0L0.162079 0V268.63H262.434Z" fill="white"/>
</mask>
<g mask="url(#mask0_1818_17371)">
<path d="M-54.5774 331.011L124.71 131.511C126.647 129.355 128.866 127.757 131.243 126.807C133.619 125.857 136.105 125.575 138.559 125.976C141.013 126.377 143.386 127.454 145.544 129.145C147.702 130.836 149.601 133.108 151.134 135.831L293.07 387.831C296.166 393.33 297.581 400.331 297.005 407.296C296.429 414.261 293.907 420.619 289.996 424.971L110.709 624.471C106.796 628.821 101.815 630.809 96.8606 629.999C91.9059 629.189 87.3827 625.647 84.285 620.152L-57.6509 368.151C-60.7471 362.653 -62.1627 355.652 -61.5864 348.687C-61.01 341.722 -58.4888 335.364 -54.5774 331.011Z" fill="url(#paint0_linear_1818_17371)"/>
<path d="M264.547 283.4L176.426 264.94C173.079 264.229 170.068 261.684 168.052 257.861C166.036 254.038 165.179 249.249 165.669 244.54L178.802 120.68C179.308 115.975 181.119 111.744 183.839 108.91C186.559 106.077 189.966 104.872 193.316 105.56L281.444 124.02C284.79 124.734 287.799 127.28 289.814 131.103C291.828 134.925 292.684 139.713 292.194 144.42L279.061 268.28C278.555 272.985 276.744 277.217 274.024 280.05C271.304 282.884 267.897 284.088 264.547 283.4Z" fill="url(#paint1_linear_1818_17371)"/>
<path d="M215.142 20.0091L200.502 48.5927C197.759 53.9489 198.624 61.4169 202.435 65.2728L222.771 85.8501C226.581 89.706 231.895 88.4898 234.638 83.1335L249.278 54.5499C252.021 49.1937 251.156 41.7257 247.345 37.8698L227.009 17.2925C223.198 13.4366 217.885 14.6529 215.142 20.0091Z" fill="url(#paint2_linear_1818_17371)"/>
</g>
<defs>
<linearGradient id="paint0_linear_1818_17371" x1="223.923" y1="256.242" x2="77.7194" y2="341.095" gradientUnits="userSpaceOnUse">
<stop stop-color="#00A7E2"/>
<stop offset="1" stop-color="#19226D" stop-opacity="0"/>
</linearGradient>
<linearGradient id="paint1_linear_1818_17371" x1="277.104" y1="268.91" x2="144.665" y2="165.328" gradientUnits="userSpaceOnUse">
<stop stop-color="#19226D" stop-opacity="0"/>
<stop offset="1" stop-color="#ED1C24"/>
</linearGradient>
<linearGradient id="paint2_linear_1818_17371" x1="248.06" y1="35.3334" x2="196.637" y2="53.6262" gradientUnits="userSpaceOnUse">
<stop stop-color="#19226D" stop-opacity="0"/>
<stop offset="1" stop-color="#ED1C24"/>
</linearGradient>
</defs>
</svg>
