<svg width="430" height="683" viewBox="0 0 430 683" fill="none" xmlns="http://www.w3.org/2000/svg">
  <g style="mix-blend-mode:screen" clip-path="url(#clip0_1153_10104)">
    <path
      d="M236.745 472.378H192.722V469.797L197.871 181.667H231.511L236.745 472.378ZM197.683 467.423H231.803L226.808 186.622H202.78L197.683 467.423Z"
      fill="#2B4E8F" fill-opacity="0.15" />
    <path
      d="M197.614 472.378H156.423L156.577 469.711L174.152 181.667H202.729V184.231L197.614 472.378ZM161.572 467.423H192.757L197.751 186.622H178.735L161.572 467.423Z"
      fill="#2B4E8F" fill-opacity="0.15" />
    <path
      d="M272.976 472.378H231.785L226.636 181.615H255.161L255.281 183.921L272.976 472.378ZM236.625 467.423H267.776L250.613 186.622H231.597L236.625 467.423Z"
      fill="#2B4E8F" fill-opacity="0.15" />
    <path
      d="M258.903 186.622H170.531V176.299H258.903V186.622ZM175.388 181.667H254.046V181.323H175.388V181.667Z"
      fill="#2B4E8F" fill-opacity="0.15" />
    <path
      d="M232.918 186.622H196.55V176.299H232.918V186.622ZM201.407 181.667H228.061V181.323H201.407V181.667Z"
      fill="#2B4E8F" fill-opacity="0.15" />
    <path
      d="M258.903 186.622H228.01V176.299H258.903V186.622ZM232.918 181.667H254.046V181.323H232.918V181.667Z"
      fill="#2B4E8F" fill-opacity="0.15" />
    <path
      d="M260.774 181.322H168.609V169.106H260.774V181.322ZM173.483 176.367H255.865V174.061H173.483V176.367Z"
      fill="#2B4E8F" fill-opacity="0.15" />
    <path
      d="M233.656 181.322H195.898V169.106H233.656V181.322ZM200.669 176.367H228.782V174.061H200.703L200.669 176.367Z"
      fill="#2B4E8F" fill-opacity="0.15" />
    <path
      d="M260.774 181.322H228.747V169.106H260.774V181.322ZM233.622 176.367H255.934V174.061H233.622V176.367Z"
      fill="#2B4E8F" fill-opacity="0.15" />
    <path
      d="M258.903 174.062H170.531V124.168H258.903V174.062ZM175.388 169.107H254.046V129.123H175.388V169.107Z"
      fill="#2B4E8F" fill-opacity="0.15" />
    <path
      d="M232.918 174.062H196.55V124.168H232.918V174.062ZM201.407 169.107H228.061V129.123H201.407V169.107Z"
      fill="#2B4E8F" fill-opacity="0.15" />
    <path
      d="M258.903 174.062H228.01V124.168H258.903V174.062ZM232.918 169.107H254.046V129.123H232.918V169.107Z"
      fill="#2B4E8F" fill-opacity="0.15" />
    <path
      d="M260.774 130.448H168.609V120.125H260.774V130.448ZM173.483 125.493H255.865V125.149H173.483V125.493Z"
      fill="#2B4E8F" fill-opacity="0.15" />
    <path
      d="M233.656 130.448H195.898V120.125H233.656V130.448ZM200.669 125.493H228.782V125.149H200.703L200.669 125.493Z"
      fill="#2B4E8F" fill-opacity="0.15" />
    <path
      d="M260.774 130.448H228.747V120.125H260.774V130.448ZM233.622 125.493H255.934V125.149H233.622V125.493Z"
      fill="#2B4E8F" fill-opacity="0.15" />
    <g opacity="0.1">
      <path d="M258.886 125.527H170.514V134.594H258.886V125.527Z" fill="#2B4E8F" fill-opacity="0.15" />
    </g>
    <g opacity="0.1">
      <path d="M258.886 176.367H170.514V183.972H258.886V176.367Z" fill="#2B4E8F" fill-opacity="0.15" />
    </g>
    <g opacity="0.1">
      <path d="M255.522 189.271H173.843L174.187 181.666H255.264L255.522 189.271Z" fill="#2B4E8F"
        fill-opacity="0.15" />
    </g>
    <path
      d="M196.155 160.402H175.68V134.749H196.155V160.402ZM180.537 155.429H191.298V139.721H180.537V155.429Z"
      fill="#2B4E8F" fill-opacity="0.15" />
    <g opacity="0.1">
      <path d="M185.188 160.384H175.68V134.749H196.155V144.074H185.188V160.384Z" fill="#2B4E8F"
        fill-opacity="0.15" />
    </g>
    <path
      d="M224.937 160.402H204.428V134.749H224.937V160.402ZM209.285 155.429H220.08V139.721H209.285V155.429Z"
      fill="#2B4E8F" fill-opacity="0.15" />
    <g opacity="0.1">
      <path d="M213.936 160.384H204.428V134.749H224.937V144.074H213.936V160.384Z" fill="#2B4E8F"
        fill-opacity="0.15" />
    </g>
    <path
      d="M254.286 160.402H233.69V134.749H254.286V160.402ZM238.633 155.429H249.429V139.721H238.633V155.429Z"
      fill="#2B4E8F" fill-opacity="0.15" />
    <g opacity="0.1">
      <path d="M243.285 160.384H233.759V134.749H254.286V144.074H243.285V160.384Z" fill="#2B4E8F"
        fill-opacity="0.15" />
    </g>
    <path d="M218.227 0H210.469V125.183H218.227V0Z" fill="#2B4E8F" fill-opacity="0.15" />
    <path d="M219.205 67.4258H209.491V125.183H219.205V67.4258Z" fill="#2B4E8F" fill-opacity="0.15" />
    <path
      d="M218.244 41.8764H168.471V2.82129H218.244V41.8764ZM173.38 36.9214H213.387V7.77631H173.38V36.9214Z"
      fill="#2B4E8F" fill-opacity="0.15" />
    <path
      d="M181.961 39.2618L186.355 25.756L174.822 17.3772H189.032L193.375 4.06055L197.734 17.3772H211.894L200.463 25.756L204.771 39.2618L193.375 30.883L181.961 39.2618ZM193.375 24.9129L195.554 26.4441L194.748 23.8806L196.893 22.3494H194.233L193.375 19.7858L192.534 22.3494H189.925L192.07 23.8806L191.247 26.4441L193.375 24.9129Z"
      fill="#2B4E8F" fill-opacity="0.15" />
    <g opacity="0.1">
      <path
        d="M214.434 451.009C210.053 451 205.855 449.248 202.763 446.138C199.67 443.028 197.936 438.815 197.94 434.424C197.938 432.25 198.363 430.097 199.19 428.089C200.018 426.08 201.232 424.254 202.764 422.715C204.295 421.177 206.114 419.956 208.117 419.122C210.119 418.288 212.265 417.858 214.434 417.855C218.814 417.86 223.014 419.608 226.11 422.714C229.205 425.821 230.944 430.033 230.944 434.424C230.947 436.6 230.521 438.754 229.693 440.765C228.864 442.776 227.649 444.604 226.116 446.144C224.582 447.684 222.762 448.907 220.757 449.741C218.753 450.576 216.604 451.007 214.434 451.009ZM214.434 422.81C211.356 422.81 208.404 424.032 206.224 426.209C204.043 428.385 202.811 431.339 202.797 434.424C202.806 437.512 204.036 440.47 206.218 442.65C208.399 444.83 211.353 446.054 214.434 446.054C217.515 446.054 220.472 444.831 222.656 442.651C224.84 440.471 226.074 437.513 226.087 434.424C226.069 431.337 224.833 428.384 222.65 426.208C220.466 424.032 217.513 422.81 214.434 422.81Z"
        fill="#2B4E8F" fill-opacity="0.15" />
    </g>
    <g opacity="0.25">
      <path
        d="M214.434 447.671C210.942 447.653 207.6 446.249 205.14 443.766C202.679 441.283 201.299 437.923 201.304 434.423C201.297 432.691 201.632 430.974 202.289 429.371C202.946 427.768 203.911 426.311 205.131 425.083C206.351 423.856 207.801 422.881 209.397 422.217C210.994 421.552 212.705 421.21 214.434 421.21C217.916 421.21 221.256 422.597 223.718 425.065C226.18 427.533 227.563 430.881 227.563 434.372C227.572 436.109 227.24 437.832 226.585 439.44C225.93 441.049 224.966 442.512 223.746 443.747C222.527 444.982 221.077 445.964 219.479 446.638C217.881 447.311 216.167 447.662 214.434 447.671ZM214.434 426.234C213.354 426.227 212.284 426.433 211.284 426.841C210.284 427.249 209.374 427.851 208.605 428.611C207.837 429.372 207.226 430.276 206.807 431.274C206.387 432.271 206.168 433.341 206.161 434.423C206.157 435.514 206.368 436.594 206.782 437.602C207.196 438.61 207.805 439.526 208.574 440.297C209.343 441.068 210.257 441.679 211.263 442.094C212.268 442.509 213.346 442.721 214.434 442.716C215.521 442.721 216.599 442.509 217.605 442.094C218.611 441.679 219.524 441.068 220.293 440.297C221.063 439.526 221.672 438.61 222.086 437.602C222.5 436.594 222.711 435.514 222.706 434.423C222.699 433.341 222.48 432.271 222.061 431.274C221.642 430.276 221.03 429.372 220.262 428.611C219.494 427.851 218.584 427.249 217.584 426.841C216.584 426.433 215.513 426.227 214.434 426.234Z"
        fill="#2B4E8F" fill-opacity="0.15" />
    </g>
    <path d="M218.072 417.425H210.658V452.024H218.072V417.425Z" fill="#2B4E8F" fill-opacity="0.15" />
    <path d="M231.597 430.931H197.133V438.449H231.597V430.931Z" fill="#2B4E8F" fill-opacity="0.15" />
    <path d="M204.771 449.65L199.605 444.247L223.908 419.902L229.211 425.115L204.771 449.65Z"
      fill="#2B4E8F" fill-opacity="0.15" />
    <path d="M223.908 449.65L199.553 425.115L204.805 419.902L229.211 444.247L223.908 449.65Z"
      fill="#2B4E8F" fill-opacity="0.15" />
    <path
      d="M199.862 444.764L196.996 437.847L199.262 436.987L228.868 424.686L231.717 431.602L229.451 432.462L199.862 444.764Z"
      fill="#2B4E8F" fill-opacity="0.15" />
    <path d="M217.523 452.024L204.29 420.247L211.207 417.253L224.422 449.288L217.523 452.024Z"
      fill="#2B4E8F" fill-opacity="0.15" />
    <path d="M199.493 425.133L196.848 432.15L229.102 444.368L231.747 437.351L199.493 425.133Z"
      fill="#2B4E8F" fill-opacity="0.15" />
    <path d="M211.722 452.196L204.771 449.46L216.957 417.339L223.959 419.816L211.722 452.196Z"
      fill="#2B4E8F" fill-opacity="0.15" />
    <g opacity="0.1">
      <path
        d="M214.108 372.056C210.053 372.02 206.174 370.387 203.31 367.509C200.446 364.632 198.825 360.74 198.798 356.675C198.825 352.61 200.446 348.719 203.31 345.841C206.174 342.963 210.053 341.33 214.108 341.294C218.163 341.33 222.041 342.963 224.905 345.841C227.77 348.719 229.39 352.61 229.417 356.675C229.39 360.74 227.77 364.632 224.905 367.509C222.041 370.387 218.163 372.02 214.108 372.056ZM214.108 346.249C211.344 346.249 208.694 347.346 206.735 349.3C204.776 351.253 203.669 353.905 203.655 356.675C203.669 359.445 204.776 362.097 206.735 364.051C208.694 366.004 211.344 367.101 214.108 367.101C216.871 367.101 219.522 366.004 221.48 364.051C223.439 362.097 224.546 359.445 224.56 356.675C224.546 353.905 223.439 351.253 221.48 349.3C219.522 347.346 216.871 346.249 214.108 346.249Z"
        fill="#2B4E8F" fill-opacity="0.15" />
    </g>
    <g opacity="0.25">
      <path
        d="M214.108 368.976C210.862 368.958 207.754 367.655 205.463 365.351C203.171 363.047 201.879 359.928 201.87 356.674C201.875 353.417 203.164 350.294 205.456 347.987C207.749 345.679 210.859 344.374 214.108 344.355C217.359 344.369 220.474 345.673 222.77 347.981C225.066 350.289 226.357 353.414 226.362 356.674C226.353 359.931 225.059 363.052 222.764 365.357C220.468 367.661 217.356 368.962 214.108 368.976ZM214.108 349.328C213.142 349.323 212.186 349.51 211.292 349.877C210.399 350.244 209.587 350.785 208.903 351.467C208.219 352.15 207.676 352.961 207.306 353.855C206.935 354.748 206.745 355.707 206.745 356.674C206.745 357.642 206.935 358.6 207.306 359.494C207.676 360.387 208.219 361.199 208.903 361.881C209.587 362.564 210.399 363.104 211.292 363.471C212.186 363.839 213.142 364.025 214.108 364.021C215.074 364.025 216.031 363.839 216.925 363.472C217.819 363.105 218.632 362.565 219.318 361.882C220.003 361.2 220.548 360.388 220.92 359.495C221.293 358.601 221.485 357.643 221.488 356.674C221.485 355.706 221.293 354.747 220.92 353.854C220.548 352.96 220.003 352.149 219.318 351.466C218.632 350.784 217.819 350.244 216.925 349.877C216.031 349.51 215.074 349.323 214.108 349.328Z"
        fill="#2B4E8F" fill-opacity="0.15" />
    </g>
    <path d="M217.677 340.863H210.469V373.002H217.677V340.863Z" fill="#2B4E8F" fill-opacity="0.15" />
    <path d="M230.103 353.251H198.112V360.511H230.103V353.251Z" fill="#2B4E8F" fill-opacity="0.15" />
    <path d="M205.354 370.852L200.24 365.639L222.843 343.083L227.958 348.124L205.354 370.852Z"
      fill="#2B4E8F" fill-opacity="0.15" />
    <path d="M222.843 370.852L200.24 348.124L205.354 343.083L227.958 365.639L222.843 370.852Z"
      fill="#2B4E8F" fill-opacity="0.15" />
    <path
      d="M200.703 366.327L197.94 359.737L227.495 347.35L230.224 354.18L228.01 355.04L200.703 366.327Z"
      fill="#2B4E8F" fill-opacity="0.15" />
    <path d="M216.871 373.157L204.634 343.427L211.327 340.777L223.564 370.249L216.871 373.157Z"
      fill="#2B4E8F" fill-opacity="0.15" />
    <path d="M227.752 365.983L197.803 354.524L200.497 347.866L230.361 359.153L227.752 365.983Z"
      fill="#2B4E8F" fill-opacity="0.15" />
    <path d="M211.808 373.157L205.011 370.508L216.407 340.605L223.135 343.255L211.808 373.157Z"
      fill="#2B4E8F" fill-opacity="0.15" />
    <g opacity="0.1">
      <path
        d="M249.772 412.814C245.714 412.783 241.831 411.151 238.963 408.273C236.095 405.395 234.473 401.501 234.446 397.433C234.473 393.365 236.095 389.471 238.963 386.593C241.831 383.714 245.714 382.083 249.772 382.052C253.827 382.088 257.705 383.721 260.57 386.599C263.434 389.476 265.055 393.368 265.081 397.433C265.055 401.498 263.434 405.389 260.57 408.267C257.705 411.145 253.827 412.778 249.772 412.814ZM249.772 387.007C247.009 387.007 244.358 388.104 242.399 390.057C240.441 392.011 239.334 394.663 239.32 397.433C239.334 400.203 240.441 402.855 242.399 404.809C244.358 406.762 247.009 407.859 249.772 407.859C252.535 407.859 255.186 406.762 257.145 404.809C259.104 402.855 260.211 400.203 260.224 397.433C260.211 394.663 259.104 392.011 257.145 390.057C255.186 388.104 252.535 387.007 249.772 387.007Z"
        fill="#2B4E8F" fill-opacity="0.15" />
    </g>
    <g opacity="0.25">
      <path
        d="M249.772 409.734C246.525 409.721 243.415 408.419 241.122 406.114C238.829 403.809 237.539 400.688 237.535 397.433C237.539 394.176 238.829 391.053 241.121 388.746C243.413 386.438 246.523 385.132 249.772 385.114C253.021 385.132 256.131 386.438 258.423 388.746C260.716 391.053 262.005 394.176 262.009 397.433C262.005 400.688 260.715 403.809 258.422 406.114C256.129 408.419 253.019 409.721 249.772 409.734ZM249.772 390.086C248.805 390.08 247.847 390.265 246.952 390.631C246.057 390.997 245.243 391.537 244.557 392.22C243.871 392.903 243.326 393.715 242.955 394.61C242.583 395.504 242.392 396.464 242.392 397.433C242.394 398.401 242.587 399.36 242.959 400.254C243.332 401.147 243.876 401.958 244.562 402.641C245.247 403.323 246.06 403.863 246.954 404.23C247.848 404.597 248.806 404.784 249.772 404.779C250.738 404.784 251.696 404.597 252.59 404.23C253.484 403.863 254.297 403.323 254.983 402.641C255.668 401.958 256.213 401.147 256.585 400.254C256.957 399.36 257.15 398.401 257.152 397.433C257.152 396.464 256.961 395.504 256.589 394.61C256.218 393.715 255.674 392.903 254.988 392.22C254.302 391.537 253.488 390.997 252.592 390.631C251.697 390.265 250.739 390.08 249.772 390.086Z"
        fill="#2B4E8F" fill-opacity="0.15" />
    </g>
    <path d="M253.342 381.622H246.134V413.761H253.342V381.622Z" fill="#2B4E8F" fill-opacity="0.15" />
    <path d="M265.751 394.01H233.759V401.356H265.751V394.01Z" fill="#2B4E8F" fill-opacity="0.15" />
    <path d="M241.019 411.61L235.887 406.396L258.508 383.841L263.623 388.882L241.019 411.61Z"
      fill="#2B4E8F" fill-opacity="0.15" />
    <path d="M258.508 411.61L235.887 388.882L241.019 383.841L263.623 406.396L258.508 411.61Z"
      fill="#2B4E8F" fill-opacity="0.15" />
    <path
      d="M236.368 407.085L233.605 400.496L263.142 388.108L265.888 394.956L263.657 395.799L236.368 407.085Z"
      fill="#2B4E8F" fill-opacity="0.15" />
    <path d="M252.535 413.916L240.281 384.186L246.992 381.536L259.229 411.008L252.535 413.916Z"
      fill="#2B4E8F" fill-opacity="0.15" />
    <path d="M263.417 406.741L233.467 395.3L236.162 388.624L266.008 399.91L263.417 406.741Z"
      fill="#2B4E8F" fill-opacity="0.15" />
    <path d="M247.455 413.915L240.676 411.265L252.072 381.363L258.8 384.013L247.455 413.915Z"
      fill="#2B4E8F" fill-opacity="0.15" />
    <g opacity="0.1">
      <path
        d="M246.013 329.835C242.39 329.835 238.913 328.399 236.341 325.84C233.769 323.281 232.31 319.807 232.283 316.174C232.283 312.524 233.73 309.023 236.305 306.442C238.88 303.86 242.372 302.41 246.013 302.41C249.64 302.433 253.11 303.893 255.667 306.472C258.223 309.051 259.658 312.539 259.658 316.174C259.631 319.792 258.184 323.253 255.631 325.81C253.077 328.366 249.622 329.812 246.013 329.835ZM246.013 307.365C243.684 307.37 241.452 308.299 239.805 309.95C238.158 311.601 237.231 313.839 237.226 316.174C237.253 318.492 238.191 320.707 239.836 322.336C241.481 323.966 243.701 324.88 246.013 324.88C248.326 324.88 250.546 323.966 252.191 322.336C253.836 320.707 254.774 318.492 254.801 316.174C254.796 313.839 253.869 311.601 252.222 309.95C250.575 308.299 248.343 307.37 246.013 307.365Z"
        fill="#2B4E8F" fill-opacity="0.15" />
    </g>
    <g opacity="0.25">
      <path
        d="M246.013 327.186C243.106 327.177 240.321 326.013 238.269 323.949C236.216 321.885 235.063 319.089 235.063 316.175C235.059 313.257 236.209 310.458 238.262 308.39C240.315 306.322 243.103 305.156 246.013 305.146C248.925 305.156 251.715 306.322 253.77 308.389C255.826 310.456 256.981 313.256 256.981 316.175C256.981 319.092 255.826 321.89 253.769 323.955C251.713 326.019 248.924 327.181 246.013 327.186ZM246.013 310.102C245.213 310.09 244.418 310.239 243.676 310.54C242.934 310.84 242.259 311.287 241.692 311.852C241.124 312.418 240.675 313.092 240.371 313.834C240.067 314.577 239.914 315.372 239.921 316.175C239.93 317.787 240.576 319.33 241.718 320.465C242.86 321.6 244.405 322.235 246.013 322.231C247.621 322.254 249.172 321.639 250.329 320.521C251.486 319.403 252.156 317.872 252.192 316.261C252.211 315.444 252.064 314.631 251.76 313.873C251.455 313.115 251 312.427 250.422 311.851C249.844 311.275 249.155 310.822 248.397 310.522C247.639 310.221 246.828 310.078 246.013 310.102Z"
        fill="#2B4E8F" fill-opacity="0.15" />
    </g>
    <path d="M249.463 302.066H242.547V330.609H249.463V302.066Z" fill="#2B4E8F" fill-opacity="0.15" />
    <path d="M260.259 312.837H231.768V319.839H260.259V312.837Z" fill="#2B4E8F" fill-opacity="0.15" />
    <path d="M238.342 328.906L233.553 323.934L253.685 303.77L258.457 308.725L238.342 328.906Z"
      fill="#2B4E8F" fill-opacity="0.15" />
    <path
      d="M253.685 328.906L251.935 327.099L233.553 308.725L238.342 303.77L240.075 305.576L258.457 323.934L253.685 328.906Z"
      fill="#2B4E8F" fill-opacity="0.15" />
    <path d="M234.24 324.966L231.476 318.652L257.77 307.71L260.55 314.024L234.24 324.966Z"
      fill="#2B4E8F" fill-opacity="0.15" />
    <path d="M248.262 330.782L237.346 304.458L243.748 301.895L254.664 328.218L248.262 330.782Z"
      fill="#2B4E8F" fill-opacity="0.15" />
    <path d="M258.079 324.622L231.476 314.54L233.948 308.054L260.55 318.136L258.079 324.622Z"
      fill="#2B4E8F" fill-opacity="0.15" />
    <path
      d="M244.177 330.954L237.689 328.39L238.582 326.154L247.85 301.809L254.286 304.2L244.177 330.954Z"
      fill="#2B4E8F" fill-opacity="0.15" />
    <g opacity="0.1">
      <path
        d="M243.491 254.908C240.304 254.908 237.248 253.639 234.995 251.381C232.742 249.122 231.477 246.059 231.477 242.865C231.499 239.685 232.775 236.644 235.025 234.404C237.276 232.164 240.319 230.907 243.491 230.907C246.644 230.934 249.661 232.203 251.889 234.44C254.118 236.678 255.379 239.703 255.402 242.865C255.402 246.041 254.15 249.089 251.919 251.344C249.688 253.6 246.659 254.881 243.491 254.908ZM243.491 235.845C241.63 235.845 239.844 236.58 238.521 237.891C237.197 239.201 236.442 240.982 236.419 242.847C236.419 244.727 237.164 246.53 238.49 247.86C239.817 249.189 241.615 249.936 243.491 249.936C244.418 249.936 245.335 249.752 246.191 249.396C247.047 249.039 247.824 248.516 248.478 247.858C249.132 247.199 249.65 246.417 250.001 245.557C250.353 244.698 250.532 243.777 250.527 242.847C250.518 240.984 249.772 239.2 248.453 237.888C247.134 236.575 245.349 235.84 243.491 235.845Z"
        fill="#2B4E8F" fill-opacity="0.15" />
    </g>
    <g opacity="0.25">
      <path
        d="M243.491 252.602C242.22 252.597 240.963 252.342 239.791 251.85C238.619 251.358 237.556 250.639 236.662 249.734C235.767 248.83 235.06 247.758 234.579 246.579C234.099 245.4 233.855 244.137 233.862 242.864C233.866 240.305 234.882 237.853 236.687 236.044C238.492 234.235 240.938 233.216 243.491 233.212C246.046 233.212 248.496 234.228 250.305 236.038C252.113 237.848 253.132 240.302 253.136 242.864C253.143 244.139 252.898 245.403 252.417 246.583C251.935 247.763 251.226 248.836 250.33 249.741C249.434 250.645 248.369 251.364 247.195 251.855C246.021 252.346 244.762 252.6 243.491 252.602ZM243.491 238.167C242.869 238.158 242.251 238.272 241.674 238.504C241.096 238.736 240.571 239.08 240.127 239.517C239.683 239.954 239.33 240.475 239.089 241.049C238.847 241.624 238.721 242.24 238.719 242.864C238.719 244.134 239.221 245.352 240.116 246.252C241.01 247.152 242.224 247.66 243.491 247.664C244.76 247.664 245.978 247.158 246.876 246.258C247.774 245.358 248.279 244.137 248.279 242.864C248.279 242.237 248.154 241.617 247.913 241.04C247.671 240.462 247.317 239.939 246.871 239.5C246.426 239.061 245.897 238.715 245.316 238.484C244.736 238.252 244.115 238.138 243.491 238.15V238.167Z"
        fill="#2B4E8F" fill-opacity="0.15" />
    </g>
    <path d="M246.769 230.546H240.212V255.493H246.769V230.546Z" fill="#2B4E8F" fill-opacity="0.15" />
    <path d="M255.899 239.682H231.082V246.443H255.899V239.682Z" fill="#2B4E8F" fill-opacity="0.15" />
    <path
      d="M237.089 254.134L232.317 249.506L234.102 247.803L249.892 231.991L254.664 236.619L252.879 238.323L237.089 254.134Z"
      fill="#2B4E8F" fill-opacity="0.15" />
    <path d="M249.892 254.134L232.317 236.619L237.089 231.991L254.664 249.506L249.892 254.134Z"
      fill="#2B4E8F" fill-opacity="0.15" />
    <path
      d="M233.21 250.967L230.773 244.739L232.987 243.879L253.685 235.242L256.243 241.316L233.21 250.967Z"
      fill="#2B4E8F" fill-opacity="0.15" />
    <path d="M245.155 255.751L235.647 232.766L241.826 230.374L251.334 253.36L245.155 255.751Z"
      fill="#2B4E8F" fill-opacity="0.15" />
    <path d="M253.891 250.538L230.738 241.746L232.987 235.501L256.328 244.379L253.891 250.538Z"
      fill="#2B4E8F" fill-opacity="0.15" />
    <path d="M242.169 255.836L235.99 253.531L244.812 230.287L251.008 232.593L242.169 255.836Z"
      fill="#2B4E8F" fill-opacity="0.15" />
    <g opacity="0.1">
      <path
        d="M185.257 254.633C183.685 254.631 182.13 254.317 180.68 253.709C179.23 253.102 177.914 252.212 176.809 251.093C175.703 249.973 174.829 248.646 174.238 247.186C173.647 245.727 173.349 244.165 173.363 242.589C173.363 239.416 174.612 236.371 176.839 234.116C179.066 231.86 182.091 230.578 185.257 230.546C188.443 230.546 191.499 231.815 193.752 234.073C196.005 236.332 197.271 239.395 197.271 242.589C197.271 245.783 196.005 248.847 193.752 251.105C191.499 253.364 188.443 254.633 185.257 254.633ZM185.257 235.707C183.399 235.707 181.617 236.443 180.299 237.755C178.981 239.067 178.234 240.848 178.22 242.71C178.229 244.575 178.974 246.36 180.293 247.675C181.612 248.991 183.396 249.729 185.257 249.729C187.123 249.734 188.916 248.999 190.244 247.684C191.571 246.369 192.327 244.581 192.345 242.71C192.331 240.836 191.578 239.043 190.25 237.725C188.921 236.406 187.126 235.668 185.257 235.673V235.707Z"
        fill="#2B4E8F" fill-opacity="0.15" />
    </g>
    <g opacity="0.25">
      <path
        d="M185.257 252.413C183.986 252.409 182.729 252.153 181.558 251.661C180.386 251.169 179.322 250.45 178.428 249.546C177.534 248.641 176.826 247.569 176.346 246.39C175.865 245.211 175.621 243.949 175.628 242.675C175.637 240.118 176.655 237.669 178.458 235.86C180.262 234.052 182.706 233.033 185.257 233.023C187.815 233.028 190.269 234.044 192.084 235.851C193.9 237.658 194.931 240.111 194.954 242.675C194.954 245.255 193.932 247.729 192.114 249.555C190.296 251.381 187.83 252.409 185.257 252.413ZM185.257 237.978C184.633 237.965 184.014 238.076 183.435 238.306C182.855 238.536 182.327 238.88 181.883 239.318C181.438 239.756 181.085 240.279 180.845 240.855C180.605 241.432 180.483 242.051 180.485 242.675C180.485 243.303 180.609 243.924 180.849 244.503C181.089 245.083 181.44 245.609 181.884 246.051C182.327 246.494 182.853 246.845 183.432 247.083C184.011 247.322 184.631 247.443 185.257 247.441C186.528 247.446 187.75 246.945 188.654 246.049C189.558 245.152 190.07 243.933 190.079 242.658C190.075 242.032 189.946 241.413 189.7 240.837C189.454 240.261 189.097 239.74 188.647 239.304C188.198 238.868 187.667 238.527 187.085 238.299C186.503 238.071 185.881 237.962 185.257 237.978Z"
        fill="#2B4E8F" fill-opacity="0.15" />
    </g>
    <path d="M188.586 230.374H181.979V255.321H188.586V230.374Z" fill="#2B4E8F" fill-opacity="0.15" />
    <path d="M197.683 239.51H172.865V246.185H197.683V239.51Z" fill="#2B4E8F" fill-opacity="0.15" />
    <path d="M178.838 253.961L174.187 249.35L191.761 231.646L196.361 236.429L178.838 253.961Z"
      fill="#2B4E8F" fill-opacity="0.15" />
    <path d="M191.676 253.961L174.221 236.515L178.786 231.646L196.447 249.35L191.676 253.961Z"
      fill="#2B4E8F" fill-opacity="0.15" />
    <path
      d="M175.079 250.624L172.556 244.636L195.554 234.984L197.992 241.23L195.76 242.073L175.079 250.624Z"
      fill="#2B4E8F" fill-opacity="0.15" />
    <path d="M186.973 255.665L177.465 232.679L183.609 230.029L193.117 253.015L186.973 255.665Z"
      fill="#2B4E8F" fill-opacity="0.15" />
    <path d="M195.76 250.365L172.556 241.556L174.822 235.328L198.026 244.12L195.76 250.365Z"
      fill="#2B4E8F" fill-opacity="0.15" />
    <path d="M183.952 255.665L177.774 253.359L186.595 229.943L192.74 232.507L183.952 255.665Z"
      fill="#2B4E8F" fill-opacity="0.15" />
    <g opacity="0.1">
      <path
        d="M183.231 328.734C179.688 328.72 176.295 327.301 173.793 324.786C171.29 322.272 169.883 318.866 169.879 315.314C169.883 311.762 171.29 308.357 173.793 305.842C176.295 303.328 179.688 301.908 183.231 301.895C186.778 301.908 190.175 303.326 192.682 305.84C195.19 308.354 196.605 311.759 196.619 315.314C196.605 318.869 195.19 322.275 192.682 324.788C190.175 327.302 186.778 328.721 183.231 328.734ZM183.231 306.85C182.112 306.834 181 307.041 179.96 307.459C178.921 307.877 177.975 308.497 177.177 309.285C176.379 310.072 175.744 311.011 175.31 312.046C174.877 313.081 174.652 314.192 174.65 315.314C174.652 316.437 174.877 317.548 175.31 318.583C175.744 319.618 176.379 320.557 177.177 321.344C177.975 322.131 178.921 322.752 179.96 323.17C181 323.588 182.112 323.795 183.231 323.779C185.484 323.779 187.646 322.892 189.251 321.308C190.857 319.725 191.777 317.572 191.813 315.314C191.777 313.057 190.857 310.904 189.251 309.32C187.646 307.737 185.484 306.849 183.231 306.85Z"
        fill="#2B4E8F" fill-opacity="0.15" />
    </g>
    <g opacity="0.25">
      <path
        d="M183.231 326.085C180.385 326.075 177.657 324.938 175.644 322.92C173.631 320.902 172.497 318.168 172.488 315.314C172.497 312.461 173.631 309.726 175.644 307.709C177.657 305.691 180.385 304.553 183.231 304.544C186.081 304.548 188.813 305.684 190.83 307.703C192.846 309.721 193.983 312.458 193.993 315.314C193.983 318.171 192.846 320.908 190.83 322.926C188.813 324.944 186.081 326.08 183.231 326.085ZM183.231 309.499C182.463 309.49 181.7 309.634 180.988 309.922C180.275 310.209 179.626 310.636 179.079 311.177C178.532 311.717 178.096 312.361 177.799 313.072C177.501 313.782 177.347 314.544 177.345 315.314C177.347 316.085 177.501 316.847 177.799 317.557C178.096 318.267 178.532 318.911 179.079 319.452C179.626 319.993 180.275 320.419 180.988 320.707C181.7 320.995 182.463 321.139 183.231 321.129C184 321.141 184.764 320.999 185.478 320.712C186.191 320.425 186.841 319.998 187.389 319.457C187.937 318.916 188.372 318.271 188.669 317.56C188.966 316.849 189.118 316.085 189.118 315.314C189.118 314.543 188.966 313.78 188.669 313.069C188.372 312.358 187.937 311.713 187.389 311.172C186.841 310.63 186.191 310.204 185.478 309.917C184.764 309.63 184 309.488 183.231 309.499Z"
        fill="#2B4E8F" fill-opacity="0.15" />
    </g>
    <path d="M186.698 301.55H179.816V329.491H186.698V301.55Z" fill="#2B4E8F" fill-opacity="0.15" />
    <path d="M197.168 312.062H169.312V318.979H197.168V312.062Z" fill="#2B4E8F" fill-opacity="0.15" />
    <path
      d="M175.766 327.874L170.994 322.919L190.611 303.254L195.554 308.054L193.804 309.757L175.766 327.874Z"
      fill="#2B4E8F" fill-opacity="0.15" />
    <path
      d="M190.697 327.874L170.908 308.054L175.834 303.254L177.516 304.974L195.469 322.919L190.697 327.874Z"
      fill="#2B4E8F" fill-opacity="0.15" />
    <path
      d="M171.629 324.106L169.106 317.62L171.32 316.759L194.782 307.021L197.425 313.422L195.16 314.282L171.629 324.106Z"
      fill="#2B4E8F" fill-opacity="0.15" />
    <path d="M185.394 329.749L174.701 303.855L181.138 301.464L191.761 327.013L185.394 329.749Z"
      fill="#2B4E8F" fill-opacity="0.15" />
    <path d="M195.04 323.675L168.969 313.851L171.44 307.365L197.511 317.189L195.04 323.675Z"
      fill="#2B4E8F" fill-opacity="0.15" />
    <path
      d="M181.429 329.921L175.113 327.272L184.965 301.12L191.367 303.77L190.56 305.989L181.429 329.921Z"
      fill="#2B4E8F" fill-opacity="0.15" />
    <g opacity="0.1">
      <path
        d="M179.73 411.369C175.561 411.351 171.568 409.676 168.628 406.712C165.687 403.749 164.039 399.737 164.043 395.557C164.052 391.39 165.708 387.395 168.648 384.448C171.588 381.501 175.573 379.841 179.73 379.832C183.885 379.841 187.866 381.502 190.8 384.45C193.735 387.398 195.383 391.393 195.383 395.557C195.397 399.734 193.756 403.746 190.821 406.71C187.886 409.675 183.897 411.351 179.73 411.369ZM179.73 384.787C178.313 384.778 176.907 385.05 175.595 385.587C174.283 386.124 173.089 386.915 172.083 387.916C171.076 388.917 170.277 390.107 169.731 391.418C169.185 392.73 168.903 394.136 168.9 395.557C168.905 398.434 170.048 401.191 172.078 403.223C174.109 405.255 176.861 406.397 179.73 406.396C182.594 406.387 185.337 405.242 187.36 403.211C189.383 401.179 190.521 398.428 190.526 395.557C190.523 394.139 190.242 392.735 189.698 391.426C189.154 390.117 188.358 388.929 187.356 387.929C186.353 386.928 185.163 386.136 183.855 385.597C182.546 385.058 181.145 384.783 179.73 384.787Z"
        fill="#2B4E8F" fill-opacity="0.15" />
    </g>
    <g opacity="0.25">
      <path
        d="M179.73 408.204C176.401 408.176 173.217 406.833 170.871 404.465C168.524 402.097 167.206 398.896 167.201 395.558C167.206 392.227 168.527 389.033 170.875 386.676C173.223 384.319 176.407 382.991 179.73 382.981C181.375 382.984 183.003 383.311 184.521 383.944C186.039 384.578 187.418 385.505 188.578 386.673C189.739 387.841 190.658 389.227 191.284 390.752C191.91 392.276 192.229 393.91 192.225 395.558C192.234 398.894 190.924 402.098 188.583 404.468C186.241 406.838 183.058 408.181 179.73 408.204ZM179.73 387.954C177.708 387.945 175.764 388.74 174.326 390.166C172.887 391.591 172.072 393.531 172.058 395.558C172.058 396.568 172.257 397.568 172.642 398.501C173.028 399.434 173.593 400.282 174.305 400.996C175.018 401.71 175.864 402.277 176.794 402.663C177.725 403.05 178.723 403.249 179.73 403.249C180.736 403.249 181.732 403.05 182.661 402.663C183.59 402.276 184.433 401.709 185.143 400.994C185.853 400.279 186.414 399.431 186.796 398.499C187.178 397.566 187.372 396.566 187.368 395.558C187.365 394.556 187.166 393.564 186.781 392.639C186.396 391.714 185.832 390.874 185.123 390.168C184.413 389.461 183.572 388.902 182.646 388.522C181.721 388.142 180.73 387.949 179.73 387.954Z"
        fill="#2B4E8F" fill-opacity="0.15" />
    </g>
    <path d="M183.352 379.402H176.057V412.298H183.352V379.402Z" fill="#2B4E8F" fill-opacity="0.15" />
    <path d="M196.069 392.134H163.357V399.48H196.069V392.134Z" fill="#2B4E8F" fill-opacity="0.15" />
    <path
      d="M170.685 409.993L165.519 404.866L167.27 403.145L188.724 381.708L193.89 386.835L192.139 388.538L170.685 409.993Z"
      fill="#2B4E8F" fill-opacity="0.15" />
    <path d="M188.724 409.993L165.519 386.835L170.685 381.708L193.89 404.866L188.724 409.993Z"
      fill="#2B4E8F" fill-opacity="0.15" />
    <path
      d="M165.948 405.468L163.219 398.706L165.433 397.863L193.461 386.146L196.189 392.977L193.975 393.837L165.948 405.468Z"
      fill="#2B4E8F" fill-opacity="0.15" />
    <path d="M182.631 412.47L170.05 382.138L176.778 379.23L189.359 409.563L182.631 412.47Z"
      fill="#2B4E8F" fill-opacity="0.15" />
    <path
      d="M193.752 405.124L191.452 404.264L163.099 393.321L165.691 386.577L196.275 398.19L193.752 405.124Z"
      fill="#2B4E8F" fill-opacity="0.15" />
    <path d="M177.293 412.47L170.479 409.907L182.116 379.23L188.93 381.794L177.293 412.47Z"
      fill="#2B4E8F" fill-opacity="0.15" />
    <g opacity="0.1">
      <path
        d="M214.108 290.453C210.49 290.416 207.033 288.95 204.487 286.373C201.942 283.796 200.514 280.315 200.515 276.689C200.514 273.062 201.942 269.582 204.487 267.004C207.033 264.427 210.49 262.961 214.108 262.925C217.728 262.957 221.19 264.421 223.739 266.999C226.288 269.576 227.718 273.059 227.718 276.689C227.718 280.318 226.288 283.801 223.739 286.379C221.19 288.957 217.728 290.421 214.108 290.453ZM214.108 268.086C211.8 268.086 209.585 269.002 207.949 270.633C206.312 272.264 205.385 274.478 205.372 276.792C205.381 279.109 206.305 281.327 207.942 282.962C209.58 284.597 211.797 285.515 214.108 285.515C216.42 285.515 218.639 284.597 220.279 282.963C221.919 281.329 222.847 279.11 222.861 276.792C222.847 274.475 221.918 272.259 220.278 270.627C218.637 268.995 216.419 268.082 214.108 268.086Z"
        fill="#2B4E8F" fill-opacity="0.15" />
    </g>
    <g opacity="0.25">
      <path
        d="M214.108 287.786C211.205 287.773 208.426 286.606 206.38 284.542C204.334 282.478 203.187 279.685 203.192 276.776C203.205 273.878 204.36 271.102 206.404 269.053C208.448 267.004 211.217 265.847 214.108 265.833C217 265.842 219.771 266.998 221.816 269.048C223.861 271.098 225.014 273.876 225.023 276.776C225.028 278.217 224.749 279.645 224.203 280.979C223.657 282.312 222.854 283.525 221.84 284.547C220.827 285.57 219.622 286.382 218.295 286.938C216.969 287.494 215.546 287.782 214.108 287.786ZM214.108 270.788C213.317 270.781 212.533 270.931 211.801 271.228C211.068 271.526 210.402 271.965 209.839 272.521C209.276 273.078 208.828 273.74 208.521 274.47C208.214 275.2 208.054 275.983 208.049 276.776C208.054 278.385 208.693 279.927 209.828 281.065C210.964 282.203 212.502 282.844 214.108 282.849C215.713 282.844 217.251 282.203 218.387 281.065C219.522 279.927 220.161 278.385 220.166 276.776C220.162 275.983 220.001 275.2 219.694 274.47C219.387 273.74 218.939 273.078 218.376 272.521C217.814 271.965 217.147 271.526 216.414 271.228C215.682 270.931 214.898 270.781 214.108 270.788Z"
        fill="#2B4E8F" fill-opacity="0.15" />
    </g>
    <path d="M217.574 262.753H210.658V291.21H217.574V262.753Z" fill="#2B4E8F" fill-opacity="0.15" />
    <path d="M228.267 273.523H199.897V280.44H228.267V273.523Z" fill="#2B4E8F" fill-opacity="0.15" />
    <path d="M206.556 289.42L201.561 284.723L221.728 264.456L226.516 269.428L206.556 289.42Z"
      fill="#2B4E8F" fill-opacity="0.15" />
    <path
      d="M221.642 289.42L219.994 287.717L201.613 269.428L206.504 264.456L226.602 284.637L221.642 289.42Z"
      fill="#2B4E8F" fill-opacity="0.15" />
    <path
      d="M202.368 285.584L199.605 279.253L225.881 268.396L228.524 274.797L226.259 275.657L202.368 285.584Z"
      fill="#2B4E8F" fill-opacity="0.15" />
    <path d="M216.322 291.382L205.44 265.162L211.842 262.599L222.723 288.819L216.322 291.382Z"
      fill="#2B4E8F" fill-opacity="0.15" />
    <path d="M226.173 285.309L199.605 275.226L202.076 268.74L228.576 278.736L226.173 285.309Z"
      fill="#2B4E8F" fill-opacity="0.15" />
    <path d="M212.271 291.64L205.869 288.991L215.858 262.599L222.38 264.887L212.271 291.64Z"
      fill="#2B4E8F" fill-opacity="0.15" />
    <g opacity="0.1">
      <path
        d="M214.108 223.887C210.821 223.865 207.676 222.541 205.358 220.205C203.04 217.868 201.737 214.709 201.733 211.414C201.738 208.125 203.043 204.973 205.363 202.647C207.682 200.322 210.827 199.013 214.108 199.009C217.39 199.009 220.537 200.316 222.858 202.642C225.178 204.968 226.482 208.124 226.482 211.414C226.482 214.71 225.18 217.872 222.862 220.21C220.543 222.547 217.396 223.869 214.108 223.887ZM214.108 203.964C213.127 203.959 212.155 204.148 211.248 204.52C210.34 204.892 209.515 205.44 208.818 206.132C208.122 206.823 207.568 207.646 207.189 208.552C206.809 209.458 206.612 210.431 206.607 211.414C206.605 212.401 206.798 213.379 207.174 214.291C207.55 215.203 208.103 216.032 208.8 216.729C209.497 217.426 210.325 217.978 211.236 218.353C212.147 218.729 213.123 218.92 214.108 218.915C215.093 218.92 216.07 218.729 216.982 218.354C217.894 217.979 218.722 217.427 219.421 216.73C220.119 216.033 220.674 215.205 221.052 214.292C221.43 213.38 221.625 212.402 221.625 211.414C221.611 209.427 220.812 207.527 219.403 206.131C217.994 204.734 216.089 203.955 214.108 203.964Z"
        fill="#2B4E8F" fill-opacity="0.15" />
    </g>
    <g opacity="0.25">
      <path
        d="M214.108 221.479C211.455 221.465 208.916 220.398 207.047 218.511C205.178 216.625 204.131 214.073 204.136 211.414C204.145 208.764 205.198 206.225 207.065 204.349C208.933 202.474 211.464 201.414 214.108 201.4C216.754 201.409 219.289 202.467 221.161 204.343C223.032 206.219 224.087 208.761 224.096 211.414C224.101 214.076 223.052 216.63 221.179 218.517C219.306 220.405 216.763 221.469 214.108 221.479ZM214.108 206.373C213.437 206.357 212.77 206.475 212.146 206.721C211.522 206.967 210.953 207.336 210.474 207.806C209.994 208.276 209.613 208.837 209.353 209.456C209.092 210.076 208.959 210.742 208.959 211.414C208.959 212.783 209.501 214.095 210.467 215.063C211.432 216.031 212.742 216.575 214.108 216.575C215.473 216.575 216.783 216.031 217.748 215.063C218.714 214.095 219.257 212.783 219.257 211.414C219.257 210.742 219.123 210.076 218.862 209.456C218.602 208.837 218.221 208.276 217.741 207.806C217.262 207.336 216.693 206.967 216.069 206.721C215.445 206.475 214.778 206.357 214.108 206.373Z"
        fill="#2B4E8F" fill-opacity="0.15" />
    </g>
    <path d="M217.437 198.665H210.778V224.558H217.437V198.665Z" fill="#2B4E8F" fill-opacity="0.15" />
    <path d="M226.997 208.248H201.235V214.992H226.997V208.248Z" fill="#2B4E8F" fill-opacity="0.15" />
    <path d="M207.363 223.027L202.626 218.33L220.853 200.127L225.572 204.824L207.363 223.027Z"
      fill="#2B4E8F" fill-opacity="0.15" />
    <path d="M220.853 223.027L202.626 204.824L207.363 200.127L225.572 218.33L220.853 223.027Z"
      fill="#2B4E8F" fill-opacity="0.15" />
    <path d="M203.484 219.603L200.926 213.53L224.731 203.62L227.289 209.693L203.484 219.603Z"
      fill="#2B4E8F" fill-opacity="0.15" />
    <path d="M215.978 224.988L206.092 200.901L212.271 198.424L222.071 222.081L215.978 224.988Z"
      fill="#2B4E8F" fill-opacity="0.15" />
    <path d="M203.456 203.861L201.064 210.184L225.119 219.329L227.511 213.007L203.456 203.861Z"
      fill="#2B4E8F" fill-opacity="0.15" />
    <path d="M212.649 224.902L206.384 222.424L215.549 198.234L221.728 200.815L212.649 224.902Z"
      fill="#2B4E8F" fill-opacity="0.15" />
    <path
      d="M355.719 559.521H70.7113L71.2262 556.63L86.0377 467.423H340.392L340.701 469.47L355.719 559.521ZM76.5121 554.583H349.918L336.187 472.378H90.174L76.5121 554.583Z"
      fill="#2B4E8F" fill-opacity="0.15" />
    <path
      d="M430.017 683H9.91821e-05L0.515071 680.092L22.5692 547.322H407.448L407.74 549.37L430.017 683ZM5.80097 678.045H424.216L403.277 552.26H26.7397L5.80097 678.045Z"
      fill="#2B4E8F" fill-opacity="0.15" />
    <path
      d="M236.625 552.26H192.705V485.952H236.625V552.26ZM197.563 547.322H231.768V490.907H197.563V547.322Z"
      fill="#2B4E8F" fill-opacity="0.15" />
    <path
      d="M230.189 552.26H198.541V510.228C198.55 506.029 200.222 502.004 203.189 499.04C206.156 496.075 210.176 494.412 214.365 494.417C216.44 494.413 218.495 494.818 220.414 495.61C222.333 496.403 224.077 497.566 225.546 499.035C227.016 500.503 228.182 502.248 228.979 504.168C229.776 506.089 230.187 508.148 230.189 510.228V552.26ZM203.415 547.322H225.332V510.228C225.323 508.794 225.032 507.375 224.476 506.053C223.92 504.731 223.11 503.531 222.092 502.523C221.073 501.515 219.867 500.718 218.541 500.177C217.215 499.637 215.796 499.363 214.365 499.372C212.934 499.363 211.516 499.637 210.192 500.177C208.867 500.718 207.662 501.516 206.645 502.524C205.627 503.533 204.819 504.732 204.265 506.054C203.711 507.376 203.422 508.794 203.415 510.228V547.322Z"
      fill="#2B4E8F" fill-opacity="0.15" />
    <g opacity="0.1">
      <path
        d="M212.065 552.26H198.712V510.228C198.721 506.029 200.393 502.004 203.36 499.04C206.327 496.075 210.347 494.412 214.537 494.417C216.998 494.428 219.423 495.011 221.621 496.122C223.82 497.233 225.73 498.84 227.203 500.817L230.635 505.359L224.955 504.671C224.319 504.671 223.719 504.671 223.049 504.671C221.612 504.664 220.187 504.942 218.856 505.489C217.526 506.036 216.317 506.841 215.298 507.858C214.279 508.874 213.47 510.083 212.918 511.414C212.366 512.745 212.082 514.172 212.082 515.613L212.065 552.26ZM203.57 547.322H207.208V515.527C207.211 512.053 208.351 508.675 210.453 505.913C212.555 503.15 215.503 501.155 218.844 500.232C217.485 499.643 216.017 499.35 214.537 499.372C213.106 499.363 211.687 499.637 210.361 500.177C209.035 500.718 207.828 501.515 206.81 502.523C205.792 503.531 204.981 504.731 204.425 506.053C203.869 507.375 203.579 508.793 203.57 510.228V547.322Z"
        fill="#2B4E8F" fill-opacity="0.15" />
    </g>
    <path
      d="M236.625 683H192.705V616.778H236.625V683ZM197.563 678.045H231.768V621.733H197.563V678.045Z"
      fill="#2B4E8F" fill-opacity="0.15" />
    <path
      d="M230.189 683H198.541V641.055C198.545 636.846 200.213 632.81 203.178 629.831C206.144 626.851 210.166 625.171 214.365 625.157C218.563 625.171 222.586 626.851 225.551 629.831C228.517 632.81 230.185 636.846 230.189 641.055V683ZM203.415 678.045H225.332V641.055C225.332 639.613 225.048 638.186 224.496 636.855C223.945 635.524 223.136 634.316 222.117 633.299C221.098 632.282 219.888 631.477 218.558 630.93C217.228 630.383 215.803 630.105 214.365 630.112C212.928 630.105 211.504 630.383 210.175 630.93C208.845 631.478 207.637 632.283 206.619 633.3C205.601 634.317 204.794 635.526 204.245 636.856C203.695 638.187 203.413 639.614 203.415 641.055V678.045Z"
      fill="#2B4E8F" fill-opacity="0.15" />
    <g opacity="0.1">
      <path
        d="M212.065 683H198.712V641.055C198.717 636.846 200.384 632.81 203.35 629.831C206.316 626.851 210.338 625.171 214.537 625.157C217.01 625.151 219.45 625.735 221.653 626.863C223.856 627.992 225.758 629.63 227.203 631.644L231.133 637.046L224.68 635.497C224.121 635.348 223.541 635.29 222.964 635.325C221.526 635.318 220.101 635.597 218.771 636.143C217.44 636.69 216.231 637.495 215.212 638.512C214.193 639.529 213.384 640.737 212.832 642.068C212.281 643.399 211.996 644.826 211.996 646.268L212.065 683ZM203.57 678.045H207.208V646.268C207.214 642.794 208.355 639.418 210.457 636.655C212.558 633.893 215.504 631.897 218.844 630.973C217.485 630.386 216.017 630.093 214.537 630.112C213.099 630.106 211.674 630.383 210.344 630.93C209.013 631.477 207.804 632.282 206.785 633.299C205.766 634.316 204.957 635.524 204.405 636.855C203.854 638.186 203.57 639.613 203.57 641.055V678.045Z"
        fill="#2B4E8F" fill-opacity="0.15" />
    </g>
    <path
      d="M103.904 472.378H91.5815V450.321H103.904V472.378ZM96.4385 467.423H99.0301V455.276H96.4385V467.423Z"
      fill="#2B4E8F" fill-opacity="0.15" />
    <path d="M111.988 454.071H102.823V472.36H111.988V454.071Z" fill="#2B4E8F" fill-opacity="0.15" />
    <path d="M119.248 454.071H110.083V472.36H119.248V454.071Z" fill="#2B4E8F" fill-opacity="0.15" />
    <path d="M126.491 454.071H117.326V472.36H126.491V454.071Z" fill="#2B4E8F" fill-opacity="0.15" />
    <path d="M133.751 454.071H124.586V472.36H133.751V454.071Z" fill="#2B4E8F" fill-opacity="0.15" />
    <path d="M207.757 454.071H198.541V472.36H207.757V454.071Z" fill="#2B4E8F" fill-opacity="0.15" />
    <path d="M215 454.071H205.784V472.36H215V454.071Z" fill="#2B4E8F" fill-opacity="0.15" />
    <path d="M222.26 454.071H213.043V472.36H222.26V454.071Z" fill="#2B4E8F" fill-opacity="0.15" />
    <path d="M229.503 454.071H220.286V472.36H229.503V454.071Z" fill="#2B4E8F" fill-opacity="0.15" />
    <path d="M303.492 454.071H294.327V472.36H303.492V454.071Z" fill="#2B4E8F" fill-opacity="0.15" />
    <path d="M310.803 454.071H301.587V472.36H310.803V454.071Z" fill="#2B4E8F" fill-opacity="0.15" />
    <path d="M318.046 454.071H308.83V472.36H318.046V454.071Z" fill="#2B4E8F" fill-opacity="0.15" />
    <path d="M325.306 454.071H316.09V472.36H325.306V454.071Z" fill="#2B4E8F" fill-opacity="0.15" />
    <path d="M248.725 454.071H239.56V472.36H248.725V454.071Z" fill="#2B4E8F" fill-opacity="0.15" />
    <path d="M255.985 454.071H246.82V472.36H255.985V454.071Z" fill="#2B4E8F" fill-opacity="0.15" />
    <path d="M263.228 454.071H254.063V472.36H263.228V454.071Z" fill="#2B4E8F" fill-opacity="0.15" />
    <path d="M270.488 454.071H261.323V472.36H270.488V454.071Z" fill="#2B4E8F" fill-opacity="0.15" />
    <path d="M277.731 454.071H268.566V472.36H277.731V454.071Z" fill="#2B4E8F" fill-opacity="0.15" />
    <path d="M284.99 454.071H275.825V472.36H284.99V454.071Z" fill="#2B4E8F" fill-opacity="0.15" />
    <path d="M152.338 454.071H143.173V472.36H152.338V454.071Z" fill="#2B4E8F" fill-opacity="0.15" />
    <path d="M159.581 454.071H150.416V472.36H159.581V454.071Z" fill="#2B4E8F" fill-opacity="0.15" />
    <path d="M166.841 454.071H157.676V472.36H166.841V454.071Z" fill="#2B4E8F" fill-opacity="0.15" />
    <path d="M174.084 454.071H164.919V472.36H174.084V454.071Z" fill="#2B4E8F" fill-opacity="0.15" />
    <g opacity="0.2">
      <path
        d="M396.241 549.954H31.185V537.48H396.241V549.954ZM36.0423 544.999H391.315V542.435H36.0423V544.999Z"
        fill="#2B4E8F" fill-opacity="0.15" />
    </g>
    <path d="M181.343 454.071H172.178V472.36H181.343V454.071Z" fill="#2B4E8F" fill-opacity="0.15" />
    <path d="M188.603 454.071H179.438V472.36H188.603V454.071Z" fill="#2B4E8F" fill-opacity="0.15" />
    <path
      d="M143.946 472.378H131.623V450.321H143.946V472.378ZM136.497 467.423H139.088V455.276H136.497V467.423Z"
      fill="#2B4E8F" fill-opacity="0.15" />
    <path
      d="M341.851 462.795H85.6086V450.321H341.851V462.795ZM90.4658 457.84H336.994V455.276H90.4658V457.84Z"
      fill="#2B4E8F" fill-opacity="0.15" />
    <path d="M342.109 464.326H85.2998V472.361H342.109V464.326Z" fill="#2B4E8F" fill-opacity="0.15" />
    <path
      d="M295.322 472.378H283.085V450.321H295.408L295.322 472.378ZM287.857 467.423H290.448V455.276H287.857V467.423Z"
      fill="#2B4E8F" fill-opacity="0.15" />
    <path
      d="M336.651 472.378H324.276V450.321H336.616L336.651 472.378ZM329.185 467.423H331.794V455.276H329.185V467.423Z"
      fill="#2B4E8F" fill-opacity="0.15" />
    <path
      d="M200.206 472.378H187.831V450.321H200.206V472.378ZM192.705 467.423H195.348V455.276H192.705V467.423Z"
      fill="#2B4E8F" fill-opacity="0.15" />
    <path
      d="M240.899 472.378H228.524V450.321H240.899V472.378ZM233.382 467.423H236.042V455.276H233.313L233.382 467.423Z"
      fill="#2B4E8F" fill-opacity="0.15" />
    <path
      d="M83.9954 552.26H70.265V530.221H83.9954V552.26ZM75.1738 547.322H79.1381V535.176H75.1738V547.322Z"
      fill="#2B4E8F" fill-opacity="0.15" />
    <path
      d="M40.47 552.26H26.7397V530.221H40.47V552.26ZM31.6484 547.322H35.6132V535.176H31.6484V547.322Z"
      fill="#2B4E8F" fill-opacity="0.15" />
    <path
      d="M93.5037 552.26H83.5663V533.972H93.5037V552.26ZM88.3548 547.323H88.5608L88.3548 538.944V547.323Z"
      fill="#2B4E8F" fill-opacity="0.15" />
    <path
      d="M102.068 552.26H92.0962V533.972H102.068V552.26ZM96.9191 547.323H97.1594L96.9191 538.944V547.323Z"
      fill="#2B4E8F" fill-opacity="0.15" />
    <path
      d="M110.598 552.26H100.66V533.972H110.598V552.26ZM105.449 547.323H105.672L105.449 538.944V547.323Z"
      fill="#2B4E8F" fill-opacity="0.15" />
    <path
      d="M119.128 552.26H109.191V533.972H119.128V552.26ZM113.979 547.323H114.202L113.979 538.944V547.323Z"
      fill="#2B4E8F" fill-opacity="0.15" />
    <path
      d="M47.5585 552.26H37.6555V533.972H47.5929L47.5585 552.26ZM42.4096 547.323H42.6325L42.4096 538.944V547.323Z"
      fill="#2B4E8F" fill-opacity="0.15" />
    <path
      d="M56.0884 552.26H46.2369V533.972H56.1743L56.0884 552.26ZM50.9395 547.323H51.1629L50.9395 538.944V547.323Z"
      fill="#2B4E8F" fill-opacity="0.15" />
    <path
      d="M64.6184 552.26H54.681V533.972H64.6184V552.26ZM59.4695 547.323H59.6928L59.4695 538.944V547.323Z"
      fill="#2B4E8F" fill-opacity="0.15" />
    <path
      d="M73.1483 552.26H63.2109V533.972H73.1483V552.26ZM67.9994 547.323H68.2227L67.9994 538.944V547.323Z"
      fill="#2B4E8F" fill-opacity="0.15" />
    <path
      d="M365.141 552.26H355.17V533.972H365.107L365.141 552.26ZM359.993 547.323H360.216L359.993 538.944V547.323Z"
      fill="#2B4E8F" fill-opacity="0.15" />
    <path
      d="M373.671 552.26H363.751V533.972H373.689L373.671 552.26ZM368.523 547.323H368.746L368.523 538.944V547.323Z"
      fill="#2B4E8F" fill-opacity="0.15" />
    <path
      d="M382.201 552.26H372.333V533.972H382.27L382.201 552.26ZM377.052 547.323H377.276L377.052 538.944V547.323Z"
      fill="#2B4E8F" fill-opacity="0.15" />
    <path
      d="M390.731 552.26H380.794V533.972H390.731V552.26ZM385.582 547.323H385.805L385.582 538.944V547.323Z"
      fill="#2B4E8F" fill-opacity="0.15" />
    <path
      d="M206.264 552.26H196.275V533.972H206.264V552.26ZM201.115 547.323H201.373L201.115 538.944V547.323Z"
      fill="#2B4E8F" fill-opacity="0.15" />
    <path
      d="M214.794 552.26H204.857V533.972H214.794V552.26ZM209.645 547.323H209.868L209.645 538.944V547.323Z"
      fill="#2B4E8F" fill-opacity="0.15" />
    <path
      d="M223.324 552.26H213.387V533.972H223.324V552.26ZM218.175 547.323H218.398L218.175 538.944V547.323Z"
      fill="#2B4E8F" fill-opacity="0.15" />
    <path
      d="M231.854 552.26H221.917V533.972H231.854V552.26ZM226.705 547.323H226.928L226.705 538.944V547.323Z"
      fill="#2B4E8F" fill-opacity="0.15" />
    <path
      d="M319.127 552.26H309.173V533.972H319.127V552.26ZM313.979 547.323H314.185L313.979 538.944V547.323Z"
      fill="#2B4E8F" fill-opacity="0.15" />
    <path
      d="M327.572 552.26H317.634V533.972H327.572V552.26ZM322.423 547.323H322.629L322.423 538.944V547.323Z"
      fill="#2B4E8F" fill-opacity="0.15" />
    <path
      d="M336.102 552.26H326.147V533.972H336.102V552.26ZM330.953 547.323H331.159L330.953 538.944V547.323Z"
      fill="#2B4E8F" fill-opacity="0.15" />
    <path
      d="M344.666 552.26H334.694V533.972H344.666V552.26ZM339.517 547.323H339.775L339.517 538.944V547.323Z"
      fill="#2B4E8F" fill-opacity="0.15" />
    <path
      d="M254.543 552.26H244.572V533.972H254.543V552.26ZM249.395 547.323H249.652L249.395 538.944V547.323Z"
      fill="#2B4E8F" fill-opacity="0.15" />
    <path
      d="M263.073 552.26H253.136V533.972H263.073V552.26ZM258.01 547.323H258.216L258.01 538.944V547.323Z"
      fill="#2B4E8F" fill-opacity="0.15" />
    <path
      d="M271.603 552.26H261.666V533.972H271.603V552.26ZM266.455 547.323H266.677L266.455 538.944V547.323Z"
      fill="#2B4E8F" fill-opacity="0.15" />
    <path
      d="M280.133 552.26H270.196V533.972H280.133V552.26ZM274.985 547.323H275.19L274.985 538.944V547.323Z"
      fill="#2B4E8F" fill-opacity="0.15" />
    <path
      d="M288.663 552.26H278.726V533.972H288.663V552.26ZM283.514 547.323H283.738L283.514 538.944V547.323Z"
      fill="#2B4E8F" fill-opacity="0.15" />
    <path
      d="M297.245 552.26H287.256V533.972H297.245V552.26ZM292.096 547.323H292.336L292.096 538.944V547.323Z"
      fill="#2B4E8F" fill-opacity="0.15" />
    <path
      d="M141.045 552.26H131.108V533.972H141.045V552.26ZM135.896 547.323H136.102L135.896 538.944V547.323Z"
      fill="#2B4E8F" fill-opacity="0.15" />
    <path
      d="M149.592 552.26H139.638V533.972H149.592V552.26ZM144.443 547.323H144.666L144.443 538.944V547.323Z"
      fill="#2B4E8F" fill-opacity="0.15" />
    <path
      d="M158.105 552.26H148.168V533.972H158.105V552.26ZM152.956 547.323H153.162L152.956 538.944V547.323Z"
      fill="#2B4E8F" fill-opacity="0.15" />
    <path
      d="M166.652 552.26H156.698V533.972H166.652V552.26ZM161.503 547.323H161.709L161.503 538.944V547.323Z"
      fill="#2B4E8F" fill-opacity="0.15" />
    <path
      d="M175.216 552.26H165.245V533.972H175.216V552.26ZM170.067 547.323H170.308L170.067 538.944V547.323Z"
      fill="#2B4E8F" fill-opacity="0.15" />
    <path
      d="M183.746 552.26H173.809V533.972H183.746V552.26ZM178.597 547.323H178.821L178.597 538.944V547.323Z"
      fill="#2B4E8F" fill-opacity="0.15" />
    <path
      d="M131.159 552.26H117.429V530.221H131.159V552.26ZM122.32 547.322H126.302V535.176H122.32V547.322Z"
      fill="#2B4E8F" fill-opacity="0.15" />
    <path
      d="M406.521 542.694H20.9388V530.221H406.521V542.694ZM25.8132 537.739H401.681V535.176H25.8132V537.739Z"
      fill="#2B4E8F" fill-opacity="0.15" />
    <path d="M406.933 544.226H20.5097V552.26H406.933V544.226Z" fill="#2B4E8F" fill-opacity="0.15" />
    <path
      d="M309.362 552.26H295.632V530.221H309.362V552.26ZM300.574 547.322H304.487V535.176H300.574V547.322Z"
      fill="#2B4E8F" fill-opacity="0.15" />
    <path
      d="M358.07 552.26H344.34V530.221H358.07V552.26ZM349.231 547.322H353.196V535.176H349.231V547.322Z"
      fill="#2B4E8F" fill-opacity="0.15" />
    <path
      d="M401.51 552.26H387.779V530.221H401.51V552.26ZM392.688 547.322H396.653V535.176H392.688V547.322Z"
      fill="#2B4E8F" fill-opacity="0.15" />
    <path
      d="M197.271 552.26H183.643V530.221H197.271V552.26ZM188.5 547.322H192.431V535.176H188.5V547.322Z"
      fill="#2B4E8F" fill-opacity="0.15" />
    <path
      d="M245.327 552.26H231.597V530.221H245.327V552.26ZM236.505 547.322H240.47V535.176H236.505V547.322Z"
      fill="#2B4E8F" fill-opacity="0.15" />
    <path
      d="M430.017 683H9.91821e-05L0.515071 680.092L21.7626 552.26H20.5097V544.225H26.7912V542.694H20.9388V530.22H75.5857L85.4716 471.001L85.2998 469.9V464.343H91.5815V462.794H85.6086V450.321H157.796L173.878 186.621H170.445V181.322H168.557V169.107H170.445V130.447H168.557V120.124H209.422V67.3226H210.4V41.7732H168.437V2.71811H210.4V-0.103516H218.158V67.3226H219.136V120.124H260.774V130.447H258.868V169.072H260.774V181.288L258.868 181.46V186.621H255.436L271.569 450.321H341.765V462.794H336.616V464.343H342.074V472.377H341.182L350.827 530.22H406.487V542.694H401.51V544.225H406.882V547.322H407.397L407.688 549.369L430.017 683ZM5.80097 678.045H424.216L403.277 552.26H402.076V549.18H396.704V537.739H401.647V535.175H346.725L346.434 533.128L335.758 469.298H331.845V457.839H336.994V455.276H267.038L266.918 452.97L250.321 181.666L254.046 181.494V176.333H255.951V174.027H254.046V125.492H255.951V125.148H173.569V125.492H175.44V174.027H173.569V176.333H175.44V181.632H179.147L178.975 184.281L162.464 455.241H90.5174V457.805H96.49V469.384H90.6031V470.399L79.7734 535.261H25.8987V537.825H31.7343V549.266H27.3405L27.1348 550.298L5.80097 678.045ZM173.38 36.9215H213.387V7.77636H173.38V36.9215ZM329.185 469.298H290.448V457.839H329.185V469.298ZM287.857 469.298H267.896L267.21 457.839H287.805L287.857 469.298ZM161.572 469.298H139.088V457.839H162.258L161.572 469.298ZM136.497 469.298H99.0301V457.839H136.497V469.298Z"
      fill="#2B4E8F" fill-opacity="0.15" />
  </g>
  <defs>
    <clipPath id="clip0_1153_10104">
      <rect width="430" height="683" fill="white" />
    </clipPath>
  </defs>
</svg>