<svg width="407" height="348" viewBox="0 0 407 348" fill="none" xmlns="http://www.w3.org/2000/svg">
<g opacity="0.2">
<mask id="mask0_1754_16124" style="mask-type:luminance" maskUnits="userSpaceOnUse" x="0" y="0" width="407" height="348">
<path d="M-4.17877e-05 6.10352e-05L-6.10352e-05 348L407 348L407 0.000121684L-4.17877e-05 6.10352e-05Z" fill="white"/>
</mask>
<g mask="url(#mask0_1754_16124)">
<path d="M491.946 -80.8101L213.724 177.635C210.719 180.428 207.274 182.499 203.586 183.729C199.899 184.96 196.041 185.326 192.233 184.806C188.425 184.286 184.742 182.891 181.393 180.7C178.045 178.51 175.097 175.566 172.719 172.038L-47.5407 -154.418C-52.3455 -161.541 -54.5422 -170.611 -53.6478 -179.634C-52.7533 -188.657 -48.8408 -196.893 -42.7711 -202.532L235.452 -460.976C241.523 -466.611 249.252 -469.186 256.941 -468.137C264.63 -467.088 271.649 -462.499 276.456 -455.38L496.716 -128.924C501.521 -121.801 503.717 -112.731 502.823 -103.708C501.929 -94.6849 498.016 -86.4484 491.946 -80.8101Z" fill="url(#paint0_linear_1754_16124)"/>
<path d="M-3.27902 -19.1339L133.47 4.78026C138.664 5.70178 143.336 8.99927 146.464 13.9516C149.593 18.9039 150.922 25.1082 150.163 31.2077L129.782 191.664C128.997 197.759 126.186 203.241 121.966 206.911C117.745 210.582 112.458 212.142 107.259 211.251L-29.5004 187.337C-34.6929 186.412 -39.3624 183.113 -42.4883 178.161C-45.6143 173.209 -46.9424 167.007 -46.1827 160.909L-25.8018 0.453439C-25.0165 -5.64158 -22.2062 -11.1238 -17.9855 -14.7943C-13.7649 -18.4649 -8.47736 -20.0251 -3.27902 -19.1339Z" fill="url(#paint1_linear_1754_16124)"/>
<path d="M73.3893 322.081L96.1078 285.052C100.365 278.113 99.0222 268.439 93.1086 263.444L61.5506 236.787C55.637 231.791 47.392 233.367 43.1348 240.306L20.4163 277.335C16.1592 284.274 17.5018 293.948 23.4154 298.943L54.9735 325.6C60.887 330.596 69.1321 329.02 73.3893 322.081Z" fill="url(#paint2_linear_1754_16124)"/>
</g>
</g>
<defs>
<linearGradient id="paint0_linear_1754_16124" x1="59.7628" y1="16.0516" x2="264.236" y2="-126.105" gradientUnits="userSpaceOnUse">
<stop stop-color="#00A7E2"/>
<stop offset="1" stop-color="#19226D" stop-opacity="0"/>
</linearGradient>
<linearGradient id="paint1_linear_1754_16124" x1="-22.7657" y1="-0.362732" x2="153.637" y2="164.905" gradientUnits="userSpaceOnUse">
<stop stop-color="#19226D" stop-opacity="0"/>
<stop offset="1" stop-color="#ED1C24"/>
</linearGradient>
<linearGradient id="paint2_linear_1754_16124" x1="22.3058" y1="302.229" x2="98.3885" y2="269.808" gradientUnits="userSpaceOnUse">
<stop stop-color="#19226D" stop-opacity="0"/>
<stop offset="1" stop-color="#ED1C24"/>
</linearGradient>
</defs>
</svg>
