<svg width="252" height="460" viewBox="0 0 252 460" fill="none" xmlns="http://www.w3.org/2000/svg">
  <g style="mix-blend-mode:screen" opacity="0.5" clip-path="url(#clip0_1153_10347)">
    <path
      d="M202.275 112.6H49.4593V90.4434H202.275V112.6ZM53.5239 108.546H198.197V94.4692H53.5239V108.546Z"
      fill="#2B4E8F" />
    <path
      d="M51.555 434.418H7.72852V298.438H51.555V434.418ZM11.7932 430.35H47.5044V302.478H11.7932V430.35Z"
      fill="#2B4E8F" />
    <path
      d="M130.544 288.57H121.318V260.812H130.544V288.57ZM125.382 284.516H126.493V264.809H125.382V284.516Z"
      fill="#2B4E8F" />
    <path
      d="M93.6373 234.109H65.8167V224.945H93.6373V234.109ZM69.8817 230.055H89.5727V228.999H69.8817V230.055Z"
      fill="#2B4E8F" />
    <path
      d="M183.893 234.109H156.143V224.945H183.893V234.109ZM160.221 230.027H179.912V228.971H160.221V230.027Z"
      fill="#2B4E8F" />
    <path
      d="M81.4572 281.505L74.959 275.156L76.3655 273.749L101.247 248.861L107.759 255.294L106.282 256.702L81.4572 281.505ZM80.6835 275.156L81.4572 275.916L102.076 255.294L101.303 254.45L80.6835 275.156Z"
      fill="#2B4E8F" />
    <path
      d="M151.178 211.812L144.75 205.379L171.037 179.084L177.465 185.517L151.178 211.812ZM150.333 205.379L151.178 206.209L171.867 185.517L171.037 184.686L150.333 205.379Z"
      fill="#2B4E8F" />
    <path
      d="M100.558 210.32L80.9929 190.753L87.4207 184.32L106.999 203.901L100.558 210.32ZM86.5908 190.753L100.558 204.731L101.401 203.901L87.4207 189.909L86.5908 190.753Z"
      fill="#2B4E8F" />
    <path
      d="M170.531 280.181L144.876 254.52L151.248 248.03L152.654 249.438L177.057 273.762L170.531 280.181ZM150.474 254.52L170.531 274.593L171.304 273.818L151.248 253.745L150.474 254.52Z"
      fill="#2B4E8F" />
    <path
      d="M41.9203 428.323H17.3769V423.016H13.6076V309.827H17.3769V304.506H41.9203V309.827H45.6196V423.016H41.9203V428.323ZM21.4278 424.269H37.8557V418.962H41.5687V313.881H37.8557V308.574H21.4278V313.881H17.6582V418.962H21.4278V424.269Z"
      fill="#2B4E8F" />
    <path
      d="M244.147 434.418H200.32V298.438H244.147V434.418ZM204.371 430.35H240.096V302.478H204.371V430.35Z"
      fill="#2B4E8F" />
    <path
      d="M234.499 428.323H209.969V423.016H206.186V309.827H209.969V304.506H234.499V309.827H238.282V423.016H234.499V428.323ZM214.02 424.269H230.448V418.962H234.217V313.881H230.448V308.574H214.02V313.881H210.251V418.962H214.02V424.269Z"
      fill="#2B4E8F" />
    <path
      d="M207.1 288.571H165.58V197.074H86.3095V288.571H44.7054V141.542H207.1V288.571ZM169.631 284.517H203.049V145.568H48.7701V284.489H82.2449V192.992H169.631V284.517Z"
      fill="#2B4E8F" />
    <path
      d="M81.7665 288.993H51.0766V141.964H81.7665V288.993ZM55.1275 284.939H77.6315V146.018H55.1275V284.939Z"
      fill="#2B4E8F" />
    <path
      d="M73.8622 274.734H58.9531V202.943H73.9181L73.8622 274.734ZM62.9618 270.68H69.8113V206.983H62.9618V270.68Z"
      fill="#2B4E8F" />
    <path
      d="M200.813 288.571H170.067V141.542H200.757L200.813 288.571ZM174.174 284.517H196.678V145.568H174.174V284.517Z"
      fill="#2B4E8F" />
    <path
      d="M238.282 302.478H13.6076V284.517H238.282V302.478ZM17.6582 298.438H234.259V288.585H17.6582V298.438Z"
      fill="#2B4E8F" />
    <path
      d="M210.251 302.478H41.5687V291.513H210.251V302.478ZM45.6196 298.438H206.186V295.623H45.6196V298.438Z"
      fill="#2B4E8F" />
    <path
      d="M138.519 242.569H113.357V193.625H138.519V242.569ZM117.421 238.515H134.482V197.693H117.421V238.515Z"
      fill="#2B4E8F" />
    <path
      d="M132.443 242.569H119.433V193.625H132.429L132.443 242.569ZM123.497 238.515H128.392V197.693H123.497V238.515Z"
      fill="#2B4E8F" />
    <path d="M124.398 193.639H117.97V242.583H124.398V193.639Z" fill="#2B4E8F" />
    <path d="M118.462 193.639H112.034V242.583H118.462V193.639Z" fill="#2B4E8F" />
    <path
      d="M138.519 242.569H128.392V193.625H138.519V242.569ZM132.443 238.515H134.468V197.693H132.443V238.515Z"
      fill="#2B4E8F" />
    <path
      d="M160.052 184.686H91.8232V141.964H160.052V184.686ZM95.8879 180.632H156.002V146.018H95.8879V180.632Z"
      fill="#2B4E8F" />
    <path d="M139.714 193.639H133.273V242.583H139.714V193.639Z" fill="#2B4E8F" />
    <path d="M138.519 231.448H113.216V237.881H138.519V231.448Z" fill="#2B4E8F" />
    <path d="M140.615 237.402H111.12V243.765H140.615V237.402Z" fill="#2B4E8F" />
    <path d="M133.835 193.639H127.408V242.583H133.835V193.639Z" fill="#2B4E8F" />
    <path
      d="M125.945 268.033C118.323 268.036 110.873 265.776 104.535 261.54C98.1975 257.304 93.2575 251.282 90.3404 244.235C87.4233 237.189 86.6601 229.435 88.1472 221.954C89.6344 214.473 93.305 207.602 98.6949 202.209C104.085 196.817 110.952 193.146 118.427 191.66C125.902 190.175 133.65 190.941 140.689 193.863C147.729 196.786 153.745 201.732 157.975 208.076C162.205 214.421 164.46 221.878 164.455 229.506C164.429 239.718 160.362 249.505 153.146 256.725C145.929 263.945 136.149 268.011 125.945 268.033ZM125.945 194.976C119.127 194.973 112.462 196.994 106.792 200.782C101.121 204.57 96.7003 209.956 94.0881 216.258C91.4759 222.56 90.7898 229.497 92.1161 236.189C93.4423 242.882 96.7217 249.031 101.54 253.859C106.357 258.686 112.497 261.976 119.183 263.312C125.869 264.647 132.8 263.969 139.1 261.362C145.401 258.756 150.788 254.338 154.58 248.667C158.372 242.997 160.398 236.329 160.404 229.506C160.389 220.365 156.753 211.603 150.294 205.141C143.834 198.679 135.078 195.043 125.945 195.032V194.976ZM125.945 262.712C119.372 262.715 112.946 260.766 107.48 257.113C102.014 253.459 97.7535 248.265 95.2381 242.187C92.7227 236.109 92.0651 229.422 93.3488 222.97C94.6325 216.518 97.7997 210.593 102.45 205.943C107.099 201.293 113.023 198.129 119.47 196.849C125.918 195.57 132.599 196.234 138.67 198.756C144.741 201.279 149.927 205.547 153.573 211.021C157.219 216.494 159.16 222.927 159.152 229.506C159.154 233.872 158.296 238.196 156.629 242.231C154.961 246.265 152.515 249.931 149.432 253.02C146.348 256.109 142.687 258.56 138.657 260.232C134.627 261.905 130.307 262.767 125.945 262.768V262.712ZM125.945 200.283C120.175 200.277 114.534 201.984 109.733 205.187C104.933 208.391 101.19 212.947 98.9769 218.279C96.7639 223.612 96.1807 229.481 97.3008 235.146C98.4209 240.81 101.194 246.014 105.27 250.101C109.345 254.188 114.54 256.974 120.198 258.106C125.855 259.238 131.721 258.665 137.054 256.461C142.386 254.256 146.946 250.519 150.155 245.721C153.365 240.923 155.082 235.28 155.088 229.506C155.076 221.774 152.002 214.362 146.539 208.894C141.076 203.427 133.67 200.35 125.945 200.339V200.283Z"
      fill="#2B4E8F" />
    <path
      d="M125.945 264.866C118.969 264.86 112.152 262.785 106.355 258.902C100.557 255.02 96.0406 249.504 93.375 243.053C90.7095 236.601 90.015 229.504 91.3793 222.657C92.7435 215.811 96.1053 209.523 101.04 204.588C105.974 199.654 112.259 196.294 119.101 194.934C125.943 193.574 133.034 194.275 139.478 196.948C145.922 199.621 151.43 204.146 155.305 209.951C159.18 215.756 161.248 222.581 161.248 229.562C161.226 238.923 157.498 247.894 150.882 254.511C144.265 261.127 135.298 264.851 125.945 264.866ZM125.945 198.312C119.77 198.315 113.734 200.15 108.601 203.585C103.468 207.021 99.4684 211.902 97.1073 217.613C94.7461 223.323 94.1297 229.606 95.3361 235.667C96.5425 241.728 99.5176 247.295 103.885 251.664C108.252 256.033 113.816 259.008 119.873 260.212C125.929 261.417 132.207 260.797 137.911 258.432C143.616 256.066 148.492 252.06 151.922 246.922C155.352 241.783 157.183 235.742 157.183 229.562C157.183 225.457 156.375 221.392 154.805 217.6C153.235 213.807 150.934 210.362 148.033 207.46C145.132 204.558 141.688 202.256 137.898 200.687C134.108 199.117 130.046 198.31 125.945 198.312ZM125.945 259.981C119.926 259.984 114.042 258.2 109.036 254.855C104.031 251.51 100.129 246.754 97.8253 241.189C95.5213 235.624 94.9184 229.5 96.0929 223.592C97.2675 217.684 100.167 212.257 104.424 207.999C108.681 203.74 114.104 200.842 120.008 199.669C125.911 198.496 132.03 199.102 137.589 201.411C143.148 203.719 147.899 207.626 151.239 212.637C154.579 217.648 156.359 223.538 156.353 229.562C156.331 237.625 153.12 245.352 147.422 251.052C141.723 256.752 134.001 259.963 125.945 259.981ZM125.945 203.14C120.729 203.137 115.631 204.682 111.292 207.579C106.954 210.477 103.572 214.596 101.573 219.417C99.574 224.238 99.048 229.544 100.062 234.664C101.075 239.784 103.583 244.488 107.268 248.182C110.953 251.875 115.649 254.393 120.763 255.415C125.878 256.438 131.18 255.92 136 253.927C140.82 251.934 144.942 248.556 147.844 244.219C150.745 239.882 152.297 234.781 152.303 229.562C152.307 222.561 149.532 215.844 144.589 210.89C139.647 205.935 132.94 203.148 125.945 203.14Z"
      fill="#2B4E8F" />
    <path
      d="M192.979 274.734H177.943V202.943H192.979V274.734ZM182.008 270.68H188.928V206.983H182.008V270.68Z"
      fill="#2B4E8F" />
    <path
      d="M73.8622 195.582H58.9531V169.301H73.9181L73.8622 195.582ZM62.9618 191.528H69.8113V173.355H62.9618V191.528Z"
      fill="#2B4E8F" />
    <path
      d="M192.979 195.582H177.943V169.301H192.979V195.582ZM182.008 191.528H188.928V173.355H182.008V191.528Z"
      fill="#2B4E8F" />
    <g opacity="0.15">
      <path
        d="M207.1 165.388H44.7054V141.542H207.1V165.388ZM48.7701 161.333H203.049V145.568H48.7701V161.333Z"
        fill="#2B4E8F" />
    </g>
    <path
      d="M172.078 281.997H79.8116V266.344H172.078V281.997ZM83.8622 277.943H168.027V270.398H83.8622V277.943Z"
      fill="#2B4E8F" />
    <path
      d="M90.9088 288.571H17.8693V280.533H19.0507V271.792H17.8693V263.754H90.9088V271.792H89.5867V280.533H90.9088V288.571Z"
      fill="#2B4E8F" />
    <path
      d="M233.95 288.571H160.826V280.533H162.007V271.792H160.826V263.754H233.95V271.792H232.614V280.533H233.95V288.571Z"
      fill="#2B4E8F" />
    <path
      d="M55.4791 448.607H3.74799V428.196H55.4791V448.607ZM7.79854 444.553H51.4001V432.236H7.79854V444.553Z"
      fill="#2B4E8F" />
    <path
      d="M58.8265 459.868H0.456665V439.443H58.8265V459.868ZM4.52164 455.8H54.7337V443.497H4.52164V455.8Z"
      fill="#2B4E8F" />
    <path
      d="M248.057 448.607H196.41V428.196H248.057V448.607ZM200.461 444.553H244.063V432.236H200.461V444.553Z"
      fill="#2B4E8F" />
    <path
      d="M251.419 459.868H193.049V439.443H251.419V459.868ZM197.1 455.8H247.424V443.497H197.156L197.1 455.8Z"
      fill="#2B4E8F" />
    <path
      d="M249.815 144.892H2.06027L35.6896 129.52L45.5351 108.546H206.383L216.101 129.45L249.815 144.892ZM20.5556 140.852H231.376L212.993 132.532L212.726 131.829L203.837 112.6H47.9965L38.7697 132.603L38.0665 132.884L20.5556 140.852Z"
      fill="#2B4E8F" />
    <path
      d="M247.087 152.169H4.78882V140.908H247.087V152.169ZM8.83972 148.116H243.022V144.892H8.83972V148.116Z"
      fill="#2B4E8F" />
    <g opacity="0.15">
      <path
        d="M57.1528 144.892H45.9008V108.546H57.1528V144.892ZM49.8813 140.852H53.1022V112.6H49.8813V140.852Z"
        fill="#2B4E8F" />
    </g>
    <g opacity="0.15">
      <path
        d="M81.9636 144.892H70.6412V108.546H81.9636V144.892ZM74.7059 140.852H77.9127V112.6H74.7059V140.852Z"
        fill="#2B4E8F" />
    </g>
    <g opacity="0.15">
      <path
        d="M106.774 144.892H95.5222V108.546H106.774V144.892ZM99.5027 140.852H102.724V112.6H99.5027V140.852Z"
        fill="#2B4E8F" />
    </g>
    <g opacity="0.15">
      <path
        d="M131.599 144.892H120.277V108.546H131.599V144.892ZM124.327 140.852H127.548V112.6H124.327V140.852Z"
        fill="#2B4E8F" />
    </g>
    <g opacity="0.15">
      <path
        d="M156.424 144.892H145.101V108.546H156.424V144.892ZM149.152 140.852H152.359V112.6H149.152V140.852Z"
        fill="#2B4E8F" />
    </g>
    <g opacity="0.15">
      <path
        d="M181.234 144.892H169.912V108.546H181.234V144.892ZM173.963 140.852H177.184V112.6H173.963V140.852Z"
        fill="#2B4E8F" />
    </g>
    <g opacity="0.15">
      <path
        d="M206.045 144.892H194.793V108.546H206.045V144.892ZM198.787 140.852H201.994V112.6H198.787V140.852Z"
        fill="#2B4E8F" />
    </g>
    <g opacity="0.15">
      <path
        d="M202.416 107.856H49.4593V96.1729H202.416V107.856ZM53.5239 103.788H198.394V100.227H53.5239V103.788Z"
        fill="#2B4E8F" />
    </g>
    <path
      d="M223.317 94.9904H28.4885L28.1509 90.9927L48.8968 87.2203L57.0124 52.5498H194.849L195.201 54.0841L202.965 87.0794L223.725 90.9927L223.317 94.9904ZM50.8658 90.9224H201.713L199.547 90.5844L199.266 89.3177L191.586 56.6039H60.233L52.2582 90.7253L50.8658 90.9224Z"
      fill="#2B4E8F" />
    <g opacity="0.15">
      <path
        d="M67.7861 94.9904H57.5467V52.5498H67.7579L67.7861 94.9904ZM61.6254 90.9224H63.7211V56.6039H61.6254V90.9224Z"
        fill="#2B4E8F" />
    </g>
    <g opacity="0.15">
      <path
        d="M88.8835 94.9904H78.6442V52.5498H88.9117L88.8835 94.9904ZM82.6669 90.9224H84.8326V56.6039H82.6669V90.9224Z"
        fill="#2B4E8F" />
    </g>
    <g opacity="0.15">
      <path
        d="M109.939 94.9904H99.7416V52.5498H109.953L109.939 94.9904ZM103.778 90.9224H105.874V56.6039H103.778V90.9224Z"
        fill="#2B4E8F" />
    </g>
    <g opacity="0.15">
      <path
        d="M131.05 94.9904H120.839V52.5498H131.05V94.9904ZM124.89 90.9224H126.986V56.6039H124.89V90.9224Z"
        fill="#2B4E8F" />
    </g>
    <g opacity="0.15">
      <path
        d="M152.148 94.9904H141.937V52.5498H152.204L152.148 94.9904ZM145.931 90.9224H148.097V56.6039H145.931V90.9224Z"
        fill="#2B4E8F" />
    </g>
    <g opacity="0.15">
      <path
        d="M173.259 94.9904H163.034V52.5498H173.302L173.259 94.9904ZM167.043 90.9224H169.209V56.6039H167.043V90.9224Z"
        fill="#2B4E8F" />
    </g>
    <g opacity="0.15">
      <path
        d="M194.315 94.9904H184.132V52.5498H194.343L194.315 94.9904ZM188.154 90.9224H190.25V56.6039H188.154V90.9224Z"
        fill="#2B4E8F" />
    </g>
    <path
      d="M229.14 100.649H22.6935V90.4434H229.14V100.649ZM26.6881 96.5948H225.075V94.4974H26.7444L26.6881 96.5948Z"
      fill="#2B4E8F" />
    <path
      d="M198.366 58.4898H53.4961V48.2139H198.366V58.4898ZM57.5748 54.4358H194.315V52.2679H57.5467L57.5748 54.4358Z"
      fill="#2B4E8F" />
    <path
      d="M193.541 52.2685H58.3484V34.5039L61.2737 36.1227C73.0883 42.3446 98.4616 46.3282 125.973 46.3282C153.484 46.3282 178.745 42.3446 190.672 36.1227L193.612 34.5744L193.541 52.2685ZM159.982 48.2144H189.519V41.0073C182.289 44.2167 172.008 46.6097 159.982 48.2144ZM62.399 48.2144H91.9355C79.8537 46.6097 69.5722 44.1604 62.399 41.0073V48.2144Z"
      fill="#2B4E8F" />
    <path
      d="M144.876 52.2687H106.999V29.127L110.839 37.0239C112.24 39.8311 114.395 42.1921 117.062 43.8424C119.729 45.4926 122.802 46.3667 125.938 46.3667C129.073 46.3667 132.147 45.4926 134.814 43.8424C137.48 42.1921 139.635 39.8311 141.037 37.0239L144.876 29.127V52.2687ZM135.031 48.2146H140.755V44.0903C139.163 45.8275 137.241 47.2295 135.101 48.2146H135.031ZM110.98 48.2146H116.606C114.495 47.2245 112.587 45.8497 110.98 44.1606V48.2146Z"
      fill="#2B4E8F" />
    <path
      d="M125.874 47.5108C122.903 47.5108 119.999 46.6291 117.529 44.9771C115.059 43.3252 113.133 40.9774 111.996 38.2303C110.859 35.4832 110.562 32.4604 111.142 29.5442C111.721 26.6279 113.152 23.9493 115.253 21.8468C117.353 19.7442 120.03 18.3123 122.944 17.7322C125.857 17.1521 128.878 17.4499 131.623 18.5878C134.367 19.7256 136.714 21.6526 138.364 24.1249C140.015 26.5972 140.896 29.5038 140.896 32.4772C140.877 36.4587 139.289 40.2718 136.476 43.0871C133.663 45.9025 129.853 47.4923 125.874 47.5108ZM125.874 21.5115C123.704 21.5115 121.582 22.1557 119.778 23.3628C117.974 24.5699 116.567 26.2856 115.737 28.2927C114.907 30.2998 114.691 32.5082 115.115 34.6385C115.54 36.7687 116.586 38.725 118.122 40.26C119.658 41.795 121.614 42.8395 123.743 43.2616C125.872 43.6836 128.078 43.4643 130.082 42.6311C132.087 41.7979 133.799 40.3885 135.003 38.581C136.207 36.7736 136.848 34.6493 136.845 32.4772C136.847 31.0354 136.564 29.6075 136.014 28.2754C135.463 26.9432 134.654 25.7329 133.635 24.7141C132.616 23.6953 131.405 22.888 130.074 22.3384C128.742 21.7888 127.315 21.5078 125.874 21.5115ZM125.874 42.4856C123.897 42.4856 121.963 41.8986 120.318 40.7989C118.674 39.6991 117.392 38.1359 116.635 36.3071C115.878 34.4783 115.68 32.4661 116.066 30.5246C116.452 28.5832 117.405 26.7998 118.803 25.4001C120.202 24.0004 121.983 23.0472 123.923 22.6611C125.863 22.2749 127.874 22.473 129.701 23.2305C131.528 23.988 133.09 25.2708 134.189 26.9167C135.288 28.5625 135.874 30.4977 135.874 32.4772C135.874 35.1316 134.821 37.6772 132.945 39.5541C131.07 41.431 128.527 42.4856 125.874 42.4856ZM125.874 26.5367C124.7 26.5367 123.553 26.8853 122.577 27.538C121.601 28.1907 120.84 29.1184 120.391 30.2038C119.941 31.2893 119.824 32.4837 120.053 33.636C120.282 34.7883 120.847 35.8469 121.677 36.6776C122.507 37.5084 123.565 38.0741 124.717 38.3033C125.868 38.5325 127.061 38.4148 128.146 37.9652C129.23 37.5156 130.157 36.7543 130.81 35.7774C131.462 34.8005 131.81 33.6521 131.81 32.4772C131.81 30.9017 131.184 29.3907 130.071 28.2767C128.958 27.1627 127.449 26.5367 125.874 26.5367Z"
      fill="#2B4E8F" />
    <path
      d="M125.875 51.8461C124.175 51.8461 122.513 51.3416 121.1 50.3966C119.687 49.4515 118.585 48.1083 117.935 46.5367C117.284 44.9651 117.114 43.2359 117.446 41.5675C117.777 39.8991 118.596 38.3666 119.798 37.1637C121 35.9609 122.531 35.1417 124.198 34.8098C125.865 34.4779 127.593 34.6482 129.163 35.2992C130.733 35.9502 132.076 37.0525 133.02 38.4669C133.964 39.8813 134.468 41.5443 134.468 43.2454C134.468 45.5265 133.563 47.714 131.951 49.3269C130.339 50.9399 128.154 51.8461 125.875 51.8461ZM125.875 38.6986C124.675 38.7201 123.53 39.2056 122.681 40.0533C121.831 40.9009 121.343 42.0451 121.317 43.2454C121.382 44.4094 121.889 45.5043 122.736 46.3054C123.582 47.1065 124.703 47.5529 125.867 47.5529C127.032 47.5529 128.153 47.1065 128.999 46.3054C129.845 45.5043 130.353 44.4094 130.418 43.2454C130.396 42.0463 129.91 40.9023 129.063 40.0543C128.216 39.2063 127.073 38.7202 125.875 38.6986Z"
      fill="#2B4E8F" />
    <path
      d="M76.0278 49.2555C75.0557 49.2623 74.0944 49.0507 73.2148 48.6362L54.2693 38.9798C52.8985 38.211 51.8872 36.9307 51.4563 35.4184C51.2952 34.7423 51.2732 34.0405 51.3917 33.3557C51.5102 32.6708 51.7666 32.0173 52.1454 31.4348C52.9829 30.2224 54.2319 29.3555 55.66 28.9956C57.0881 28.6357 58.5981 28.8072 59.9094 29.4781L78.9253 39.1909C79.6138 39.5231 80.2221 40.0009 80.7078 40.5915C81.1935 41.1822 81.545 41.8713 81.7383 42.6114C81.9528 43.3011 82.0086 44.0305 81.9014 44.7447C81.7942 45.459 81.5269 46.1398 81.1195 46.7359C80.5359 47.5348 79.7684 48.1811 78.882 48.6197C77.9956 49.0584 77.0164 49.2764 76.0278 49.2555ZM75.0433 45.0326C75.8169 45.666 77.2095 45.0326 77.7018 44.554C77.7872 44.4329 77.844 44.294 77.8683 44.1478C77.8927 44.0016 77.8838 43.8517 77.8422 43.7094C77.7996 43.5165 77.707 43.3382 77.5737 43.1924C77.4404 43.0466 77.271 42.9385 77.0827 42.879L58.053 33.0254C57.6145 32.8308 57.1237 32.7874 56.6579 32.902C56.192 33.0167 55.7774 33.2829 55.479 33.6588C55.4029 33.7709 55.3511 33.8976 55.3269 34.031C55.3027 34.1643 55.3064 34.3013 55.3382 34.4331C55.3916 34.6505 55.496 34.852 55.6428 35.0209C55.7896 35.1898 55.9746 35.3212 56.1823 35.4043L75.0433 45.0326Z"
      fill="#2B4E8F" />
    <path
      d="M175.693 49.2563C174.715 49.2693 173.749 49.0473 172.875 48.6088C172.002 48.1703 171.246 47.5283 170.672 46.7367C170.262 46.1416 169.992 45.4613 169.882 44.747C169.773 44.0327 169.826 43.3029 170.039 42.6122C170.231 41.8717 170.582 41.1822 171.068 40.5914C171.554 40.0007 172.163 39.523 172.852 39.1917L191.868 29.5491C193.156 28.8141 194.676 28.6001 196.117 28.9508C197.558 29.3015 198.81 30.1905 199.617 31.4355C200.002 32.0156 200.262 32.6686 200.383 33.354C200.504 34.0394 200.483 34.7424 200.321 35.4191C200.105 36.1578 199.745 36.8464 199.262 37.4455C198.78 38.0446 198.183 38.5423 197.508 38.9101L178.492 48.637C177.617 49.0512 176.66 49.2628 175.693 49.2563ZM194.638 32.8291C194.293 32.8158 193.953 32.9145 193.668 33.1105L174.652 42.767C174.465 42.8517 174.299 42.9762 174.166 43.1318C174.032 43.2874 173.934 43.4704 173.878 43.6679C173.837 43.8102 173.828 43.96 173.852 44.1063C173.877 44.2525 173.934 44.3914 174.019 44.5125C174.341 44.884 174.78 45.1342 175.264 45.2213C175.748 45.3084 176.246 45.2272 176.677 44.9912L195.623 35.3486C195.816 35.2732 195.987 35.1517 196.122 34.9947C196.257 34.8376 196.351 34.6499 196.396 34.4479C196.453 34.1814 196.402 33.9034 196.256 33.6736C196.07 33.4203 195.829 33.2125 195.551 33.0662C195.274 32.9199 194.966 32.8388 194.652 32.8291H194.638Z"
      fill="#2B4E8F" />
    <path
      d="M125.945 29.1265C124.582 29.1153 123.279 28.5638 122.322 27.5927C121.365 26.6217 120.832 25.3103 120.839 23.9463V5.14006C120.839 3.78486 121.377 2.4852 122.335 1.52693C123.292 0.568666 124.591 0.0302734 125.945 0.0302734C127.299 0.0302734 128.598 0.568666 129.555 1.52693C130.513 2.4852 131.05 3.78486 131.05 5.14006V23.9463C131.054 25.3091 130.52 26.6183 129.564 27.5886C128.607 28.5589 127.306 29.1117 125.945 29.1265ZM125.945 4.09841C125.67 4.10536 125.408 4.21697 125.212 4.41046C125.016 4.60394 124.9 4.86478 124.89 5.14006V23.9463C124.92 24.2035 125.043 24.4408 125.236 24.613C125.429 24.7852 125.679 24.8804 125.938 24.8804C126.197 24.8804 126.446 24.7852 126.639 24.613C126.833 24.4408 126.956 24.2035 126.986 23.9463V5.14006C126.975 4.86713 126.862 4.60823 126.669 4.4151C126.476 4.22196 126.217 4.10885 125.945 4.09841Z"
      fill="#2B4E8F" />
    <path
      d="M124.468 25.1425C123.895 25.1494 123.328 25.0263 122.809 24.7825C122.29 24.5387 121.833 24.1805 121.472 23.7349L114.749 14.7119C114.443 14.3082 114.221 13.8477 114.094 13.3572C113.967 12.8667 113.939 12.356 114.011 11.8545C114.083 11.3531 114.254 10.8708 114.513 10.4359C114.773 10.0009 115.116 9.62178 115.523 9.32051C115.898 8.98247 116.352 8.74269 116.843 8.62236C117.333 8.50202 117.846 8.50488 118.336 8.63078C119.327 8.75189 120.231 9.25732 120.853 10.0384L127.562 19.0615C127.875 19.4881 128.099 19.9735 128.22 20.4888C128.341 21.004 128.356 21.5384 128.266 22.0598C128.192 22.5354 128.023 22.9912 127.769 23.4C127.516 23.8087 127.182 24.162 126.789 24.4387C126.108 24.9109 125.296 25.1571 124.468 25.1425ZM124.538 21.1589V21.2294L124.609 21.1589H124.538Z"
      fill="#2B4E8F" />
    <path
      d="M127.197 25.1424C126.389 25.1217 125.608 24.8514 124.96 24.3683C124.195 23.7929 123.689 22.9373 123.554 21.9893C123.456 21.468 123.469 20.9322 123.59 20.416C123.711 19.8997 123.938 19.4144 124.257 18.991L130.882 10.0383C131.532 9.2474 132.466 8.74226 133.484 8.63068C133.664 8.59055 133.851 8.59055 134.032 8.63068C134.876 8.62163 135.694 8.91652 136.339 9.46132C137.129 10.0588 137.658 10.9384 137.815 11.9168C137.972 12.8952 137.746 13.8966 137.183 14.7118L130.404 23.7348C130.001 24.1855 129.506 24.5444 128.953 24.7872C128.399 25.0301 127.801 25.1512 127.197 25.1424Z"
      fill="#2B4E8F" />
  </g>
  <defs>
    <clipPath id="clip0_1153_10347">
      <rect width="252" height="460" fill="white" />
    </clipPath>
  </defs>
</svg>