<svg xmlns="http://www.w3.org/2000/svg" width="24" height="25" viewBox="0 0 24 25" fill="none">
  <path d="M20.7885 9.16797H2.21154C1.54923 9.16797 1 8.9413 1 8.66797C1 8.39464 1.54923 8.16797 2.21154 8.16797H20.7885C21.4508 8.16797 22 8.39464 22 8.66797C22 8.9413 21.4508 9.16797 20.7885 9.16797Z" fill="#002D85"/>
  <path d="M8 17.418H6C5.59 17.418 5.25 17.078 5.25 16.668C5.25 16.258 5.59 15.918 6 15.918H8C8.41 15.918 8.75 16.258 8.75 16.668C8.75 17.078 8.41 17.418 8 17.418Z" fill="#002D85"/>
  <path d="M14.5 17.418H10.5C10.09 17.418 9.75 17.078 9.75 16.668C9.75 16.258 10.09 15.918 10.5 15.918H14.5C14.91 15.918 15.25 16.258 15.25 16.668C15.25 17.078 14.91 17.418 14.5 17.418Z" fill="#002D85"/>
  <path d="M17.31 3.16797L6.18999 3.16797C2.21 3.16797 1 4.33554 1 8.16905L1 16.1669C1 20.0004 2.21 21.168 6.18999 21.168L13.25 21.168C13.66 21.168 14 20.8372 14 20.4382C14 20.0393 13.66 19.7085 13.25 19.7085L6.18999 19.7085C3.04999 19.7085 2.5 19.1831 2.5 16.1669L2.5 8.17878C2.5 5.16256 3.05 4.63716 6.18999 4.63716L17.3 4.63716C20.4399 4.63716 20.9899 5.16256 20.9899 8.17878L20.9899 13.1215C20.9899 13.5204 21.3299 13.8512 21.7399 13.8512C22.1499 13.8512 22.4899 13.5204 22.4899 13.1215L22.4899 8.17878C22.4999 4.33554 21.2899 3.16797 17.31 3.16797Z" fill="#002D85"/>
</svg>