<svg width="25" height="24" viewBox="0 0 25 24" fill="none" xmlns="http://www.w3.org/2000/svg">
<path d="M13.5 9.25H2C1.59 9.25 1.25 8.91 1.25 8.5C1.25 8.09 1.59 7.75 2 7.75H13.5C13.91 7.75 14.25 8.09 14.25 8.5C14.25 8.91 13.91 9.25 13.5 9.25Z" fill="#002D85"/>
<path d="M8 17.25H6C5.59 17.25 5.25 16.91 5.25 16.5C5.25 16.09 5.59 15.75 6 15.75H8C8.41 15.75 8.75 16.09 8.75 16.5C8.75 16.91 8.41 17.25 8 17.25Z" fill="#002D85"/>
<path d="M14.5 17.25H10.5C10.09 17.25 9.75 16.91 9.75 16.5C9.75 16.09 10.09 15.75 10.5 15.75H14.5C14.91 15.75 15.25 16.09 15.25 16.5C15.25 16.91 14.91 17.25 14.5 17.25Z" fill="#002D85"/>
<path d="M17.56 21.25H6.44C2.46 21.25 1.25 20.05 1.25 16.11V7.89C1.25 3.95 2.46 2.75 6.44 2.75H13.5C13.91 2.75 14.25 3.09 14.25 3.5C14.25 3.91 13.91 4.25 13.5 4.25H6.44C3.3 4.25 2.75 4.79 2.75 7.89V16.1C2.75 19.2 3.3 19.74 6.44 19.74H17.55C20.69 19.74 21.24 19.2 21.24 16.1V12.02C21.24 11.61 21.58 11.27 21.99 11.27C22.4 11.27 22.74 11.61 22.74 12.02V16.1C22.75 20.05 21.54 21.25 17.56 21.25Z" fill="#002D85"/>
<path d="M19.7456 7.60833C20.1207 7.60833 20.4247 7.30426 20.4247 6.92917C20.4247 6.55407 20.1207 6.25 19.7456 6.25C19.3705 6.25 19.0664 6.55407 19.0664 6.92917C19.0664 7.30426 19.3705 7.60833 19.7456 7.60833Z" fill="#292D32"/>
<path d="M22.0997 4.3875V3.86667C22.0997 2.74167 21.8289 1.25 19.4831 1.25C17.1372 1.25 16.8664 2.74167 16.8664 3.86667V4.3875C15.6997 4.53333 15.3164 5.125 15.3164 6.57917V7.35417C15.3164 9.0625 15.8372 9.58333 17.5456 9.58333H21.4206C23.1289 9.58333 23.6497 9.0625 23.6497 7.35417V6.57917C23.6497 5.125 23.2664 4.53333 22.0997 4.3875ZM19.4831 8.225C18.7872 8.225 18.2247 7.65833 18.2247 6.96667C18.2247 6.27083 18.7914 5.70833 19.4831 5.70833C20.1747 5.70833 20.7414 6.275 20.7414 6.96667C20.7414 7.6625 20.1789 8.225 19.4831 8.225ZM17.5456 4.35C17.5122 4.35 17.5789 4.35 17.5456 4.35L17.5924 3.86667C17.5924 2.64583 18.0039 1.875 19.6914 1.875C21.0391 1.875 21.4435 2.64583 21.4435 3.86667V4.35C21.4102 4.35 21.4539 4.35417 21.4206 4.35417H17.5456V4.35Z" fill="#002D85"/>
</svg>
