<svg xmlns="http://www.w3.org/2000/svg" width="24" height="25" viewBox="0 0 24 25" fill="none">
  <path fill-rule="evenodd" clip-rule="evenodd" d="M6.94636 21.168H4.90466C4.36021 21.168 3.85765 20.9423 3.50166 20.5321C3.15614 20.1321 2.99911 19.5987 3.09334 19.0859L5.5957 4.38855C5.9098 2.52189 7.54316 1.16803 9.46968 1.16803L13.9875 1.16797C14.4151 1.16796 14.7618 1.51466 14.7618 1.94233C14.7618 2.36999 14.4151 2.71668 13.9875 2.71669L9.46968 2.71676V2.70649C8.30749 2.70649 7.33376 3.51675 7.1453 4.63469L4.64291 19.3321C4.62197 19.4346 4.67431 19.5064 4.70572 19.5372C4.73714 19.568 4.79996 19.6295 4.90466 19.6295H6.94636C7.12435 19.5782 7.18717 19.4962 7.20811 19.4039L8.00386 13.9988C8.1295 13.1167 8.91474 12.4603 9.81518 12.4603H13.0924C14.5686 12.4603 15.9402 11.8962 16.9768 10.8808C17.5959 10.2812 18.0496 9.55192 18.3156 8.7552C18.4359 8.39479 18.7571 8.12453 19.137 8.12453C19.6259 8.12453 20.0028 8.56215 19.8627 9.03055C19.534 10.1289 18.9231 11.1457 18.0762 11.968C16.7569 13.2706 14.977 13.9988 13.0819 13.9988H9.8047C9.67906 13.9988 9.56388 14.0911 9.54294 14.2244L8.74723 19.6398C8.64253 20.3269 8.15042 20.8911 7.4908 21.0859C7.28139 21.1577 7.08247 21.168 6.94636 21.168ZM20.7039 7.55546C20.5139 7.55546 20.3239 7.48546 20.1739 7.33546L18.7638 5.92534L17.3537 7.33546C17.2037 7.48546 17.0137 7.55546 16.8237 7.55546C16.6337 7.55546 16.4437 7.48546 16.2937 7.33546C16.0037 7.04546 16.0037 6.56546 16.2937 6.27546L17.7038 4.86534L16.2839 3.44546C15.9939 3.15546 15.9939 2.67546 16.2839 2.38546C16.5739 2.09546 17.0539 2.09546 17.3439 2.38546L18.7638 3.80534L20.1837 2.38546C20.4737 2.09546 20.9537 2.09546 21.2437 2.38546C21.5337 2.67546 21.5337 3.15546 21.2437 3.44546L19.8238 4.86534L21.2339 6.27546C21.5239 6.56546 21.5239 7.04546 21.2339 7.33546C21.0939 7.48546 20.9039 7.55546 20.7039 7.55546Z" fill="#002D85"/>
  <path d="M14.6529 7.16797C14.6529 8.46584 13.6008 9.51797 12.3029 9.51797C11.4327 9.51797 10.8252 9.48606 10.4009 9.41078C9.96759 9.3339 9.8372 9.22991 9.79656 9.18249C9.76596 9.14678 9.70514 9.04968 9.71821 8.71692C9.73145 8.37973 9.81305 7.93272 9.94052 7.29545C10.0231 6.88242 10.0838 6.49354 10.1332 6.17724C10.1583 6.01644 10.1804 5.8744 10.2011 5.75749C10.2715 5.35867 10.3323 5.1955 10.3946 5.10825C10.4285 5.06072 10.4971 4.9832 10.7814 4.91937C11.088 4.85053 11.5562 4.81797 12.3029 4.81797C13.6008 4.81797 14.6529 5.8701 14.6529 7.16797Z" stroke="#002D85" stroke-width="1.3"/>
</svg>