<svg xmlns="http://www.w3.org/2000/svg" width="24" height="24" viewBox="8 8 24 24" fill="none">
  <path fill-rule="evenodd" clip-rule="evenodd"
    d="M20 9.66699C25.9832 9.66699 30.8333 14.5171 30.8333 20.5003C30.8333 26.4836 25.9832 31.3337 20 31.3337C14.0167 31.3337 9.16663 26.4836 9.16663 20.5003C9.16663 14.5171 14.0167 9.66699 20 9.66699ZM20.5416 21.5837H13.825C13.5376 21.5837 13.2621 21.6978 13.0589 21.901C12.8558 22.1041 12.7416 22.3797 12.7416 22.667C12.7416 22.9543 12.8558 23.2299 13.0589 23.433C13.2621 23.6362 13.5376 23.7503 13.825 23.7503H14.3818L14.0709 24.3039C14.0013 24.4281 13.9569 24.5648 13.9401 24.7062C13.9234 24.8475 13.9347 24.9908 13.9733 25.1278C14.0119 25.2648 14.0772 25.3929 14.1653 25.5047C14.2534 25.6165 14.3627 25.7098 14.4869 25.7794C14.6111 25.849 14.7478 25.8934 14.8891 25.9101C15.0305 25.9269 15.1738 25.9156 15.3108 25.877C15.4478 25.8384 15.5759 25.7731 15.6877 25.685C15.7995 25.5969 15.8928 25.4876 15.9624 25.3634L16.8648 23.7503H20.5416C20.8289 23.7503 21.1045 23.6362 21.3077 23.433C21.5108 23.2299 21.625 22.9543 21.625 22.667C21.625 22.3797 21.5108 22.1041 21.3077 21.901C21.1045 21.6978 20.8289 21.5837 20.5416 21.5837ZM22.5924 18.3456C22.4591 18.1009 22.2367 17.917 21.9714 17.8321C21.7061 17.7471 21.4182 17.7676 21.1676 17.8894C20.9171 18.0111 20.723 18.2247 20.6258 18.4858C20.5286 18.7469 20.5357 19.0353 20.6456 19.2913L20.702 19.4051L24.0386 25.3634C24.1738 25.6043 24.3958 25.7845 24.6594 25.8671C24.923 25.9498 25.2081 25.9286 25.4566 25.808C25.7051 25.6873 25.8981 25.4763 25.9962 25.2181C26.0943 24.9599 26.09 24.6739 25.9843 24.4187L25.928 24.3039L25.6181 23.7514H26.175C26.4528 23.7536 26.7208 23.649 26.9237 23.4592C27.1265 23.2694 27.2487 23.0089 27.265 22.7316C27.2813 22.4542 27.1904 22.1812 27.0111 21.969C26.8318 21.7568 26.5779 21.6215 26.3017 21.5912L26.175 21.5837H24.4048L22.5924 18.3456ZM19.8624 13.4706C19.7291 13.2259 19.5067 13.042 19.2414 12.9571C18.9761 12.8721 18.6882 12.8926 18.4376 13.0144C18.1871 13.1361 17.993 13.3497 17.8958 13.6108C17.7986 13.8719 17.8057 14.1603 17.9156 14.4163L17.9709 14.5301L18.7585 15.9352L16.8009 19.43C16.6647 19.6713 16.6261 19.9556 16.6931 20.2245C16.7601 20.4934 16.9276 20.7263 17.1611 20.8755C17.3947 21.0247 17.6765 21.0787 17.9486 21.0264C18.2207 20.9742 18.4625 20.8196 18.6241 20.5946L18.6924 20.4884L22.029 14.5301C22.1671 14.2887 22.207 14.0035 22.1406 13.7335C22.0742 13.4634 21.9064 13.2293 21.6722 13.0795C21.4379 12.9298 21.155 12.8758 20.882 12.9288C20.6091 12.9818 20.3669 13.1378 20.2058 13.3644L20.1375 13.4706L20 13.7187L19.8624 13.4727V13.4706Z"
    fill="white" />
</svg>