<svg xmlns="http://www.w3.org/2000/svg" width="16" height="16" viewBox="0 0 16 16" fill="none">
  <path d="M5.83183 13.78C5.70516 13.78 5.5785 13.7333 5.4785 13.6333C5.28516 13.44 5.28516 13.12 5.4785 12.9267L9.82516 8.58001C10.1452 8.26001 10.1452 7.74001 9.82516 7.42001L5.4785 3.07335C5.28516 2.88001 5.28516 2.56001 5.4785 2.36668C5.67183 2.17335 5.99183 2.17335 6.18516 2.36668L10.5318 6.71335C10.8718 7.05335 11.0652 7.51335 11.0652 8.00001C11.0652 8.48668 10.8785 8.94668 10.5318 9.28668L6.18516 13.6333C6.08516 13.7267 5.9585 13.78 5.83183 13.78Z" fill="#787878"/>
</svg>