<svg xmlns="http://www.w3.org/2000/svg" width="20" height="20" viewBox="0 0 20 20" fill="none">
  <path d="M7.28966 17.2253C7.13133 17.2253 6.973 17.1669 6.848 17.0419C6.60633 16.8003 6.60633 16.4003 6.848 16.1586L12.2813 10.7253C12.6813 10.3253 12.6813 9.67526 12.2813 9.27526L6.848 3.84193C6.60633 3.60026 6.60633 3.20026 6.848 2.95859C7.08966 2.71693 7.48966 2.71693 7.73133 2.95859L13.1647 8.39193C13.5897 8.81693 13.8313 9.39193 13.8313 10.0003C13.8313 10.6086 13.598 11.1836 13.1647 11.6086L7.73133 17.0419C7.60633 17.1586 7.448 17.2253 7.28966 17.2253Z" fill="#013AA9"/>
</svg>