<svg xmlns="http://www.w3.org/2000/svg" width="24" height="24" viewBox="0 0 24 24" fill="none">
  <path fill-rule="evenodd" clip-rule="evenodd" d="M5.93181 7.93503C7.98485 4.92871 11.9725 3.76499 15.3045 5.27477C15.4657 5.3285 15.6806 5.27476 15.7343 5.11356C15.788 4.95237 15.7343 4.73746 15.5731 4.68373C11.8384 3.00045 7.48562 4.30401 5.28776 7.63651L4.88059 7.15531C5.04179 7.69263 4.98805 8.39113 4.93432 8.92844C5.36417 8.55233 5.90148 8.17621 6.38506 8.01501L5.93181 7.93503ZM18.3134 8.44486V8.76725C18.3134 8.82098 18.3672 8.87471 18.4209 8.87471H20.8925C20.9463 8.87471 21 8.82098 21 8.76725V8.44486C21 8.39113 20.9463 8.3374 20.8925 8.3374H18.4209C18.3672 8.3374 18.3134 8.39113 18.3134 8.44486ZM20.5701 9.19709V13.2807C20.5701 13.3344 20.5164 13.3881 20.4627 13.3881H18.8508C18.797 13.3881 18.7433 13.3344 18.7433 13.2807V9.19709C18.7433 9.14336 18.797 9.08963 18.8508 9.08963H20.4627C20.5164 9.08963 20.5701 9.14336 20.5701 9.19709ZM11.1672 8.44486V8.76725C11.1672 8.82098 11.2209 8.87471 11.2747 8.87471H13.7463C13.8 8.87471 13.8538 8.82098 13.8538 8.76725V8.44486C13.8538 8.39113 13.8 8.3374 13.7463 8.3374H11.2747C11.2209 8.3374 11.1672 8.39113 11.1672 8.44486ZM15.8955 5.38219L11.3284 7.4777C11.2209 7.53143 11.1672 7.63889 11.1135 7.80008V8.01501C11.1135 8.06874 11.1672 8.12247 11.2209 8.12247H20.8388C20.8925 8.12247 20.9463 8.06874 20.9463 8.01501V7.80008C20.9463 7.63889 20.8388 7.53143 20.7313 7.4777L16.1642 5.38219C16.0567 5.32845 16.003 5.32845 15.8955 5.38219ZM19.4418 7.53143H12.7254C12.6924 7.46539 12.6796 7.43993 12.6872 7.43012C12.692 7.42397 12.7047 7.42397 12.7254 7.42397L16.0567 6.02695H16.1105L19.4418 7.42397C19.4955 7.42397 19.4955 7.4777 19.4955 7.4777C19.4955 7.53143 19.4418 7.53143 19.4418 7.53143ZM14.7134 8.44486V8.76725C14.7134 8.82098 14.7672 8.87471 14.8209 8.87471H17.2925C17.3463 8.87471 17.4 8.82098 17.4 8.76725V8.44486C17.4 8.39113 17.3463 8.3374 17.2925 8.3374H14.8209C14.7672 8.3374 14.7134 8.39113 14.7134 8.44486ZM16.9702 9.19709V13.2807C16.9702 13.3344 16.9164 13.3881 16.8627 13.3881H15.2508C15.197 13.3881 15.1433 13.3344 15.1433 13.2807V9.19709C15.1433 9.14336 15.197 9.08963 15.2508 9.08963H16.8627C16.9164 9.08963 16.9702 9.14336 16.9702 9.19709ZM10.5224 11.7225V12.0986C10.5224 12.1523 10.5761 12.2061 10.6298 12.2061H13.2627C13.3164 12.2061 13.3701 12.1523 13.3701 12.0986V11.7225C13.3701 11.6688 13.3164 11.615 13.2627 11.615H10.6298C10.5761 11.615 10.5224 11.6688 10.5224 11.7225ZM12.9403 12.5285V16.827C12.9403 16.8807 12.8865 16.9344 12.8328 16.9344H11.1671C11.1134 16.9344 11.0597 16.8807 11.0597 16.827V12.5285C11.0597 12.4747 11.1134 12.421 11.1671 12.421H12.8328C12.8865 12.421 12.9403 12.4747 12.9403 12.5285ZM3 11.7225V12.0986C3 12.1523 3.05373 12.2061 3.10746 12.2061H5.74029C5.79402 12.2061 5.84775 12.1523 5.84775 12.0986V11.7225C5.84775 11.6688 5.79402 11.615 5.74029 11.615H3.10746C3.05373 11.615 3 11.6688 3 11.7225ZM8.05073 8.49862L3.21492 10.7016C3.10746 10.7553 3 10.8628 3.05373 11.024V11.2389C3.05373 11.2926 3.10746 11.3464 3.16119 11.3464H13.2627C13.3164 11.3464 13.3701 11.2926 13.3701 11.2389V11.024C13.3701 10.8628 13.2627 10.7553 13.1552 10.7016L8.31939 8.49862C8.26566 8.44489 8.15819 8.44489 8.05073 8.49862ZM11.7045 10.7553H4.66567C4.61194 10.6479 4.61194 10.6479 4.5582 10.6479L8.10446 9.14339H8.15819L11.7045 10.6479C11.7582 10.6479 11.7582 10.7016 11.7582 10.7016C11.7582 10.7553 11.7045 10.7553 11.7045 10.7553ZM3 17.2568V17.7404C3 17.7941 3.05373 17.8478 3.10746 17.8478H13.2089C13.2627 17.8478 13.3164 17.7941 13.3164 17.7404V17.2568C13.3164 17.2031 13.2627 17.1493 13.2089 17.1493H3.10746C3.05373 17.1493 3 17.2031 3 17.2568ZM5.4179 12.5285V16.827C5.4179 16.8807 5.36417 16.9344 5.31044 16.9344H3.64477C3.59104 16.9344 3.53731 16.8807 3.53731 16.827V12.5285C3.53731 12.4747 3.59104 12.421 3.64477 12.421H5.31044C5.36417 12.421 5.4179 12.4747 5.4179 12.5285ZM6.76118 11.7225V12.0986C6.76118 12.1523 6.81491 12.2061 6.86865 12.2061H9.50147C9.55521 12.2061 9.60894 12.1523 9.60894 12.0986V11.7225C9.60894 11.6688 9.55521 11.615 9.50147 11.615H6.86865C6.81491 11.615 6.76118 11.6688 6.76118 11.7225ZM9.17909 12.5285V16.827C9.17909 16.8807 9.12536 16.9344 9.07162 16.9344H7.40596C7.35223 16.9344 7.2985 16.8807 7.2985 16.827V12.5285C7.2985 12.4747 7.35223 12.421 7.40596 12.421H9.07162C9.12536 12.421 9.17909 12.4747 9.17909 12.5285ZM11.9194 20.0508C10.791 20.0508 9.66267 19.8359 8.58804 19.3523C8.42685 19.2986 8.37312 19.0837 8.42685 18.9225C8.48058 18.7613 8.69551 18.7076 8.8567 18.7613C12.2406 20.271 16.1793 19.1074 18.2293 16.1013L17.8836 16.0747L19.1732 15.0001L19.012 16.7195L18.7825 16.404C17.2467 18.7076 14.6079 20.0508 11.9194 20.0508Z" fill="#002D85"/>
</svg>