<svg xmlns="http://www.w3.org/2000/svg" width="68" height="68" viewBox="0 0 68 68" fill="none">
  <path d="M65.1666 64.458H2.83331C1.67165 64.458 0.708313 63.4947 0.708313 62.333C0.708313 61.1713 1.67165 60.208 2.83331 60.208H65.1666C66.3283 60.208 67.2917 61.1713 67.2917 62.333C67.2917 63.4947 66.3283 64.458 65.1666 64.458Z" fill="#013AA9"/>
  <path d="M56.0441 64.4873C54.8825 64.4873 53.9191 63.524 53.9191 62.3623V49.7256C53.9191 48.5639 54.8825 47.6006 56.0441 47.6006C57.2058 47.6006 58.1691 48.5639 58.1691 49.7256V62.3623C58.1691 63.524 57.2341 64.4873 56.0441 64.4873Z" fill="#013AA9"/>
  <path d="M56.1003 51.8504C51.482 51.8504 47.7419 48.1104 47.7419 43.4921V37.0605C47.7419 32.4422 51.482 28.7021 56.1003 28.7021C60.7186 28.7021 64.4587 32.4422 64.4587 37.0605V43.4921C64.4587 48.1104 60.7186 51.8504 56.1003 51.8504ZM56.1003 32.9805C53.8336 32.9805 51.9919 34.8222 51.9919 37.0889V43.5204C51.9919 45.7871 53.8336 47.6288 56.1003 47.6288C58.367 47.6288 60.2087 45.7871 60.2087 43.5204V37.0889C60.2087 34.8222 58.367 32.9805 56.1003 32.9805Z" fill="#013AA9"/>
  <path d="M40.5161 64.4583C39.3544 64.4583 38.3911 63.495 38.3911 62.3333V17.085C38.3911 12.58 36.4928 10.6533 32.0728 10.6533H14.4212C9.97287 10.6533 8.0462 12.58 8.0462 17.085V62.3333C8.0462 63.495 7.08287 64.4583 5.9212 64.4583C4.75954 64.4583 3.7962 63.495 3.7962 62.3333V17.085C3.7962 10.2 7.56454 6.40332 14.4212 6.40332H32.0728C38.9012 6.40332 42.6411 10.2 42.6411 17.085V62.3333C42.6411 63.495 41.6778 64.4583 40.5161 64.4583Z" fill="#013AA9"/>
  <path d="M30.4578 25.5H16.4328C15.2711 25.5 14.3078 24.5367 14.3078 23.375C14.3078 22.2133 15.2711 21.25 16.4328 21.25H30.4578C31.6195 21.25 32.5828 22.2133 32.5828 23.375C32.5828 24.5367 31.6195 25.5 30.4578 25.5Z" fill="#013AA9"/>
  <path d="M30.4578 36.125H16.4328C15.2711 36.125 14.3078 35.1617 14.3078 34C14.3078 32.8383 15.2711 31.875 16.4328 31.875H30.4578C31.6195 31.875 32.5828 32.8383 32.5828 34C32.5828 35.1617 31.6195 36.125 30.4578 36.125Z" fill="#013AA9"/>
  <path d="M23.375 64.458C22.2133 64.458 21.25 63.4947 21.25 62.333V51.708C21.25 50.5463 22.2133 49.583 23.375 49.583C24.5367 49.583 25.5 50.5463 25.5 51.708V62.333C25.5 63.4947 24.5367 64.458 23.375 64.458Z" fill="#013AA9"/>
</svg>