<svg xmlns="http://www.w3.org/2000/svg" width="25" height="25" viewBox="0 0 25 25" fill="none">
  <path d="M11.3847 15.45L9.53472 17.3C9.14472 17.69 8.52472 17.69 8.12472 17.31C8.01472 17.2 7.90472 17.1 7.79472 16.99C6.76472 15.95 5.83472 14.86 5.00472 13.72C4.18472 12.58 3.52472 11.44 3.04472 10.31C2.57472 9.17 2.33472 8.08 2.33472 7.04C2.33472 6.36 2.45472 5.71 2.69472 5.11C2.93472 4.5 3.31472 3.94 3.84472 3.44C4.48472 2.81 5.18472 2.5 5.92472 2.5C6.20472 2.5 6.48472 2.56 6.73472 2.68C6.99472 2.8 7.22472 2.98 7.40472 3.24L9.72472 6.51C9.90472 6.76 10.0347 6.99 10.1247 7.21C10.2147 7.42 10.2647 7.63 10.2647 7.82C10.2647 8.06 10.1947 8.3 10.0547 8.53C9.92472 8.76 9.73472 9 9.49472 9.24L8.73472 10.03C8.62472 10.14 8.57472 10.27 8.57472 10.43C8.57472 10.51 8.58472 10.58 8.60472 10.66C8.63472 10.74 8.66472 10.8 8.68472 10.86C8.86472 11.19 9.17472 11.62 9.61472 12.14C10.0647 12.66 10.5447 13.19 11.0647 13.72C11.1647 13.82 11.2747 13.92 11.3747 14.02C11.7747 14.41 11.7847 15.05 11.3847 15.45Z" fill="white"/>
  <path d="M22.3047 18.83C22.3047 19.11 22.2547 19.4 22.1547 19.68C22.1247 19.76 22.0947 19.84 22.0547 19.92C21.8847 20.28 21.6647 20.62 21.3747 20.94C20.8847 21.48 20.3447 21.87 19.7347 22.12C19.7247 22.12 19.7147 22.13 19.7047 22.13C19.1147 22.37 18.4747 22.5 17.7847 22.5C16.7647 22.5 15.6747 22.26 14.5247 21.77C13.3747 21.28 12.2247 20.62 11.0847 19.79C10.6947 19.5 10.3047 19.21 9.93469 18.9L13.2047 15.63C13.4847 15.84 13.7347 16 13.9447 16.11C13.9947 16.13 14.0547 16.16 14.1247 16.19C14.2047 16.22 14.2847 16.23 14.3747 16.23C14.5447 16.23 14.6747 16.17 14.7847 16.06L15.5447 15.31C15.7947 15.06 16.0347 14.87 16.2647 14.75C16.4947 14.61 16.7247 14.54 16.9747 14.54C17.1647 14.54 17.3647 14.58 17.5847 14.67C17.8047 14.76 18.0347 14.89 18.2847 15.06L21.5947 17.41C21.8547 17.59 22.0347 17.8 22.1447 18.05C22.2447 18.3 22.3047 18.55 22.3047 18.83Z" fill="white"/>
</svg>