<svg width="134" height="51" viewBox="0 0 134 51" fill="none" xmlns="http://www.w3.org/2000/svg">
<path d="M14.1005 34.1094V16.6548H17.2624V24.6747H17.4755L24.2852 16.6548H28.146L21.396 24.4872L28.2056 34.1094H24.4045L19.1971 26.6264L17.2624 28.9105V34.1094H14.1005Z" fill="#0C65CE"/>
<path d="M37.4197 22.2457H40.2834L41.9794 24.4446L43.1896 25.8764L46.0959 29.6094H43.0277L41.0504 27.1037L40.2067 25.9105L37.4197 22.2457ZM46.5135 19.3821C46.5135 21.2628 46.1612 22.8736 45.4567 24.2145C44.7578 25.5497 43.8033 26.5724 42.593 27.2827C41.3885 27.9929 40.022 28.348 38.4936 28.348C36.9652 28.348 35.5959 27.9929 34.3857 27.2827C33.1811 26.5668 32.2266 25.5412 31.522 24.206C30.8232 22.8651 30.4737 21.2571 30.4737 19.3821C30.4737 17.5014 30.8232 15.8935 31.522 14.5582C32.2266 13.2173 33.1811 12.1918 34.3857 11.4815C35.5959 10.7713 36.9652 10.4162 38.4936 10.4162C40.022 10.4162 41.3885 10.7713 42.593 11.4815C43.8033 12.1918 44.7578 13.2173 45.4567 14.5582C46.1612 15.8935 46.5135 17.5014 46.5135 19.3821ZM43.3345 19.3821C43.3345 18.0582 43.1271 16.9418 42.7124 16.0327C42.3033 15.1179 41.7351 14.4276 41.0078 13.9616C40.2805 13.4901 39.4425 13.2543 38.4936 13.2543C37.5447 13.2543 36.7067 13.4901 35.9794 13.9616C35.2521 14.4276 34.6811 15.1179 34.2663 16.0327C33.8572 16.9418 33.6527 18.0582 33.6527 19.3821C33.6527 20.706 33.8572 21.8253 34.2663 22.7401C34.6811 23.6491 35.2521 24.3395 35.9794 24.8111C36.7067 25.277 37.5447 25.5099 38.4936 25.5099C39.4425 25.5099 40.2805 25.277 41.0078 24.8111C41.7351 24.3395 42.3033 23.6491 42.7124 22.7401C43.1271 21.8253 43.3345 20.706 43.3345 19.3821Z" fill="#0C65CE"/>
<path d="M52.8466 7.65483H56.7159L61.8977 20.3026H62.1023L67.2841 7.65483H71.1534V25.1094H68.1193V13.1179H67.9574L63.1335 25.0582H60.8665L56.0426 13.0923H55.8807V25.1094H52.8466V7.65483Z" fill="#0C65CE"/>
<path d="M95.2795 37.1094H91.9045L98.0494 19.6548H101.953L108.106 37.1094H104.731L100.069 23.2344H99.9329L95.2795 37.1094ZM95.3903 30.2656H104.595V32.8054H95.3903V30.2656Z" fill="#0C65CE"/>
<path d="M85.9237 13.6548H89.0856V25.0582C89.0856 26.3082 88.7901 27.4077 88.1992 28.3565C87.614 29.3054 86.7901 30.0469 85.7276 30.581C84.6651 31.1094 83.4237 31.3736 82.0032 31.3736C80.5771 31.3736 79.3327 31.1094 78.2702 30.581C77.2077 30.0469 76.3839 29.3054 75.7987 28.3565C75.2134 27.4077 74.9208 26.3082 74.9208 25.0582V13.6548H78.0827V24.794C78.0827 25.5213 78.2418 26.169 78.56 26.7372C78.8839 27.3054 79.3384 27.7514 79.9237 28.0753C80.5089 28.3935 81.2021 28.5526 82.0032 28.5526C82.8043 28.5526 83.4975 28.3935 84.0827 28.0753C84.6737 27.7514 85.1282 27.3054 85.4464 26.7372C85.7646 26.169 85.9237 25.5213 85.9237 24.794V13.6548Z" fill="#0C65CE"/>
<path d="M4 40.1094C10.3089 33.3736 33.1869 20.8968 74.2278 24.8761C125.529 29.8502 127.023 36.6897 133 40.1094" stroke="black"/>
<path d="M1 25.1094L131 49.6094" stroke="black"/>
</svg>
