<svg xmlns="http://www.w3.org/2000/svg" width="24" height="24" viewBox="0 0 24 24" fill="none">
  <path d="M15 22.75H9C3.57 22.75 1.25 20.43 1.25 15V9C1.25 3.57 3.57 1.25 9 1.25H15C20.43 1.25 22.75 3.57 22.75 9V15C22.75 20.43 20.43 22.75 15 22.75ZM9 2.75C4.39 2.75 2.75 4.39 2.75 9V15C2.75 19.61 4.39 21.25 9 21.25H15C19.61 21.25 21.25 19.61 21.25 15V9C21.25 4.39 19.61 2.75 15 2.75H9Z" fill="#002D85"/>
  <path d="M10.5799 15.5816C10.3799 15.5816 10.1899 15.5016 10.0499 15.3616L7.21994 12.5316C6.92994 12.2416 6.92994 11.7616 7.21994 11.4716C7.50994 11.1816 7.98994 11.1816 8.27994 11.4716L10.5799 13.7716L15.7199 8.63156C16.0099 8.34156 16.4899 8.34156 16.7799 8.63156C17.0699 8.92156 17.0699 9.40156 16.7799 9.69156L11.1099 15.3616C10.9699 15.5016 10.7799 15.5816 10.5799 15.5816Z" fill="#002D85"/>
</svg>