<svg xmlns="http://www.w3.org/2000/svg" width="24" height="24" viewBox="0 0 24 24" fill="none">
  <path d="M11.1 22.25H6.9C5.00744 22.25 3.75221 21.8276 2.9623 21.0377C2.1724 20.2478 1.75 18.9926 1.75 17.1V12.9C1.75 11.0074 2.1724 9.75221 2.9623 8.9623C3.75221 8.1724 5.00744 7.75 6.9 7.75H11.1C12.9926 7.75 14.2478 8.1724 15.0377 8.9623C15.8276 9.75221 16.25 11.0074 16.25 12.9V17.1C16.25 18.9926 15.8276 20.2478 15.0377 21.0377C14.2478 21.8276 12.9926 22.25 11.1 22.25ZM6.9 8.25C5.32045 8.25 4.10653 8.51136 3.30895 9.30895C2.51136 10.1065 2.25 11.3205 2.25 12.9V17.1C2.25 18.6795 2.51136 19.8935 3.30895 20.6911C4.10653 21.4886 5.32045 21.75 6.9 21.75H11.1C12.6795 21.75 13.8935 21.4886 14.6911 20.6911C15.4886 19.8935 15.75 18.6795 15.75 17.1V12.9C15.75 11.3205 15.4886 10.1065 14.6911 9.30895C13.8935 8.51136 12.6795 8.25 11.1 8.25H6.9Z" fill="#292D32" stroke="#777777"/>
  <path d="M16.25 15.25V15.75H16.75H17.1C18.6795 15.75 19.8935 15.4886 20.6911 14.6911C21.4886 13.8935 21.75 12.6795 21.75 11.1V6.9C21.75 5.32045 21.4886 4.10653 20.6911 3.30895C19.8935 2.51136 18.6795 2.25 17.1 2.25H12.9C11.3205 2.25 10.1065 2.51136 9.30895 3.30895C8.51136 4.10653 8.25 5.32045 8.25 6.9V7.25V7.75H8.75H11.1C12.9926 7.75 14.2478 8.1724 15.0377 8.9623C15.8276 9.75221 16.25 11.0074 16.25 12.9V15.25ZM17.1 16.25H16C15.8661 16.25 15.75 16.1339 15.75 16V12.9C15.75 11.3205 15.4886 10.1065 14.6911 9.30895C13.8935 8.51136 12.6795 8.25 11.1 8.25H8C7.86614 8.25 7.75 8.13386 7.75 8V6.9C7.75 5.00744 8.1724 3.75221 8.9623 2.9623C9.75221 2.1724 11.0074 1.75 12.9 1.75H17.1C18.9926 1.75 20.2478 2.1724 21.0377 2.9623C21.8276 3.75221 22.25 5.00744 22.25 6.9V11.1C22.25 12.9926 21.8276 14.2478 21.0377 15.0377C20.2478 15.8276 18.9926 16.25 17.1 16.25Z" fill="#777777" stroke="#777777"/>
</svg>