<svg xmlns="http://www.w3.org/2000/svg" width="32" height="32" viewBox="0 0 32 32" fill="none">
  <path d="M17.8666 23.2268H14.52C12.3333 23.2268 10.56 21.3868 10.56 19.1201C10.56 18.5734 11.0133 18.1201 11.56 18.1201C12.1066 18.1201 12.56 18.5734 12.56 19.1201C12.56 20.2801 13.44 21.2268 14.52 21.2268H17.8666C18.7333 21.2268 19.4533 20.4534 19.4533 19.5201C19.4533 18.3601 19.04 18.1334 18.36 17.8934L12.9866 16.0001C11.9466 15.6401 10.5466 14.8668 10.5466 12.4801C10.5466 10.4268 12.16 8.77344 14.1333 8.77344H17.48C19.6666 8.77344 21.44 10.6134 21.44 12.8801C21.44 13.4268 20.9866 13.8801 20.44 13.8801C19.8933 13.8801 19.44 13.4268 19.44 12.8801C19.44 11.7201 18.56 10.7734 17.48 10.7734H14.1333C13.2666 10.7734 12.5466 11.5468 12.5466 12.4801C12.5466 13.6401 12.96 13.8668 13.64 14.1068L19.0133 16.0001C20.0533 16.3601 21.4533 17.1334 21.4533 19.5201C21.44 21.5601 19.84 23.2268 17.8666 23.2268Z" fill="#013AA9"/>
  <path d="M16 25C15.4533 25 15 24.5467 15 24V8C15 7.45333 15.4533 7 16 7C16.5467 7 17 7.45333 17 8V24C17 24.5467 16.5467 25 16 25Z" fill="#013AA9"/>
  <path d="M16 30.3337C8.09329 30.3337 1.66663 23.907 1.66663 16.0003C1.66663 8.09366 8.09329 1.66699 16 1.66699C23.9066 1.66699 30.3333 8.09366 30.3333 16.0003C30.3333 23.907 23.9066 30.3337 16 30.3337ZM16 3.66699C9.19996 3.66699 3.66663 9.20033 3.66663 16.0003C3.66663 22.8003 9.19996 28.3337 16 28.3337C22.8 28.3337 28.3333 22.8003 28.3333 16.0003C28.3333 9.20033 22.8 3.66699 16 3.66699Z" fill="#013AA9"/>
</svg>