<svg xmlns="http://www.w3.org/2000/svg" width="32" height="32" viewBox="0 0 32 32" fill="none">
  <path d="M23.6533 30.333H8.34666C5.02666 30.333 2.33333 27.6397 2.33333 24.3197V15.3464C2.33333 12.0264 5.02666 9.33301 8.34666 9.33301H23.6533C26.9733 9.33301 29.6667 12.0264 29.6667 15.3464V17.2664C29.6667 17.813 29.2133 18.2664 28.6667 18.2664H25.9733C25.5067 18.2664 25.08 18.4397 24.7733 18.7597L24.76 18.773C24.3867 19.133 24.2133 19.6263 24.2533 20.133C24.3333 21.013 25.1733 21.7196 26.1333 21.7196H28.6667C29.2133 21.7196 29.6667 22.173 29.6667 22.7196V24.3063C29.6667 27.6396 26.9733 30.333 23.6533 30.333ZM8.34666 11.333C6.13333 11.333 4.33333 13.133 4.33333 15.3464V24.3197C4.33333 26.533 6.13333 28.333 8.34666 28.333H23.6533C25.8667 28.333 27.6667 26.533 27.6667 24.3197V23.733H26.1333C24.12 23.733 22.4133 22.2397 22.2533 20.3197C22.1467 19.2263 22.5467 18.1464 23.3467 17.3597C24.04 16.653 24.9733 16.2664 25.9733 16.2664H27.6667V15.3464C27.6667 13.133 25.8667 11.333 23.6533 11.333H8.34666Z" fill="#5C657A"/>
  <path d="M3.33333 17.547C2.78666 17.547 2.33333 17.0937 2.33333 16.547V10.4537C2.33333 8.46707 3.58666 6.667 5.43999 5.96033L16.0267 1.96033C17.12 1.547 18.3333 1.69373 19.28 2.3604C20.24 3.02706 20.8 4.10705 20.8 5.26705V10.3337C20.8 10.8804 20.3467 11.3337 19.8 11.3337C19.2533 11.3337 18.8 10.8804 18.8 10.3337V5.26705C18.8 4.76039 18.56 4.2937 18.1333 4.00037C17.7067 3.70704 17.2 3.64037 16.72 3.82703L6.13333 7.82703C5.05333 8.24037 4.31999 9.29374 4.31999 10.4537V16.547C4.33333 17.107 3.87999 17.547 3.33333 17.547Z" fill="#5C657A"/>
  <path d="M26.1333 23.7332C24.1199 23.7332 22.4133 22.2399 22.2533 20.3199C22.1466 19.2132 22.5466 18.1333 23.3466 17.3466C24.0266 16.6533 24.9599 16.2666 25.9599 16.2666H28.7332C30.0532 16.3066 31.0666 17.3465 31.0666 18.6265V21.3733C31.0666 22.6533 30.0532 23.6932 28.7732 23.7332H26.1333ZM28.7066 18.2666H25.9732C25.5066 18.2666 25.0799 18.4399 24.7732 18.7599C24.3866 19.1333 24.1999 19.6399 24.2533 20.1466C24.3333 21.0266 25.1733 21.7332 26.1333 21.7332H28.7466C28.9199 21.7332 29.0799 21.5733 29.0799 21.3733V18.6265C29.0799 18.4265 28.9199 18.2799 28.7066 18.2666Z" fill="#5C657A"/>
  <path d="M18.6667 17H9.33333C8.78666 17 8.33333 16.5467 8.33333 16C8.33333 15.4533 8.78666 15 9.33333 15H18.6667C19.2133 15 19.6667 15.4533 19.6667 16C19.6667 16.5467 19.2133 17 18.6667 17Z" fill="#5C657A"/>
</svg>