<svg xmlns="http://www.w3.org/2000/svg" width="20" height="20" viewBox="0 0 20 20" fill="none">
  <path fill-rule="evenodd" clip-rule="evenodd" d="M9.9833 6.98592C9.73013 6.7357 9.32205 6.73809 9.07183 6.99126L7.03274 9.05437L5.39945 7.50558C5.14115 7.26065 4.73321 7.27148 4.48828 7.52977C4.24334 7.78807 4.25418 8.19601 4.51247 8.44094L6.1264 9.97138L4.42965 11.6881C4.17942 11.9413 4.18181 12.3494 4.43498 12.5996C4.68815 12.8498 5.09624 12.8474 5.34646 12.5943L7.06197 10.8585L9.4189 13.0936C9.6772 13.3385 10.0851 13.3277 10.3301 13.0694C10.575 12.8111 10.5642 12.4031 10.3059 12.1582L7.9683 9.94154L9.98864 7.8974C10.2389 7.64423 10.2365 7.23614 9.9833 6.98592Z" fill="#002D85"/>
  <path fill-rule="evenodd" clip-rule="evenodd" d="M4.12968 2.24882C5.32239 1.87178 8.28485 1.09863 10.4843 1.09863C11.6839 1.09863 12.5339 1.47258 13.0762 2.05152C13.2093 2.19363 13.3193 2.34337 13.4091 2.49578C16.453 2.78526 18.834 5.34886 18.834 8.46858V11.5305C18.834 14.8249 16.1789 17.4992 12.8919 17.5302C12.7133 17.7971 12.5041 18.0235 12.272 18.2117C11.5529 18.7949 10.7032 18.9393 10.1159 18.8921L10.1007 18.8909L10.0856 18.8891C9.02803 18.76 6.37391 18.3898 4.20177 17.9375C3.51613 17.7948 2.92127 17.6176 2.46095 17.2932C1.9569 16.9379 1.68468 16.46 1.53418 15.8812C1.394 15.342 1.34879 14.671 1.31346 13.881C1.30366 13.6619 1.29459 13.4304 1.28494 13.1844L1.28494 13.1844C1.2587 12.5151 1.22825 11.7384 1.16759 10.8119L1.16602 10.7878V5.46369C1.16602 4.35164 1.57642 3.59243 2.23824 3.0857C2.78113 2.67003 3.46637 2.45609 3.99321 2.29161C4.04002 2.27699 4.08558 2.26277 4.12968 2.24882ZM13.6861 6.663C13.7018 5.89776 13.7169 5.18449 13.7302 4.56938C15.5078 4.97631 16.834 6.56757 16.834 8.46858V11.5305C16.834 13.5024 15.4072 15.141 13.5297 15.4702C13.5368 15.3591 13.5408 15.2451 13.5418 15.1281C13.5456 14.6393 13.5533 14.0266 13.5635 13.336H15.1575C15.5225 13.336 15.8183 13.0402 15.8183 12.6752C15.8183 12.3102 15.5225 12.0144 15.1575 12.0144H13.5845C13.5918 11.5765 13.5998 11.1223 13.6082 10.6602H15.1575C15.5225 10.6602 15.8183 10.3644 15.8183 9.99941C15.8183 9.63445 15.5225 9.33858 15.1575 9.33858H13.6329C13.6416 8.88447 13.6504 8.43059 13.6593 7.98467H15.1575C15.5225 7.98467 15.8183 7.6888 15.8183 7.32384C15.8183 6.95887 15.5225 6.663 15.1575 6.663H13.6861ZM10.4843 2.57611C8.52016 2.57611 5.73546 3.29074 4.57503 3.65758L4.50812 3.67872L4.50811 3.67872C3.90618 3.86881 3.46298 4.00877 3.13644 4.2588C2.8686 4.46388 2.64349 4.77394 2.64349 5.46369V10.7396C2.70448 11.6767 2.73579 12.4753 2.76196 13.1428C2.77141 13.3838 2.78019 13.6078 2.78946 13.815C2.82574 14.6263 2.86913 15.1441 2.96411 15.5094C3.04878 15.835 3.15829 15.9771 3.31212 16.0855C3.50967 16.2248 3.84883 16.3549 4.50294 16.4911C6.60653 16.9291 9.19843 17.2919 10.2476 17.4204C10.5286 17.4395 10.9742 17.362 11.3413 17.0642C11.6857 16.7848 12.0554 16.2348 12.0643 15.1163C12.085 12.5158 12.2105 6.4454 12.2706 3.73874L12.2708 3.73206L12.271 3.72539C12.2769 3.57952 12.2213 3.30006 11.9979 3.06154C11.7917 2.84142 11.3664 2.57611 10.4843 2.57611Z" fill="#002D85"/>
</svg>