<svg xmlns="http://www.w3.org/2000/svg" width="68" height="68" viewBox="0 0 68 68" fill="none">
  <path d="M34.4523 32.9237C34.3673 32.9237 34.3106 32.9237 34.2256 32.9237C34.0839 32.8953 33.8856 32.8953 33.7156 32.9237C25.4989 32.6687 19.2939 26.2087 19.2939 18.247C19.2939 10.1437 25.8956 3.54199 33.9989 3.54199C42.1023 3.54199 48.7039 10.1437 48.7039 18.247C48.6756 26.2087 42.4423 32.6687 34.5373 32.9237C34.5089 32.9237 34.4806 32.9237 34.4523 32.9237ZM33.9989 7.79199C28.2473 7.79199 23.5439 12.4953 23.5439 18.247C23.5439 23.9137 27.9639 28.4753 33.6023 28.6737C33.7439 28.6453 34.1406 28.6453 34.5089 28.6737C40.0623 28.4187 44.4256 23.857 44.4539 18.247C44.4539 12.4953 39.7506 7.79199 33.9989 7.79199Z" fill="#013AA9"/>
  <path d="M34.4806 63.8913C28.9272 63.8913 23.3456 62.4747 19.1239 59.6413C15.1856 57.0347 13.0322 53.4647 13.0322 49.583C13.0322 45.7013 15.1856 42.103 19.1239 39.468C27.6239 33.8297 41.3939 33.8297 49.8372 39.468C53.7472 42.0747 55.9289 45.6447 55.9289 49.5263C55.9289 53.408 53.7756 57.0063 49.8372 59.6413C45.5872 62.4747 40.0339 63.8913 34.4806 63.8913ZM21.4756 43.038C18.7556 44.8513 17.2822 47.1747 17.2822 49.6113C17.2822 52.0197 18.7839 54.343 21.4756 56.128C28.5306 60.8597 40.4306 60.8597 47.4856 56.128C50.2056 54.3147 51.6789 51.9913 51.6789 49.5547C51.6789 47.1463 50.1772 44.823 47.4856 43.038C40.4306 38.3347 28.5306 38.3347 21.4756 43.038Z" fill="#013AA9"/>
</svg>