<svg xmlns="http://www.w3.org/2000/svg" width="20" height="20" viewBox="0 0 20 20" fill="none">
  <path fill-rule="evenodd" clip-rule="evenodd" d="M8.13399 13.0142C7.97399 13.0142 7.81399 12.9534 7.69233 12.8309C7.07733 12.2167 6.73816 11.4001 6.73816 10.5317C6.73816 8.73174 8.20149 7.26758 9.99983 7.26758C10.8648 7.26758 11.7048 7.61674 12.304 8.22591C12.5457 8.47258 12.5432 8.86758 12.2965 9.10924C12.0507 9.35258 11.6557 9.34841 11.4132 9.10341C11.0473 8.73091 10.5323 8.51758 9.99983 8.51758C8.89066 8.51758 7.98816 9.42091 7.98816 10.5317C7.98816 11.0659 8.19733 11.5692 8.57566 11.9476C8.81983 12.1917 8.81983 12.5867 8.57649 12.8309C8.45399 12.9534 8.29399 13.0142 8.13399 13.0142Z" fill="#5C657A"/>
  <path fill-rule="evenodd" clip-rule="evenodd" d="M10.4729 13.7426C10.177 13.7426 9.91368 13.5309 9.85868 13.2293C9.79702 12.8901 10.022 12.5643 10.362 12.5026C11.1787 12.3543 11.8254 11.7059 11.972 10.8884C12.0337 10.5493 12.3587 10.3259 12.6979 10.3843C13.0379 10.4451 13.2637 10.7701 13.2029 11.1101C12.9637 12.4376 11.912 13.4909 10.5854 13.7326C10.5479 13.7393 10.5095 13.7426 10.4729 13.7426Z" fill="#5C657A"/>
  <mask id="mask0_1877_2506" style="mask-type:luminance" maskUnits="userSpaceOnUse" x="1" y="3" width="15" height="13">
    <path fill-rule="evenodd" clip-rule="evenodd" d="M1.66669 3.85449H15.0719V15.6029H1.66669V3.85449Z" fill="white"/>
  </mask>
  <g mask="url(#mask0_1877_2506)">
    <path fill-rule="evenodd" clip-rule="evenodd" d="M5.54538 15.6029C5.41038 15.6029 5.27454 15.5588 5.15954 15.4696C3.75038 14.3629 2.55954 12.7404 1.71788 10.7788C1.64954 10.6204 1.64954 10.4421 1.71788 10.2846C2.56871 8.3146 3.76704 6.68376 5.18371 5.5696C8.07204 3.28376 11.917 3.27626 14.8345 5.58626C15.1054 5.80043 15.1512 6.19376 14.937 6.4646C14.722 6.73376 14.3304 6.78126 14.0587 6.56626C11.587 4.6096 8.40288 4.61626 5.95788 6.55127C4.76121 7.49293 3.73371 8.8646 2.97538 10.5329C3.72621 12.1913 4.74454 13.5546 5.93204 14.4863C6.20371 14.6996 6.25038 15.0929 6.03704 15.3638C5.91371 15.5204 5.73038 15.6029 5.54538 15.6029Z" fill="#5C657A"/>
  </g>
  <mask id="mask1_1877_2506" style="mask-type:luminance" maskUnits="userSpaceOnUse" x="7" y="7" width="12" height="11">
    <path fill-rule="evenodd" clip-rule="evenodd" d="M7.26459 7.28418H18.3334V17.241H7.26459V7.28418Z" fill="white"/>
  </mask>
  <g mask="url(#mask1_1877_2506)">
    <path fill-rule="evenodd" clip-rule="evenodd" d="M10.0001 17.241C9.21928 17.241 8.44261 17.1144 7.69261 16.8652C7.36511 16.756 7.18761 16.4019 7.29678 16.0744C7.40595 15.746 7.75845 15.5719 8.08761 15.6785C8.71011 15.886 9.35345 15.991 10.0001 15.991C12.8568 15.991 15.4676 13.956 17.0251 10.5302C16.6451 9.69768 16.2026 8.94352 15.7076 8.28518C15.5001 8.00935 15.5551 7.61685 15.8309 7.40935C16.1059 7.20185 16.4984 7.25852 16.7059 7.53352C17.3093 8.33435 17.8393 9.26018 18.2818 10.2819C18.3509 10.4402 18.3509 10.6202 18.2818 10.7777C16.5351 14.8252 13.4393 17.241 10.0001 17.241Z" fill="#5C657A"/>
  </g>
  <mask id="mask2_1877_2506" style="mask-type:luminance" maskUnits="userSpaceOnUse" x="2" y="3" width="16" height="15">
    <path fill-rule="evenodd" clip-rule="evenodd" d="M2.80298 3.33398H17.1976V17.7282H2.80298V3.33398Z" fill="white"/>
  </mask>
  <g mask="url(#mask2_1877_2506)">
    <path fill-rule="evenodd" clip-rule="evenodd" d="M3.42777 17.7278C3.26777 17.7278 3.10777 17.667 2.9861 17.5445C2.74194 17.3003 2.74194 16.9053 2.9861 16.6611L16.1311 3.51613C16.3753 3.27197 16.7703 3.27197 17.0144 3.51613C17.2586 3.7603 17.2586 4.15613 17.0144 4.4003L3.86944 17.5445C3.74777 17.667 3.58777 17.7278 3.42777 17.7278Z" fill="#5C657A"/>
  </g>
</svg>