<svg xmlns="http://www.w3.org/2000/svg" width="24" height="24" viewBox="0 0 24 24" fill="none">
  <path d="M4.89747 7.71156L4.89776 7.71133L9.38913 4.21156C10.5942 3.27429 12.5515 3.22855 13.8022 4.10696L13.8026 4.10724L18.9526 7.71557L18.9533 7.71608C19.3817 8.01489 19.783 8.50117 20.0775 9.06513C20.3721 9.62911 20.5417 10.2359 20.5417 10.7577V16.8243C20.5417 18.8698 18.8777 20.541 16.825 20.541H7.17499C5.12287 20.541 3.45832 18.8703 3.45832 16.816V10.641C3.45832 10.1531 3.61121 9.57656 3.87816 9.033C4.14503 8.48957 4.5089 8.01378 4.89747 7.71156ZM5.15222 8.03733L5.15221 8.03732L5.15029 8.03884C4.79057 8.32256 4.47696 8.76109 4.25432 9.21315C4.03194 9.66469 3.87499 10.1812 3.87499 10.641V16.816C3.87499 18.6362 5.35164 20.1243 7.17499 20.1243H16.825C18.6468 20.1243 20.125 18.6461 20.125 16.8243V10.7577C20.125 10.2699 19.9538 9.72581 19.708 9.25454C19.4628 8.78447 19.1152 8.33299 18.7122 8.05678L13.5643 4.44993C13.0024 4.05558 12.2813 3.88125 11.5878 3.8963C10.8946 3.91134 10.1834 4.11667 9.64389 4.53733C9.64384 4.53736 9.6438 4.53739 9.64376 4.53742L5.15222 8.03733Z" fill="#777777" stroke="#DBDBDB" stroke-width="0.833333"/>
  <path d="M12 17.2083C11.8885 17.2083 11.7917 17.1115 11.7917 17V14.5C11.7917 14.3885 11.8885 14.2917 12 14.2917C12.1115 14.2917 12.2083 14.3885 12.2083 14.5V17C12.2083 17.1115 12.1115 17.2083 12 17.2083Z" fill="#DBDBDB" stroke="#DBDBDB" stroke-width="0.833333"/>
</svg>