<svg xmlns="http://www.w3.org/2000/svg" xmlns:xlink="http://www.w3.org/1999/xlink">
  <defs>
    <symbol id="dollar-circle" viewBox="0 0 48 48" fill="currentColor">
      <path
        d="M26.7451 34.9805H21.8235C18.6079 34.9805 16 32.2746 16 28.9413C16 28.1373 16.6667 27.4707 17.4706 27.4707C18.2745 27.4707 18.9412 28.1373 18.9412 28.9413C18.9412 30.6472 20.2353 32.0393 21.8235 32.0393H26.7451C28.0196 32.0393 29.0784 30.9021 29.0784 29.5295C29.0784 27.8236 28.4706 27.4903 27.4706 27.1373L19.5686 24.353C18.0392 23.8236 15.9804 22.6864 15.9804 19.1766C15.9804 16.157 18.353 13.7256 21.2549 13.7256H26.1765C29.3922 13.7256 32 16.4315 32 19.7648C32 20.5687 31.3333 21.2354 30.5294 21.2354C29.7255 21.2354 29.0588 20.5687 29.0588 19.7648C29.0588 18.0589 27.7647 16.6668 26.1765 16.6668H21.2549C19.9804 16.6668 18.9216 17.804 18.9216 19.1766C18.9216 20.8824 19.5294 21.2158 20.5294 21.5687L28.4314 24.353C29.9608 24.8824 32.0196 26.0197 32.0196 29.5295C32 32.5295 29.6471 34.9805 26.7451 34.9805Z" />
      <path
        d="M24 37.5878C23.1961 37.5878 22.5294 36.9211 22.5294 36.1172V12.5878C22.5294 11.7839 23.1961 11.1172 24 11.1172C24.8039 11.1172 25.4706 11.7839 25.4706 12.5878V36.1172C25.4706 36.9211 24.8039 37.5878 24 37.5878Z" />
      <path
        d="M24 45.4313C12.3725 45.4313 2.92157 35.9803 2.92157 24.3528C2.92157 12.7254 12.3725 3.27441 24 3.27441C35.6274 3.27441 45.0784 12.7254 45.0784 24.3528C45.0784 35.9803 35.6274 45.4313 24 45.4313ZM24 6.21559C14 6.21559 5.86275 14.3528 5.86275 24.3528C5.86275 34.3528 14 42.4901 24 42.4901C34 42.4901 42.1373 34.3528 42.1373 24.3528C42.1373 14.3528 34 6.21559 24 6.21559Z" />
    </symbol>

    <symbol id="chart" viewBox="0 0 48 48" fill="currentColor">
      <path
        d="M41.647 45.4314H6.35291C5.54899 45.4314 4.88232 44.7647 4.88232 43.9608C4.88232 43.1569 5.54899 42.4902 6.35291 42.4902H41.647C42.4509 42.4902 43.1176 43.1569 43.1176 43.9608C43.1176 44.7647 42.4509 45.4314 41.647 45.4314Z" />
      <path
        d="M11.4509 39.5489H8.3137C6.43134 39.5489 4.88232 37.9999 4.88232 36.1175V19.2156C4.88232 17.3332 6.43134 15.7842 8.3137 15.7842H11.4509C13.3333 15.7842 14.8823 17.3332 14.8823 19.2156V36.1175C14.8823 37.9999 13.3333 39.5489 11.4509 39.5489ZM8.3137 18.7057C8.03919 18.7057 7.8235 18.9214 7.8235 19.1959V36.1175C7.8235 36.392 8.03919 36.6077 8.3137 36.6077H11.4509C11.7254 36.6077 11.9411 36.392 11.9411 36.1175V19.2156C11.9411 18.941 11.7254 18.7254 11.4509 18.7254H8.3137V18.7057Z" />
      <path
        d="M25.5689 39.5489H22.4317C20.5494 39.5489 19.0004 37.9999 19.0004 36.1175V12.9607C19.0004 11.0783 20.5494 9.5293 22.4317 9.5293H25.5689C27.4513 9.5293 29.0003 11.0783 29.0003 12.9607V36.1175C29.0003 37.9999 27.4513 39.5489 25.5689 39.5489ZM22.4317 12.4705C22.1572 12.4705 21.9415 12.6862 21.9415 12.9607V36.1175C21.9415 36.392 22.1572 36.6077 22.4317 36.6077H25.5689C25.8435 36.6077 26.0591 36.392 26.0591 36.1175V12.9607C26.0591 12.6862 25.8435 12.4705 25.5689 12.4705H22.4317Z" />
      <path
        d="M39.686 39.5489H36.5488C34.6665 39.5489 33.1174 37.9999 33.1174 36.1176V6.70579C33.1174 4.82343 34.6665 3.27441 36.5488 3.27441H39.686C41.5684 3.27441 43.1174 4.82343 43.1174 6.70579V36.1176C43.1174 37.9999 41.5684 39.5489 39.686 39.5489ZM36.5488 6.21559C36.2743 6.21559 36.0586 6.43128 36.0586 6.70579V36.1176C36.0586 36.3921 36.2743 36.6077 36.5488 36.6077H39.686C39.9605 36.6077 40.1762 36.3921 40.1762 36.1176V6.70579C40.1762 6.43128 39.9605 6.21559 39.686 6.21559H36.5488Z" />
    </symbol>

    <symbol id="map" viewBox="0 0 48 48" fill="currentColor">
      <path
        d="M40.4313 42.2544C40.0392 42.2544 39.6666 42.0976 39.3921 41.8231L26.8823 29.3133C26.3137 28.7446 26.3137 27.8035 26.8823 27.2348L42.0392 12.078C42.4117 11.7054 42.9803 11.5682 43.4901 11.7054C43.9999 11.8623 44.3921 12.2741 44.5097 12.7839C44.8823 14.4505 45.0784 16.3133 45.0784 18.4701V30.2348C45.0784 35.6662 43.9411 39.3329 41.4705 41.8231C41.196 42.0976 40.7842 42.1564 40.4313 42.2544ZM29.9999 28.274L40.3137 38.5878C41.549 36.6858 42.1372 33.9799 42.1372 30.2348V18.4701C42.1372 17.6662 42.1176 16.9211 42.0587 16.2152L29.9999 28.274Z" />
      <path
        d="M12.7646 44.9019C12.647 44.9019 12.549 44.8823 12.4313 44.8627C5.94113 43.3725 2.92151 38.7254 2.92151 30.2352V18.4705C2.92151 7.82343 7.47053 3.27441 18.1176 3.27441H29.8823C38.3725 3.27441 43.0195 6.29403 44.5097 12.7842C44.6274 13.2744 44.4705 13.8038 44.1176 14.1568L13.8038 44.4705C13.5293 44.745 13.1568 44.9019 12.7646 44.9019ZM18.1176 6.21559C9.07837 6.21559 5.86269 9.43128 5.86269 18.4705V30.2352C5.86269 37.0391 7.74505 40.4509 12.3137 41.8038L41.4313 12.6862C40.098 8.11756 36.6666 6.23519 29.8627 6.23519H18.1176V6.21559Z" />
      <path
        d="M29.8821 45.4311H18.1174C15.9606 45.4311 14.1174 45.2547 12.4312 44.8625C11.9017 44.7449 11.4899 44.3527 11.3527 43.8429C11.1958 43.3331 11.3527 42.7841 11.7252 42.3919L26.8821 27.2351C27.4508 26.6664 28.3919 26.6664 28.9606 27.2351L41.4704 39.7449C41.7449 40.0194 41.9017 40.3919 41.9017 40.7841C41.9017 41.1762 41.7449 41.5488 41.4704 41.8233C38.9802 44.2939 35.3135 45.4311 29.8821 45.4311ZM15.8625 42.4115C16.5684 42.4704 17.3135 42.49 18.1174 42.49H29.8821C33.6468 42.49 36.3331 41.9017 38.2351 40.6665L27.9213 30.3527L15.8625 42.4115Z" />
      <path
        d="M18.3528 26.9208C17.1175 26.9208 15.8822 26.4698 14.9018 25.5482C11.7842 22.5874 10.5293 19.3326 11.2744 16.1561C12.0195 12.9012 14.8626 10.7051 18.3528 10.7051C21.843 10.7051 24.6862 12.9012 25.4313 16.1561C26.1568 19.3522 24.9018 22.5874 21.7842 25.5482C20.8234 26.4502 19.5881 26.9208 18.3528 26.9208ZM14.1371 16.8031C13.5097 19.4698 15.3136 21.862 16.941 23.411C17.745 24.1757 18.9803 24.1757 19.7646 23.411C21.3724 21.8816 23.1763 19.4894 22.5685 16.8031C22.0391 14.4698 19.9606 13.6267 18.3528 13.6267C16.745 13.6267 14.6861 14.4698 14.1371 16.8031Z" />
      <path
        d="M18.4116 19.4313C17.3332 19.4313 16.4508 18.549 16.4508 17.4706C16.4508 16.3921 17.3136 15.5098 18.4116 15.5098H18.4312C19.5096 15.5098 20.392 16.3921 20.392 17.4706C20.392 18.549 19.49 19.4313 18.4116 19.4313Z" />
    </symbol>

    <symbol id="message-question" viewBox="0 0 48 48" fill="currentColor">
      <path
        d="M16.1568 44.5876C15.6078 44.5876 15.0391 44.4504 14.5293 44.1759C13.4117 43.5877 12.7254 42.4111 12.7254 41.1562V38.3721C6.80386 37.7642 2.92151 33.4111 2.92151 27.1758V15.4112C2.92151 8.66613 7.45092 4.13672 14.196 4.13672H33.8039C40.549 4.13672 45.0784 8.66613 45.0784 15.4112V27.1758C45.0784 33.9209 40.549 38.4503 33.8039 38.4503H26.4117L18.0587 44.0191C17.4901 44.3917 16.8235 44.5876 16.1568 44.5876ZM14.196 7.05827C9.13719 7.05827 5.86269 10.3328 5.86269 15.3916V27.1564C5.86269 32.2153 9.13719 35.4898 14.196 35.4898C14.9999 35.4898 15.6666 36.1564 15.6666 36.9603V41.1368C15.6666 41.3917 15.8235 41.5093 15.9215 41.5681C16.0196 41.627 16.2157 41.6858 16.4313 41.5485L25.1569 35.7447C25.3921 35.5878 25.6862 35.4898 25.9804 35.4898H33.8235C38.8823 35.4898 42.1568 32.2153 42.1568 27.1564V15.3916C42.1568 10.3328 38.8823 7.05827 33.8235 7.05827H14.196V7.05827Z" />
      <path
        d="M23.9996 24.5684C23.1957 24.5684 22.529 23.9018 22.529 23.0978V22.6861C22.529 20.4116 24.1957 19.294 24.8231 18.8626C25.5486 18.3724 25.7839 18.0391 25.7839 17.5293C25.7839 16.5489 24.98 15.7449 23.9996 15.7449C23.0192 15.7449 22.2153 16.5489 22.2153 17.5293C22.2153 18.3332 21.5487 18.9999 20.7448 18.9999C19.9408 18.9999 19.2742 18.3332 19.2742 17.5293C19.2742 14.9214 21.3918 12.8037 23.9996 12.8037C26.6075 12.8037 28.725 14.9214 28.725 17.5293C28.725 19.7646 27.0781 20.8822 26.4702 21.2939C25.7055 21.8037 25.4702 22.1371 25.4702 22.6861V23.0978C25.4702 23.9214 24.8035 24.5684 23.9996 24.5684Z" />
      <path
        d="M24 29.4509C23.1765 29.4509 22.5294 28.7843 22.5294 27.9804C22.5294 27.1764 23.1961 26.5098 24 26.5098C24.8039 26.5098 25.4706 27.1764 25.4706 27.9804C25.4706 28.7843 24.8235 29.4509 24 29.4509Z" />
    </symbol>
  </defs>
</svg>