<svg xmlns="http://www.w3.org/2000/svg" width="20" height="20" viewBox="0 0 20 20" fill="none">
  <path fill-rule="evenodd" clip-rule="evenodd" d="M14.1024 8.50013C13.7574 8.50013 13.4774 8.22013 13.4774 7.87513V6.08596C13.4774 4.3393 12.0566 2.91846 10.3099 2.91846H10.2966C9.45242 2.91846 8.66159 3.24346 8.06409 3.83596C7.46242 4.43096 7.12992 5.22513 7.12659 6.0718V7.87513C7.12659 8.22013 6.84659 8.50013 6.50159 8.50013C6.15659 8.50013 5.87659 8.22013 5.87659 7.87513V6.08596C5.88159 4.88596 6.34575 3.77846 7.18325 2.94846C8.02159 2.11763 9.12825 1.6368 10.3124 1.66846C12.7458 1.66846 14.7274 3.65013 14.7274 6.08596V7.87513C14.7274 8.22013 14.4474 8.50013 14.1024 8.50013Z" fill="#777777"/>
  <path fill-rule="evenodd" clip-rule="evenodd" d="M7.11831 8.44043C5.71998 8.44043 4.58331 9.5771 4.58331 10.9754V14.5496C4.58331 15.9479 5.71998 17.0846 7.11831 17.0846H13.4858C14.8833 17.0846 16.0208 15.9479 16.0208 14.5496V10.9754C16.0208 9.5771 14.8833 8.44043 13.4858 8.44043H7.11831ZM13.4858 18.3346H7.11831C5.03081 18.3346 3.33331 16.6371 3.33331 14.5496V10.9754C3.33331 8.88793 5.03081 7.19043 7.11831 7.19043H13.4858C15.5733 7.19043 17.2708 8.88793 17.2708 10.9754V14.5496C17.2708 16.6371 15.5733 18.3346 13.4858 18.3346Z" fill="#777777"/>
  <path fill-rule="evenodd" clip-rule="evenodd" d="M10.3019 14.3127C9.95688 14.3127 9.67688 14.0327 9.67688 13.6877V11.8369C9.67688 11.4919 9.95688 11.2119 10.3019 11.2119C10.6469 11.2119 10.9269 11.4919 10.9269 11.8369V13.6877C10.9269 14.0327 10.6469 14.3127 10.3019 14.3127Z" fill="#777777"/>
</svg>