<svg xmlns="http://www.w3.org/2000/svg" width="131" height="56" viewBox="0 0 131 56" fill="none">
  <g clip-path="url(#clip0_2399_22822)">
    <path d="M130.5 8.57004C130.5 6.2992 129.585 4.12136 127.955 2.51563C126.325 0.909899 124.115 0.0078125 121.811 0.0078125H9.19802C6.89116 0.0078125 4.67879 0.910788 3.0476 2.5181C1.4164 4.12541 0.5 6.30539 0.5 8.57847V21.3628H130.5V8.57004Z" fill="#ED1C24"/>
    <path d="M0.5 21.3633V34.1645C0.502267 36.4361 1.41966 38.6139 3.05061 40.2194C4.68156 41.8249 6.89265 42.7267 9.19802 42.7267H121.811C124.115 42.7267 126.325 41.8246 127.955 40.2189C129.585 38.6132 130.5 36.4353 130.5 34.1645V21.3633H0.5Z" fill="#002D85"/>
    <path fill-rule="evenodd" clip-rule="evenodd" d="M29.5789 34.181L17.8533 8.54492H25.0375L33.3335 27.5234L41.373 8.54492H48.4033L36.652 34.181H29.5789ZM51.8158 34.181V8.57021H65.7822C68.3481 8.47483 70.9156 8.70997 73.4197 9.26968C74.9247 9.66939 76.2628 10.5278 77.2427 11.7221C78.1841 12.8612 78.6896 14.2899 78.671 15.7588C78.6909 16.6629 78.5062 17.56 78.1305 18.385C77.7547 19.21 77.1973 19.9423 76.4987 20.5287C75.0504 21.7759 72.8866 22.5653 70.0072 22.8968C71.2814 23.4556 72.4749 24.1782 73.5566 25.0458C74.9403 26.3169 76.2029 27.7105 77.3283 29.2089L81.3395 34.2148H73.4112L68.6217 28.6274C67.531 27.2979 66.354 26.0396 65.098 24.8603C64.5181 24.3706 63.8387 24.0086 63.1052 23.7985C62.0097 23.5678 60.8893 23.4716 59.7697 23.512H58.427V34.2148L51.8158 34.181ZM58.4355 19.391H63.3276C65.3284 19.4687 67.3323 19.3672 69.3145 19.0876C70.0312 18.9203 70.6788 18.5409 71.1704 18.0005C71.6264 17.4629 71.8668 16.7793 71.846 16.079C71.8655 15.6904 71.799 15.3023 71.6514 14.9414C71.5037 14.5806 71.2783 14.2556 70.9908 13.989C70.283 13.4079 69.4113 13.0549 68.4934 12.9777C67.9631 12.9272 66.3467 12.8935 63.6612 12.8935H58.5296V19.391H58.4355ZM85.6671 8.55335H98.7868C100.726 8.51904 102.666 8.60629 104.594 8.8146C105.791 8.95229 106.951 9.30958 108.015 9.86802C109.003 10.3901 109.862 11.1211 110.53 12.0086C111.187 12.874 111.538 13.9278 111.53 15.0087C111.526 16.2183 111.09 17.3878 110.299 18.3123C109.404 19.3526 108.239 20.1334 106.929 20.5708C108.658 20.8894 110.256 21.6943 111.53 22.8883C112.047 23.3948 112.456 23.9978 112.734 24.662C113.011 25.3262 113.152 26.0382 113.147 26.7565C113.131 27.955 112.769 29.1242 112.103 30.1275C111.402 31.2325 110.425 32.1409 109.264 32.7652C107.884 33.4733 106.369 33.8895 104.816 33.9872C103.722 34.0715 101.053 34.1305 96.8283 34.1558H85.6671V8.54492V8.55335ZM91.5427 12.826V18.7252H95.8875C98.4533 18.7252 100.07 18.7252 100.703 18.6325C101.662 18.5842 102.586 18.2621 103.362 17.7055C103.675 17.4715 103.926 17.1675 104.096 16.8187C104.265 16.4699 104.348 16.0864 104.337 15.6998C104.349 15.3345 104.278 14.9714 104.13 14.6363C103.982 14.3012 103.761 14.0024 103.482 13.7615C102.772 13.2287 101.911 12.9282 101.019 12.9019C100.361 12.8429 98.4533 12.8176 95.3572 12.8176L91.5427 12.826ZM91.5427 23.0148V29.8662H97.6664C99.182 29.9073 100.699 29.8566 102.208 29.7145C103.097 29.6194 103.937 29.2643 104.62 28.6948C104.928 28.4203 105.171 28.0826 105.332 27.7054C105.493 27.3283 105.568 26.921 105.552 26.5121C105.566 25.7953 105.31 25.0987 104.834 24.557C104.268 23.9651 103.535 23.5541 102.73 23.3771C100.79 23.0474 98.8203 22.9231 96.8539 23.0063L91.5427 23.0148Z" fill="white"/>
    <path fill-rule="evenodd" clip-rule="evenodd" d="M7.35925 55.8734L4.79346 48.9124H6.33292L8.12043 54.0615L9.83096 48.9124H11.3448L8.77897 55.8734H7.35925ZM12.0974 55.8734V48.8871H13.5171V55.8481L12.0974 55.8734ZM14.877 55.8734V48.8871H20.1198V50.0669H16.3481V51.6091H19.8974V52.7805H16.3481V54.6767H20.2994V55.8481L14.877 55.8734ZM23.0533 55.8734V50.0922H20.9579V48.8871H26.6112V50.0669H24.5244V55.8481L23.0533 55.8734ZM27.5007 55.8734V48.8871H28.8948L31.7856 53.5306V48.8871H33.1112V55.8481H31.6744L28.8263 51.3058V55.8481L27.5007 55.8734ZM40.9882 55.8734H39.4402L38.8158 54.2891H36.0191L35.4375 55.8734H33.9237L36.6777 48.9124H38.1829L41.0138 55.8734H40.9882ZM38.3625 53.1008L37.3875 50.5726L36.4382 53.1008H38.3625ZM41.7237 55.8566V48.8871H43.8619L45.1448 53.6317L46.4106 48.8871H48.5487V55.8481H47.2231V50.3703L45.8204 55.8481H44.452L43.0494 50.3703V55.8481L41.7237 55.8566ZM52.5428 53.9941V52.6794H55.2027V54.011L52.5428 53.9941ZM58.7435 55.8566V48.8871H61.7454C62.2994 48.8611 62.8539 48.9237 63.3875 49.0725C63.7419 49.1908 64.044 49.4259 64.2428 49.7383C64.4496 50.0669 64.5565 50.4471 64.5507 50.8338C64.5687 51.3084 64.4037 51.7721 64.0889 52.1316C63.7128 52.5017 63.2159 52.7286 62.6862 52.7721C62.9712 52.9299 63.2306 53.1288 63.456 53.362C63.7572 53.7144 64.0262 54.0923 64.2599 54.4913L65.1152 55.8481H63.4046L62.3698 54.3312C62.1449 53.9754 61.8964 53.6348 61.6257 53.3115C61.505 53.1817 61.3558 53.0808 61.1895 53.0165C60.9553 52.9553 60.7131 52.9297 60.4711 52.9407H60.1888V55.8481L58.7435 55.8566ZM60.1717 51.8367H61.2237C61.6532 51.8592 62.0839 51.8309 62.5066 51.7524C62.6697 51.6999 62.8108 51.5963 62.9086 51.4575C63.0098 51.3019 63.0605 51.1196 63.054 50.935C63.0605 50.7294 62.9906 50.5286 62.8573 50.3703C62.7183 50.2157 62.5266 50.1167 62.3185 50.0922C62.2073 50.0922 61.8566 50.0922 61.2836 50.0922H60.1717V51.8535V51.8367ZM65.8507 48.8955H67.279V52.6626C67.2676 53.0509 67.2848 53.4396 67.3303 53.8255C67.3906 54.0985 67.5447 54.3426 67.7665 54.5166C68.0471 54.6992 68.38 54.7878 68.7158 54.7694C69.0403 54.7944 69.3636 54.708 69.631 54.525C69.8255 54.3782 69.9568 54.1646 69.9987 53.9267C70.049 53.5355 70.069 53.141 70.0586 52.7468V48.8871H71.4869V52.5446C71.5059 53.1366 71.4686 53.7291 71.3757 54.3143C71.299 54.6233 71.1528 54.9113 70.9481 55.1571C70.7121 55.4091 70.4191 55.6026 70.0928 55.7217C69.6575 55.8775 69.1957 55.949 68.7329 55.9324C68.2096 55.957 67.6864 55.8797 67.1935 55.7049C66.8634 55.5766 66.5699 55.3713 66.3382 55.1065C66.1431 54.8835 66.0052 54.6176 65.9362 54.3312C65.8237 53.7481 65.7749 53.1548 65.7908 52.5614V48.8871L65.8507 48.8955ZM72.6329 53.5896L74.0184 53.4547C74.0639 53.8389 74.2421 54.196 74.5231 54.466C74.8152 54.6974 75.1837 54.8144 75.5579 54.7947C75.9285 54.8175 76.2962 54.7166 76.6013 54.5082C76.7091 54.4306 76.797 54.3292 76.8579 54.2121C76.9188 54.095 76.951 53.9655 76.952 53.834C76.9562 53.6794 76.9013 53.529 76.798 53.4126C76.6589 53.2665 76.4812 53.1614 76.2849 53.1092C76.1224 53.0502 75.7375 52.9491 75.1474 52.8058C74.5634 52.7044 74.0122 52.4676 73.5395 52.1148C73.1922 51.8284 72.9644 51.4258 72.8997 50.9842C72.835 50.5425 72.938 50.0929 73.1889 49.7214C73.4021 49.4121 73.6981 49.167 74.0441 49.0135C74.4882 48.8442 74.9622 48.7639 75.4382 48.7775C76.1535 48.7254 76.8639 48.9289 77.4395 49.3506C77.6611 49.5423 77.8389 49.7782 77.9613 50.0425C78.0836 50.3069 78.1477 50.5938 78.1494 50.8844L76.7211 50.9434C76.6916 50.6483 76.5513 50.3748 76.3277 50.1765C76.0608 50.0002 75.7416 49.9171 75.4211 49.9405C75.0773 49.9225 74.7364 50.0109 74.4461 50.1933C74.3756 50.2411 74.3184 50.3054 74.2795 50.3804C74.2407 50.4555 74.2215 50.5389 74.2237 50.6231C74.2234 50.705 74.2425 50.7857 74.2797 50.8589C74.3168 50.9321 74.3709 50.9957 74.4375 51.0445C74.8397 51.28 75.2839 51.4373 75.7461 51.508C76.2773 51.6177 76.7938 51.7873 77.2856 52.0137C77.6073 52.1729 77.8771 52.4182 78.0639 52.7216C78.2577 53.0631 78.3552 53.4496 78.3462 53.8409C78.3372 54.2321 78.222 54.6139 78.0125 54.9464C77.7832 55.2971 77.4483 55.5682 77.0546 55.7217C76.5649 55.9113 76.041 56.0002 75.5152 55.983C74.778 56.0285 74.049 55.8101 73.4625 55.3678C72.9524 54.9081 72.6454 54.2697 72.6073 53.5896H72.6329ZM79.2099 53.5896L80.604 53.4547C80.6423 53.841 80.8216 54.2003 81.1086 54.466C81.4007 54.6974 81.7692 54.8144 82.1434 54.7947C82.5116 54.819 82.8769 54.7178 83.1783 54.5082C83.2861 54.4306 83.374 54.3292 83.4349 54.2121C83.4958 54.095 83.528 53.9655 83.529 53.834C83.5317 53.6811 83.4803 53.5321 83.3836 53.4126C83.2445 53.2665 83.0668 53.1614 82.8704 53.1092C82.6994 53.0502 82.3231 52.9491 81.7244 52.8058C81.1409 52.7026 80.5902 52.4659 80.1165 52.1148C79.9106 51.9429 79.7456 51.7284 79.6333 51.4867C79.521 51.2449 79.464 50.9817 79.4665 50.7158C79.4668 50.3616 79.574 50.0155 79.7744 49.7214C79.9855 49.4102 80.2822 49.1647 80.6296 49.0135C81.0737 48.8442 81.5477 48.7639 82.0237 48.7775C82.7387 48.7284 83.4481 48.9316 84.025 49.3506C84.2468 49.5417 84.4242 49.7776 84.5452 50.0422C84.6662 50.3069 84.728 50.5941 84.7263 50.8844L83.3066 50.9434C83.2733 50.6495 83.1336 50.3772 82.9132 50.1765C82.6463 50.0002 82.3271 49.9171 82.0066 49.9405C81.6627 49.9214 81.3214 50.0099 81.0316 50.1933C80.96 50.2399 80.9018 50.304 80.8629 50.3793C80.8239 50.4547 80.8054 50.5387 80.8092 50.6231C80.8086 50.7041 80.8267 50.7842 80.8623 50.8573C80.8979 50.9303 80.9499 50.9944 81.0145 51.0445C81.4199 51.2795 81.8668 51.4368 82.3316 51.508C82.8628 51.6177 83.3794 51.7873 83.8711 52.0137C84.1929 52.1729 84.4626 52.4182 84.6494 52.7216C84.8432 53.0631 84.9407 53.4496 84.9317 53.8409C84.9227 54.2321 84.8075 54.6139 84.5981 54.9464C84.3688 55.2971 84.0338 55.5682 83.6402 55.7217C83.1505 55.9113 82.6266 56.0002 82.1007 55.983C81.3635 56.0293 80.6342 55.8107 80.0481 55.3678C79.5416 54.9054 79.2353 54.2686 79.1928 53.5896H79.2099ZM86.1119 55.8566V48.8871H87.5402V55.8481L86.1119 55.8566ZM95.2717 55.8566H93.7152L93.0994 54.2722H90.277L89.6954 55.8566H88.1902L90.9441 48.8955H92.4665L95.2974 55.8566H95.2717ZM92.6461 53.1008L91.6711 50.5726L90.756 53.1008H92.6461ZM98.402 48.8871H101.233C101.65 48.8801 102.068 48.9026 102.482 48.9545C102.744 48.9988 102.995 49.0964 103.217 49.241C103.441 49.3902 103.625 49.5895 103.756 49.8225C103.909 50.0775 103.986 50.3694 103.978 50.6653C103.977 50.9817 103.885 51.2912 103.713 51.5586C103.538 51.8296 103.285 52.0436 102.986 52.1738C103.377 52.2751 103.724 52.4965 103.978 52.8058C104.208 53.1068 104.328 53.4746 104.32 53.8508C104.323 54.173 104.247 54.491 104.098 54.7778C103.961 55.0639 103.752 55.3106 103.491 55.4942C103.204 55.6794 102.875 55.7922 102.533 55.8228C102.293 55.8228 101.723 55.8397 100.822 55.8734H98.4106V48.8871H98.402ZM99.8303 50.0417V51.6513H100.771C101.327 51.6513 101.626 51.6513 101.806 51.6513C102.02 51.6371 102.222 51.5508 102.379 51.4069C102.449 51.334 102.503 51.2479 102.539 51.1537C102.574 51.0596 102.589 50.9593 102.584 50.8591C102.595 50.6701 102.534 50.484 102.413 50.3366C102.269 50.1944 102.078 50.1077 101.874 50.0922C101.729 50.0922 101.327 50.0922 100.651 50.0922L99.8303 50.0417ZM99.8303 52.8143V54.6767H101.156C101.482 54.6853 101.807 54.6712 102.131 54.6346C102.331 54.5992 102.513 54.5017 102.653 54.3565C102.788 54.1897 102.858 53.9801 102.849 53.7666C102.855 53.5756 102.801 53.3875 102.695 53.2272C102.586 53.0782 102.43 52.9687 102.251 52.9154C101.835 52.8266 101.41 52.7926 100.985 52.8143H99.8303ZM111.898 55.8481H110.35L109.734 54.2638H106.903L106.322 55.8481H104.808L107.562 48.8871H109.067L111.898 55.8481ZM109.272 53.1008L108.297 50.5726L107.348 53.1008H109.272ZM112.693 55.8566V48.8871H114.088L116.978 53.5306V48.8871H118.304V55.8481H116.841L113.993 51.3058V55.8481L112.693 55.8566ZM119.826 55.8566V48.8871H121.255V51.9799L124.111 48.8871H126.027L123.367 51.6007L126.172 55.8144H124.325L122.401 52.6036L121.246 53.7666V55.8734L119.826 55.8566Z" fill="#333333"/>
  </g>
  <defs>
    <clipPath id="clip0_2399_22822">
      <rect width="130" height="56" fill="white" transform="translate(0.5)"/>
    </clipPath>
  </defs>
</svg>