<svg xmlns="http://www.w3.org/2000/svg" width="176" height="76" viewBox="0 0 176 76" fill="none">
  <g clip-path="url(#clip0_1701_12572)">
    <path d="M176 11.6319C176 8.55003 174.761 5.59439 172.554 3.41518C170.348 1.23598 167.356 0.0117188 164.236 0.0117188H11.7758C8.65265 0.0117187 5.65744 1.23719 3.44905 3.41853C1.24067 5.59988 0 8.55843 0 11.6433V28.9935H176V11.6319Z" fill="#ED1C24"/>
    <path d="M0 28.9932V46.3662C0.00306896 49.4491 1.24508 52.4047 3.45314 54.5836C5.66119 56.7625 8.65466 57.9864 11.7758 57.9864H164.236C167.356 57.9864 170.348 56.7621 172.554 54.5829C174.761 52.4037 176 49.4481 176 46.3662V28.9932H0Z" fill="#005BAA"/>
    <path fill-rule="evenodd" clip-rule="evenodd" d="M39.3684 46.3895L23.4937 11.5977H33.22L44.4516 37.3542L55.3358 11.5977H64.8537L48.9442 46.3895H39.3684ZM69.4737 46.3895V11.632H88.3821C91.8559 11.5025 95.332 11.8217 98.7221 12.5813C100.76 13.1237 102.571 14.2887 103.898 15.9095C105.172 17.4555 105.857 19.3944 105.832 21.3879C105.858 22.6149 105.608 23.8323 105.1 24.952C104.591 26.0717 103.836 27.0655 102.891 27.8613C100.93 29.554 98.0004 30.6253 94.1021 31.0752C95.8272 31.8335 97.443 32.8142 98.9074 33.9916C100.781 35.7168 102.49 37.608 104.014 39.6416L109.444 46.4353H98.7105L92.2263 38.8524C90.7497 37.0482 89.1562 35.3405 87.4558 33.74C86.6707 33.0754 85.7508 32.584 84.7579 32.2989C83.2746 31.9858 81.7579 31.8552 80.2421 31.9101H78.4242V46.4353L69.4737 46.3895ZM78.4358 26.3173H85.0589C87.7677 26.4228 90.4807 26.285 93.1642 25.9056C94.1345 25.6785 95.0113 25.1637 95.6769 24.4302C96.2943 23.7006 96.6197 22.7729 96.5916 21.8225C96.6179 21.2951 96.528 20.7684 96.328 20.2787C96.1281 19.7889 95.823 19.3479 95.4337 18.9861C94.4755 18.1974 93.2953 17.7184 92.0526 17.6136C91.3347 17.545 89.1463 17.4992 85.5105 17.4992H78.5632V26.3173H78.4358ZM115.303 11.6091H133.065C135.691 11.5625 138.317 11.6809 140.927 11.9636C142.548 12.1505 144.119 12.6354 145.559 13.3933C146.897 14.1019 148.059 15.0939 148.963 16.2983C149.853 17.4729 150.329 18.903 150.318 20.37C150.312 22.0115 149.722 23.5987 148.651 24.8533C147.44 26.2652 145.863 27.3248 144.088 27.9185C146.429 28.3509 148.592 29.4433 150.318 31.0637C151.018 31.7511 151.572 32.5694 151.947 33.4708C152.323 34.3722 152.513 35.3386 152.506 36.3134C152.485 37.9399 151.995 39.5267 151.094 40.8883C150.145 42.3879 148.821 43.6208 147.249 44.4681C145.381 45.4291 143.33 45.9939 141.228 46.1265C139.746 46.2409 136.134 46.3209 130.414 46.3552H115.303V11.5977V11.6091ZM123.258 17.4077V25.4138H129.14C132.614 25.4138 134.802 25.4138 135.659 25.288C136.957 25.2224 138.209 24.7853 139.26 24.0299C139.683 23.7122 140.023 23.2997 140.253 22.8263C140.482 22.353 140.595 21.8325 140.58 21.3078C140.595 20.8121 140.499 20.3192 140.299 19.8645C140.099 19.4097 139.8 19.0043 139.422 18.6773C138.461 17.9543 137.295 17.5463 136.087 17.5107C135.196 17.4306 132.614 17.3963 128.422 17.3963L123.258 17.4077ZM123.258 31.2353V40.5337H131.548C133.6 40.5894 135.654 40.5207 137.697 40.3278C138.901 40.1987 140.038 39.7168 140.962 38.9439C141.379 38.5714 141.708 38.113 141.926 37.6012C142.144 37.0894 142.246 36.5366 142.224 35.9817C142.243 35.0089 141.897 34.0635 141.252 33.3283C140.486 32.525 139.493 31.9672 138.403 31.7271C135.777 31.2796 133.111 31.1109 130.448 31.2238L123.258 31.2353Z" fill="white"/>
    <path fill-rule="evenodd" clip-rule="evenodd" d="M9.28632 75.8285L5.81264 66.3814H7.89683L10.3168 73.3695L12.6326 66.3814H14.6821L11.2084 75.8285H9.28632ZM15.7011 75.8285V66.3471H17.6232V75.7942L15.7011 75.8285ZM19.4642 75.8285V66.3471H26.5621V67.9483H21.4558V70.0413H26.261V71.631H21.4558V74.2044H26.8053V75.7942L19.4642 75.8285ZM30.5337 75.8285V67.9826H27.6968V66.3471H35.3505V67.9483H32.5253V75.7942L30.5337 75.8285ZM36.5547 75.8285V66.3471H38.4421L42.3558 72.6489V66.3471H44.1505V75.7942H42.2053L38.3495 69.6295V75.7942L36.5547 75.8285ZM54.8147 75.8285H52.7189L51.8737 73.6783H48.0874L47.3 75.8285H45.2505L48.979 66.3814H51.0168L54.8495 75.8285H54.8147ZM51.26 72.0656L49.94 68.6345L48.6547 72.0656H51.26ZM55.8105 75.8056V66.3471H58.7053L60.4421 72.7862L62.1558 66.3471H65.0505V75.7942H63.2558V68.36L61.3568 75.7942H59.5042L57.6053 68.36V75.7942L55.8105 75.8056ZM70.4579 73.278V71.4938H74.0589V73.3009L70.4579 73.278ZM78.8526 75.8056V66.3471H82.9168C83.6668 66.3117 84.4176 66.3967 85.14 66.5987C85.6198 66.7592 86.0287 67.0783 86.2979 67.5022C86.5779 67.9483 86.7226 68.4643 86.7147 68.989C86.7391 69.6331 86.5157 70.2624 86.0895 70.7504C85.5803 71.2526 84.9076 71.5606 84.1905 71.6196C84.5763 71.8337 84.9275 72.1036 85.2326 72.4202C85.6404 72.8984 86.0047 73.4112 86.3211 73.9528L87.479 75.7942H85.1632L83.7621 73.7355C83.4577 73.2527 83.1212 72.7903 82.7547 72.3516C82.5914 72.1754 82.3894 72.0385 82.1642 71.9513C81.8472 71.8682 81.5192 71.8335 81.1916 71.8483H80.8095V75.7942L78.8526 75.8056ZM80.7863 70.3501H82.2105C82.792 70.3807 83.3751 70.3423 83.9474 70.2357C84.1681 70.1644 84.3592 70.0239 84.4916 69.8354C84.6285 69.6242 84.6972 69.3769 84.6884 69.1263C84.6973 68.8473 84.6026 68.5748 84.4221 68.36C84.234 68.1501 83.9744 68.0158 83.6926 67.9826C83.5421 67.9826 83.0674 67.9826 82.2916 67.9826H80.7863V70.3729V70.3501ZM88.4747 66.3585H90.4084V71.4709C90.3931 71.998 90.4163 72.5255 90.4779 73.0492C90.5596 73.4197 90.7682 73.7509 91.0684 73.9871C91.4484 74.2349 91.8991 74.3552 92.3537 74.3302C92.793 74.3641 93.2307 74.2469 93.5926 73.9985C93.856 73.7993 94.0338 73.5093 94.0905 73.1865C94.1586 72.6555 94.1857 72.1203 94.1716 71.5853V66.3471H96.1053V71.3108C96.131 72.1143 96.0806 72.9184 95.9547 73.7126C95.8509 74.1318 95.653 74.5227 95.3758 74.8563C95.0564 75.1983 94.6596 75.4609 94.2179 75.6226C93.6285 75.834 93.0034 75.9311 92.3768 75.9085C91.6683 75.9419 90.9601 75.837 90.2926 75.5997C89.8458 75.4257 89.4484 75.147 89.1347 74.7877C88.8706 74.4851 88.684 74.1242 88.5905 73.7355C88.4382 72.9441 88.3722 72.1389 88.3937 71.3337V66.3471L88.4747 66.3585ZM97.6568 72.729L99.5326 72.546C99.5942 73.0674 99.8354 73.5519 100.216 73.9185C100.611 74.2324 101.11 74.3912 101.617 74.3645C102.119 74.3955 102.616 74.2585 103.029 73.9756C103.175 73.8703 103.294 73.7327 103.377 73.5738C103.459 73.4149 103.503 73.2392 103.504 73.0607C103.51 72.851 103.436 72.6468 103.296 72.4888C103.107 72.2905 102.867 72.1479 102.601 72.0771C102.381 71.997 101.86 71.8598 101.061 71.6653C100.27 71.5277 99.5242 71.2063 98.8842 70.7275C98.414 70.3388 98.1056 69.7925 98.018 69.1931C97.9304 68.5937 98.0698 67.9835 98.4095 67.4793C98.6981 67.0595 99.0989 66.727 99.5674 66.5186C100.169 66.2888 100.81 66.1799 101.455 66.1984C102.423 66.1276 103.385 66.4037 104.164 66.9761C104.464 67.2363 104.705 67.5563 104.871 67.9151C105.036 68.2739 105.123 68.6633 105.125 69.0577L103.192 69.1377C103.152 68.7373 102.962 68.3661 102.659 68.0969C102.298 67.8576 101.865 67.7449 101.432 67.7767C100.966 67.7523 100.505 67.8723 100.112 68.1198C100.016 68.1846 99.9387 68.2718 99.8861 68.3737C99.8335 68.4756 99.8075 68.5888 99.8105 68.7031C99.8101 68.8142 99.836 68.9238 99.8863 69.0231C99.9366 69.1224 100.01 69.2087 100.1 69.275C100.644 69.5945 101.246 69.8081 101.872 69.904C102.591 70.0528 103.29 70.2831 103.956 70.5902C104.391 70.8063 104.757 71.1393 105.009 71.551C105.272 72.0145 105.404 72.5391 105.392 73.07C105.379 73.601 105.224 74.1191 104.94 74.5704C104.63 75.0463 104.176 75.4142 103.643 75.6226C102.98 75.88 102.271 76.0006 101.559 75.9772C100.561 76.039 99.574 75.7425 98.78 75.1422C98.0893 74.5184 97.6737 73.652 97.6221 72.729H97.6568ZM106.561 72.729L108.448 72.546C108.5 73.0701 108.743 73.5579 109.132 73.9185C109.527 74.2324 110.026 74.3912 110.533 74.3645C111.031 74.3975 111.526 74.2602 111.934 73.9756C112.08 73.8703 112.199 73.7327 112.281 73.5738C112.363 73.4149 112.407 73.2392 112.408 73.0607C112.412 72.8532 112.343 72.651 112.212 72.4888C112.023 72.2905 111.783 72.1479 111.517 72.0771C111.285 71.997 110.776 71.8598 109.965 71.6653C109.175 71.5252 108.43 71.204 107.788 70.7275C107.51 70.4942 107.286 70.2032 107.134 69.8751C106.982 69.5469 106.905 69.1898 106.908 68.8289C106.909 68.3482 107.054 67.8784 107.325 67.4793C107.611 67.057 108.013 66.7238 108.483 66.5186C109.084 66.2888 109.726 66.1799 110.371 66.1984C111.339 66.1317 112.299 66.4074 113.08 66.9761C113.38 67.2354 113.62 67.5556 113.784 67.9148C113.948 68.2739 114.032 68.6637 114.029 69.0577L112.107 69.1377C112.062 68.7388 111.873 68.3694 111.575 68.0969C111.213 67.8576 110.781 67.7449 110.347 67.7767C109.882 67.7507 109.42 67.8708 109.027 68.1198C108.93 68.183 108.852 68.27 108.799 68.3722C108.746 68.4745 108.721 68.5885 108.726 68.7031C108.725 68.8131 108.75 68.9217 108.798 69.0209C108.846 69.12 108.917 69.2069 109.004 69.275C109.553 69.5939 110.158 69.8073 110.787 69.904C111.507 70.0528 112.206 70.2831 112.872 70.5902C113.307 70.8063 113.672 71.1393 113.925 71.551C114.188 72.0145 114.32 72.5391 114.307 73.07C114.295 73.601 114.139 74.1191 113.856 74.5704C113.545 75.0463 113.092 75.4142 112.559 75.6226C111.896 75.88 111.187 76.0006 110.475 75.9772C109.477 76.0401 108.489 75.7434 107.696 75.1422C107.01 74.5148 106.595 73.6505 106.538 72.729H106.561ZM115.905 75.8056V66.3471H117.839V75.7942L115.905 75.8056ZM128.306 75.8056H126.199L125.365 73.6554H121.544L120.757 75.8056H118.719L122.447 66.3585H124.508L128.341 75.8056H128.306ZM124.752 72.0656L123.432 68.6345L122.193 72.0656H124.752ZM132.544 66.3471H136.377C136.942 66.3376 137.507 66.3681 138.067 66.4386C138.423 66.4987 138.762 66.6311 139.063 66.8274C139.366 67.0299 139.616 67.3003 139.793 67.6166C139.999 67.9626 140.103 68.3588 140.094 68.7603C140.092 69.1897 139.967 69.6098 139.735 69.9726C139.497 70.3405 139.155 70.6309 138.751 70.8076C139.279 70.9451 139.75 71.2456 140.094 71.6653C140.404 72.0738 140.567 72.573 140.557 73.0835C140.561 73.5208 140.457 73.9524 140.256 74.3416C140.071 74.7299 139.788 75.0647 139.434 75.3138C139.045 75.5651 138.6 75.7183 138.137 75.7598C137.813 75.7598 137.041 75.7827 135.821 75.8285H132.556V66.3471H132.544ZM134.478 67.914V70.0984H135.752C136.504 70.0984 136.909 70.0984 137.153 70.0984C137.442 70.0793 137.716 69.9621 137.928 69.7668C138.023 69.6679 138.097 69.551 138.145 69.4232C138.192 69.2954 138.213 69.1594 138.206 69.0233C138.22 68.7669 138.138 68.5143 137.975 68.3142C137.779 68.1213 137.521 68.0036 137.245 67.9826C137.048 67.9826 136.504 67.9826 135.589 67.9826L134.478 67.914ZM134.478 71.6768V74.2044H136.273C136.713 74.216 137.155 74.1969 137.593 74.1472C137.863 74.0992 138.11 73.9669 138.299 73.7698C138.483 73.5435 138.577 73.2591 138.565 72.9692C138.572 72.71 138.5 72.4547 138.357 72.2372C138.208 72.035 137.997 71.8863 137.755 71.814C137.192 71.6935 136.616 71.6473 136.041 71.6768H134.478ZM150.816 75.7942H148.72L147.886 73.644H144.054L143.266 75.7942H141.217L144.945 66.3471H146.983L150.816 75.7942ZM147.261 72.0656L145.941 68.6345L144.656 72.0656H147.261ZM151.893 75.8056V66.3471H153.78L157.694 72.6489V66.3471H159.488V75.7942H157.508L153.653 69.6295V75.7942L151.893 75.8056ZM161.549 75.8056V66.3471H163.483V70.5445L167.351 66.3471H169.944L166.343 70.0298L170.141 75.7484H167.64L165.035 71.3909L163.472 72.9692V75.8285L161.549 75.8056Z" fill="white"/>
  </g>
  <defs>
    <clipPath id="clip0_1701_12572">
      <rect width="176" height="76" fill="white"/>
    </clipPath>
  </defs>
</svg>