<svg xmlns="http://www.w3.org/2000/svg" width="32" height="32" viewBox="0 0 32 32" fill="none">
  <path d="M27.1733 28.173C26.9066 28.173 26.6533 28.0664 26.4666 27.8797L17.9599 19.373C17.5733 18.9863 17.5733 18.3463 17.9599 17.9597L28.2666 7.65302C28.5199 7.39969 28.9066 7.30635 29.2533 7.39969C29.5999 7.50635 29.8666 7.78636 29.9466 8.13302C30.1999 9.26636 30.3333 10.533 30.3333 11.9997V19.9997C30.3333 23.693 29.5599 26.1864 27.8799 27.8797C27.6933 28.0664 27.4133 28.1064 27.1733 28.173ZM20.0799 18.6663L27.0933 25.6797C27.9333 24.3863 28.3333 22.5463 28.3333 19.9997V11.9997C28.3333 11.453 28.3199 10.9464 28.2799 10.4664L20.0799 18.6663Z" fill="#013AA9"/>
  <path d="M8.35994 29.9737C8.27994 29.9737 8.2133 29.9603 8.1333 29.947C3.71997 28.9337 1.66663 25.7737 1.66663 20.0003V12.0003C1.66663 4.76033 4.75996 1.66699 12 1.66699H20C25.7733 1.66699 28.9333 3.72033 29.9466 8.13367C30.0266 8.467 29.92 8.827 29.68 9.067L9.06661 29.6803C8.87994 29.867 8.62661 29.9737 8.35994 29.9737ZM12 3.66699C5.85329 3.66699 3.66663 5.85366 3.66663 12.0003V20.0003C3.66663 24.627 4.94664 26.947 8.0533 27.867L27.8533 8.067C26.9466 4.96033 24.6133 3.68032 19.9866 3.68032H12V3.66699Z" fill="#013AA9"/>
  <path d="M19.9999 30.3333H11.9999C10.5332 30.3333 9.2799 30.2133 8.13323 29.9466C7.77323 29.8666 7.49321 29.5999 7.39987 29.2533C7.29321 28.9066 7.39988 28.5332 7.65321 28.2666L17.9599 17.9599C18.3466 17.5733 18.9866 17.5733 19.3732 17.9599L27.8799 26.4666C28.0666 26.6533 28.1732 26.9066 28.1732 27.1733C28.1732 27.4399 28.0666 27.6933 27.8799 27.8799C26.1866 29.5599 23.6932 30.3333 19.9999 30.3333ZM10.4666 28.2799C10.9466 28.3199 11.4532 28.3333 11.9999 28.3333H19.9999C22.5599 28.3333 24.3866 27.9333 25.6799 27.0933L18.6666 20.0799L10.4666 28.2799Z" fill="#013AA9"/>
  <path d="M12.16 17.7464C11.32 17.7464 10.4799 17.4397 9.81328 16.8131C7.69328 14.7997 6.83998 12.5864 7.34665 10.4264C7.85332 8.21308 9.78663 6.71973 12.16 6.71973C14.5333 6.71973 16.4666 8.21308 16.9733 10.4264C17.4666 12.5997 16.6133 14.7997 14.4933 16.8131C13.84 17.4264 13 17.7464 12.16 17.7464ZM9.2933 10.8664C8.86664 12.6797 10.0933 14.3064 11.2 15.3597C11.7466 15.8797 12.5866 15.8797 13.12 15.3597C14.2133 14.3197 15.44 12.6931 15.0266 10.8664C14.6666 9.27973 13.2533 8.7064 12.16 8.7064C11.0666 8.7064 9.66664 9.27973 9.2933 10.8664Z" fill="#013AA9"/>
  <path d="M12.1999 12.653C11.4666 12.653 10.8666 12.053 10.8666 11.3197C10.8666 10.5863 11.4532 9.98633 12.1999 9.98633H12.2133C12.9466 9.98633 13.5466 10.5863 13.5466 11.3197C13.5466 12.053 12.9332 12.653 12.1999 12.653Z" fill="#013AA9"/>
</svg>