<svg xmlns="http://www.w3.org/2000/svg" width="32" height="32" viewBox="0 0 32 32" fill="none">
  <path d="M10.6666 29.7595C10.2933 29.7595 9.9066 29.6662 9.55994 29.4796C8.79994 29.0796 8.33329 28.2795 8.33329 27.4262V25.533C4.30663 25.1196 1.66663 22.1595 1.66663 17.9195V9.9196C1.66663 5.33293 4.74663 2.25293 9.33329 2.25293H22.6666C27.2533 2.25293 30.3333 5.33293 30.3333 9.9196V17.9195C30.3333 22.5062 27.2533 25.5862 22.6666 25.5862H17.6399L11.9599 29.373C11.5733 29.6263 11.12 29.7595 10.6666 29.7595ZM9.33329 4.23958C5.89329 4.23958 3.66663 6.46625 3.66663 9.90625V17.9063C3.66663 21.3463 5.89329 23.573 9.33329 23.573C9.87996 23.573 10.3333 24.0263 10.3333 24.573V27.413C10.3333 27.5863 10.44 27.6663 10.5066 27.7063C10.5733 27.7463 10.7066 27.7863 10.8533 27.693L16.7867 23.7463C16.9467 23.6397 17.1466 23.573 17.3466 23.573H22.68C26.12 23.573 28.3466 21.3463 28.3466 17.9063V9.90625C28.3466 6.46625 26.12 4.23958 22.68 4.23958H9.33329Z" fill="#013AA9"/>
  <path d="M15.9998 16.1465C15.4531 16.1465 14.9998 15.6932 14.9998 15.1465V14.8665C14.9998 13.3199 16.1331 12.5599 16.5598 12.2665C17.0531 11.9332 17.2131 11.7065 17.2131 11.3599C17.2131 10.6932 16.6665 10.1465 15.9998 10.1465C15.3331 10.1465 14.7865 10.6932 14.7865 11.3599C14.7865 11.9065 14.3332 12.3599 13.7865 12.3599C13.2398 12.3599 12.7865 11.9065 12.7865 11.3599C12.7865 9.58653 14.2265 8.14648 15.9998 8.14648C17.7731 8.14648 19.2131 9.58653 19.2131 11.3599C19.2131 12.8799 18.0931 13.6398 17.6798 13.9198C17.1598 14.2665 16.9998 14.4932 16.9998 14.8665V15.1465C16.9998 15.7065 16.5465 16.1465 15.9998 16.1465Z" fill="#013AA9"/>
  <path d="M16 19.4668C15.44 19.4668 15 19.0135 15 18.4668C15 17.9201 15.4533 17.4668 16 17.4668C16.5467 17.4668 17 17.9201 17 18.4668C17 19.0135 16.56 19.4668 16 19.4668Z" fill="#013AA9"/>
</svg>