<svg xmlns="http://www.w3.org/2000/svg" width="24" height="25" viewBox="0 0 24 25" fill="none">
  <path fill-rule="evenodd" clip-rule="evenodd" d="M6.00708 4.26997C7.68708 2.58997 10.5231 2.71797 11.6931 4.81397L12.3421 5.97697C13.1051 7.34497 12.7801 9.07197 11.6621 10.204C11.596 10.3041 11.56 10.421 11.5581 10.541C11.5451 10.797 11.6361 11.39 12.5551 12.308C13.4731 13.226 14.0651 13.318 14.3221 13.305C14.442 13.3031 14.5589 13.267 14.6591 13.201C15.7901 12.083 17.5181 11.758 18.8861 12.521L20.0491 13.171C22.1451 14.341 22.2731 17.175 20.5931 18.855C19.6941 19.755 18.5001 20.553 17.0951 20.605C15.0151 20.685 11.5591 20.147 8.13708 16.725C4.71608 13.304 4.17808 9.84897 4.25708 7.76797C4.31008 6.36297 5.10908 5.16797 6.00708 4.26997ZM10.3831 5.54497C9.78308 4.47097 8.17308 4.22497 7.06808 5.33097C6.29308 6.10597 5.78808 6.96097 5.75608 7.82397C5.69008 9.55997 6.11908 12.586 9.19808 15.664C12.2781 18.744 15.3031 19.173 17.0381 19.107C17.9011 19.074 18.7581 18.57 19.5321 17.795C20.6381 16.689 20.3921 15.079 19.3181 14.48L18.1551 13.831C17.4321 13.428 16.4151 13.565 15.7021 14.279C15.6321 14.349 15.1861 14.765 14.3951 14.803C13.5851 14.843 12.6041 14.479 11.4951 13.369C10.3841 12.259 10.0201 11.278 10.0601 10.467C10.0981 9.67597 10.5151 9.22997 10.5841 9.15997C11.2981 8.44697 11.4351 7.43097 11.0321 6.70797L10.3821 5.54497H10.3831Z" fill="#787878"/>
</svg>