<svg xmlns="http://www.w3.org/2000/svg" width="20" height="20" viewBox="0 0 20 20" fill="none">
  <path d="M13.9582 6.45817H6.0415C5.69984 6.45817 5.4165 6.17484 5.4165 5.83317V4.1665C5.4165 2.03317 6.40817 1.0415 8.5415 1.0415H11.4582C13.5915 1.0415 14.5832 2.03317 14.5832 4.1665V5.83317C14.5832 6.17484 14.2998 6.45817 13.9582 6.45817ZM6.6665 5.20817H13.3332V4.1665C13.3332 2.74984 12.8748 2.2915 11.4582 2.2915H8.5415C7.12484 2.2915 6.6665 2.74984 6.6665 4.1665V5.20817Z" fill="#002D85"/>
  <path d="M10.8332 18.9583H9.1665C7.14984 18.9583 6.0415 17.85 6.0415 15.8333V12.5C6.0415 12.1583 6.32484 11.875 6.6665 11.875H13.3332C13.6748 11.875 13.9582 12.1583 13.9582 12.5V15.8333C13.9582 17.85 12.8498 18.9583 10.8332 18.9583ZM7.2915 13.125V15.8333C7.2915 17.15 7.84984 17.7083 9.1665 17.7083H10.8332C12.1498 17.7083 12.7082 17.15 12.7082 15.8333V13.125H7.2915Z" fill="#002D85"/>
  <path d="M15 15.6252H13.3333C12.9917 15.6252 12.7083 15.3418 12.7083 15.0002V13.1252H7.29167V15.0002C7.29167 15.3418 7.00833 15.6252 6.66667 15.6252H5C2.98333 15.6252 1.875 14.5168 1.875 12.5002V8.3335C1.875 6.31683 2.98333 5.2085 5 5.2085H15C17.0167 5.2085 18.125 6.31683 18.125 8.3335V12.5002C18.125 14.5168 17.0167 15.6252 15 15.6252ZM13.9583 14.3752H15C16.3167 14.3752 16.875 13.8168 16.875 12.5002V8.3335C16.875 7.01683 16.3167 6.4585 15 6.4585H5C3.68333 6.4585 3.125 7.01683 3.125 8.3335V12.5002C3.125 13.8168 3.68333 14.3752 5 14.3752H6.04167V12.5002C6.04167 12.1585 6.325 11.8752 6.66667 11.8752H13.3333C13.675 11.8752 13.9583 12.1585 13.9583 12.5002V14.3752Z" fill="#002D85"/>
  <path d="M14.1668 13.125H5.8335C5.49183 13.125 5.2085 12.8417 5.2085 12.5C5.2085 12.1583 5.49183 11.875 5.8335 11.875H14.1668C14.5085 11.875 14.7918 12.1583 14.7918 12.5C14.7918 12.8417 14.5085 13.125 14.1668 13.125Z" fill="#002D85"/>
  <path d="M8.3335 9.7915H5.8335C5.49183 9.7915 5.2085 9.50817 5.2085 9.1665C5.2085 8.82484 5.49183 8.5415 5.8335 8.5415H8.3335C8.67516 8.5415 8.9585 8.82484 8.9585 9.1665C8.9585 9.50817 8.67516 9.7915 8.3335 9.7915Z" fill="#002D85"/>
</svg>