<svg xmlns="http://www.w3.org/2000/svg" width="20" height="20" viewBox="0 0 20 20" fill="none">
  <mask id="mask0_1902_7170" style="mask-type:luminance" maskUnits="userSpaceOnUse" x="3" y="12" width="14" height="7">
    <path fill-rule="evenodd" clip-rule="evenodd" d="M3.33331 12.0801H16.5332V18.2251H3.33331V12.0801Z" fill="white"/>
  </mask>
  <g mask="url(#mask0_1902_7170)">
    <path fill-rule="evenodd" clip-rule="evenodd" d="M9.93409 13.3301C6.38325 13.3301 4.58325 13.9401 4.58325 15.1442C4.58325 16.3592 6.38325 16.9751 9.93409 16.9751C13.4841 16.9751 15.2833 16.3651 15.2833 15.1609C15.2833 13.9459 13.4841 13.3301 9.93409 13.3301M9.93409 18.2251C8.30159 18.2251 3.33325 18.2251 3.33325 15.1442C3.33325 12.3976 7.10075 12.0801 9.93409 12.0801C11.5666 12.0801 16.5333 12.0801 16.5333 15.1609C16.5333 17.9076 12.7666 18.2251 9.93409 18.2251" fill="#777777"/>
  </g>
  <mask id="mask1_1902_7170" style="mask-type:luminance" maskUnits="userSpaceOnUse" x="5" y="1" width="10" height="10">
    <path fill-rule="evenodd" clip-rule="evenodd" d="M5.50818 1.66699H14.3582V10.5158H5.50818V1.66699Z" fill="white"/>
  </mask>
  <g mask="url(#mask1_1902_7170)">
    <path fill-rule="evenodd" clip-rule="evenodd" d="M9.93404 2.85699C8.14987 2.85699 6.69821 4.30783 6.69821 6.09199C6.69237 7.87033 8.13321 9.32033 9.90987 9.32699L9.93404 9.92199V9.32699C11.7174 9.32699 13.1682 7.87533 13.1682 6.09199C13.1682 4.30783 11.7174 2.85699 9.93404 2.85699M9.93404 10.5162H9.90737C7.47237 10.5087 5.49987 8.52283 5.50821 6.08949C5.50821 3.65199 7.4932 1.66699 9.93404 1.66699C12.374 1.66699 14.3582 3.65199 14.3582 6.09199C14.3582 8.53199 12.374 10.5162 9.93404 10.5162" fill="#777777"/>
  </g>
</svg>