<svg xmlns="http://www.w3.org/2000/svg" width="24" height="25" viewBox="0 0 24 25" fill="none">
  <path fill-rule="evenodd" clip-rule="evenodd" d="M11.9996 10.1406C10.6696 10.1406 9.58862 11.2226 9.58862 12.5526C9.58862 13.8816 10.6696 14.9626 11.9996 14.9626C13.3296 14.9626 14.4116 13.8816 14.4116 12.5526C14.4116 11.2226 13.3296 10.1406 11.9996 10.1406ZM11.9996 16.4626C9.84262 16.4626 8.08862 14.7086 8.08862 12.5526C8.08862 10.3956 9.84262 8.64062 11.9996 8.64062C14.1566 8.64062 15.9116 10.3956 15.9116 12.5526C15.9116 14.7086 14.1566 16.4626 11.9996 16.4626Z" fill="#5C657A"/>
  <mask id="mask0_1701_8814" style="mask-type:luminance" maskUnits="userSpaceOnUse" x="2" y="4" width="20" height="17">
    <path fill-rule="evenodd" clip-rule="evenodd" d="M2.00012 4.5H22V20.605H2.00012V4.5Z" fill="white"/>
  </mask>
  <g mask="url(#mask0_1701_8814)">
    <path fill-rule="evenodd" clip-rule="evenodd" d="M3.56987 12.5527C5.42987 16.6617 8.56287 19.1047 11.9999 19.1057C15.4369 19.1047 18.5699 16.6617 20.4299 12.5527C18.5699 8.44475 15.4369 6.00175 11.9999 6.00075C8.56387 6.00175 5.42987 8.44475 3.56987 12.5527ZM12.0019 20.6057H11.9979H11.9969C7.86087 20.6027 4.14687 17.7038 2.06087 12.8488C1.97987 12.6597 1.97987 12.4458 2.06087 12.2568C4.14687 7.40275 7.86187 4.50375 11.9969 4.50075C11.9989 4.49975 11.9989 4.49975 11.9999 4.50075C12.0019 4.49975 12.0019 4.49975 12.0029 4.50075C16.1389 4.50375 19.8529 7.40275 21.9389 12.2568C22.0209 12.4458 22.0209 12.6597 21.9389 12.8488C19.8539 17.7038 16.1389 20.6027 12.0029 20.6057H12.0019Z" fill="#5C657A"/>
  </g>
</svg>